{"_v":2,"glyphs":{"0":{"ha":480,"x_min":41,"x_max":439,"o":"m 240 -11 l 240 -11 q 176 -11 132 26 q 87 62 64 143 q 41 224 41 357 l 41 357 q 41 480 62 562 q 83 643 127 684 q 171 725 239 725 l 239 725 q 307 725 351 684 q 395 642 417 561 q 439 479 439 357 l 439 357 q 439 270 428 202 q 417 134 394 87 q 370 39 332 14 q 294 -11 240 -11 z m 239 78 l 239 78 q 267 78 286 96 q 305 114 317 150 q 328 185 333 237 q 338 289 338 357 l 338 357 q 338 424 333 476 q 328 528 317 564 q 305 599 286 618 q 267 636 239 636 l 239 636 q 211 636 193 618 q 174 599 163 564 q 152 528 148 476 q 143 424 143 357 l 143 357 q 143 288 148 236 q 152 184 163 149 q 174 113 193 96 q 212 78 239 78 z"},"1":{"ha":480,"x_min":64,"x_max":330,"o":"m 330 714 l 330 0 l 230 0 l 230 466 q 230 497 232 532 q 233 566 233 597 l 233 597 q 229 590 217 578 q 205 565 191 551 l 191 551 l 119 486 l 64 546 l 246 714 l 330 714 z"},"2":{"ha":480,"x_min":36,"x_max":437,"o":"m 437 0 l 36 0 l 36 75 l 191 273 q 238 332 266 375 q 293 417 305 454 q 317 490 317 533 l 317 533 q 317 565 306 588 q 295 611 274 623 q 253 635 223 635 l 223 635 q 186 635 154 622 q 122 608 90 584 l 90 584 l 41 655 q 67 675 96 691 q 124 706 157 716 q 190 725 228 725 l 228 725 q 287 725 330 702 q 372 678 396 637 q 419 595 419 540 l 419 540 q 419 484 402 437 q 385 389 352 342 q 319 294 273 238 l 273 238 l 158 95 l 158 90 l 437 90 l 437 0 z"},"3":{"ha":480,"x_min":35,"x_max":431,"o":"m 204 -11 l 204 -11 q 154 -11 112 -4 q 70 3 36 17 l 36 17 l 36 111 q 74 94 113 85 q 152 76 194 76 l 194 76 q 263 76 295 111 q 326 145 326 206 l 326 206 q 326 245 310 272 q 293 298 258 312 q 223 325 168 325 l 168 325 l 123 325 l 123 411 l 171 411 q 220 411 252 427 q 284 442 300 470 q 315 498 315 535 l 315 535 q 315 584 290 611 q 265 637 215 637 l 215 637 q 176 637 145 624 q 113 611 84 591 l 84 591 l 35 663 q 78 693 123 709 q 168 725 223 725 l 223 725 q 282 725 326 705 q 369 684 393 645 q 416 606 416 551 l 416 551 q 416 508 401 473 q 385 438 356 413 q 327 388 286 375 l 286 375 l 286 372 q 357 360 394 316 q 431 271 431 200 l 431 200 q 431 135 405 88 q 378 40 327 15 q 276 -11 204 -11 z"},"4":{"ha":480,"x_min":18,"x_max":465,"o":"m 384 0 l 285 0 l 285 154 l 18 154 l 18 233 l 282 718 l 384 718 l 384 239 l 465 239 l 465 154 l 384 154 l 384 0 z m 249 510 l 106 239 l 285 239 l 285 467 q 285 485 286 509 q 286 533 288 556 q 289 579 289 593 l 289 593 l 286 593 q 278 571 269 550 q 260 529 249 510 l 249 510 z"},"5":{"ha":480,"x_min":51,"x_max":434,"o":"m 202 -11 l 202 -11 q 158 -11 118 -3 q 78 4 51 18 l 51 18 l 51 113 q 81 96 120 86 q 158 76 198 76 l 198 76 q 242 76 272 95 q 301 114 316 148 q 331 182 331 226 l 331 226 q 331 291 298 325 q 265 358 200 358 l 200 358 q 176 358 150 354 q 124 349 101 342 l 101 342 l 60 375 l 82 714 l 391 714 l 391 623 l 169 623 l 155 436 q 175 440 196 442 q 216 444 235 444 l 235 444 q 296 444 341 418 q 386 392 410 345 q 434 297 434 233 l 434 233 q 434 158 408 103 q 381 48 329 19 q 277 -11 202 -11 z"},"6":{"ha":480,"x_min":45,"x_max":442,"o":"m 250 -11 l 250 -11 q 201 -11 163 10 q 125 31 99 72 q 72 112 59 171 q 45 229 45 304 l 45 304 q 45 379 54 444 q 63 508 83 560 q 102 612 134 649 q 166 685 212 705 q 257 724 318 724 l 318 724 q 340 724 362 722 q 384 720 401 715 l 401 715 l 401 627 q 384 632 365 635 q 346 638 325 638 l 325 638 q 263 638 224 608 q 184 578 164 520 q 144 461 140 373 l 140 373 l 145 373 q 158 399 177 417 q 195 435 220 445 q 245 455 274 455 l 274 455 q 329 455 367 426 q 404 397 423 347 q 442 296 442 230 l 442 230 q 442 160 420 105 q 398 50 355 20 q 312 -11 250 -11 z m 248 77 l 248 77 q 292 77 318 114 q 343 151 343 229 l 343 229 q 343 297 320 333 q 296 369 249 369 l 249 369 q 217 369 194 353 q 171 336 159 309 q 146 282 146 252 l 146 252 q 146 222 153 191 q 159 160 171 134 q 183 108 203 93 q 222 77 248 77 z"},"7":{"ha":480,"x_min":32,"x_max":443,"o":"m 210 0 l 104 0 l 340 622 l 32 622 l 32 714 l 443 714 l 443 641 l 210 0 z"},"8":{"ha":480,"x_min":36,"x_max":444,"o":"m 243 -11 l 243 -11 q 179 -11 133 11 q 87 33 62 76 q 36 118 36 178 l 36 178 q 36 221 51 256 q 65 291 93 320 q 120 349 161 373 l 161 373 q 126 398 103 426 q 79 454 68 486 q 56 518 56 555 l 56 555 q 56 609 80 647 q 104 684 146 704 q 188 724 241 724 l 241 724 q 295 724 337 705 q 378 685 402 648 q 426 610 426 555 l 426 555 q 426 516 413 484 q 400 451 375 424 q 349 397 310 375 l 310 375 q 349 351 380 323 q 410 295 427 261 q 444 226 444 182 l 444 182 q 444 122 418 79 q 392 36 347 13 q 301 -11 243 -11 z m 240 71 l 240 71 q 292 71 320 101 q 347 131 347 183 l 347 183 q 347 209 336 233 q 324 256 302 277 q 280 298 249 317 l 249 317 l 232 327 q 198 308 176 286 q 154 264 144 238 q 133 212 133 180 l 133 180 q 133 131 161 101 q 188 71 240 71 z m 240 422 l 240 422 q 270 439 290 458 q 309 477 319 500 q 328 522 328 550 l 328 550 q 328 596 304 620 q 280 643 240 643 l 240 643 q 201 643 177 618 q 152 593 152 549 l 152 549 q 152 520 163 497 q 174 474 194 456 q 213 438 240 422 z"},"9":{"ha":480,"x_min":38,"x_max":436,"o":"m 161 -11 l 161 -11 q 142 -11 118 -8 q 93 -6 77 -2 l 77 -2 l 77 87 q 94 81 114 78 q 133 75 154 75 l 154 75 q 204 75 239 95 q 274 115 295 151 q 316 187 327 235 q 338 283 340 340 l 340 340 l 335 340 q 322 315 304 297 q 286 278 262 269 q 237 259 205 259 l 205 259 q 151 259 114 288 q 77 316 58 367 q 38 418 38 483 l 38 483 q 38 554 60 608 q 82 662 126 693 q 170 724 234 724 l 234 724 q 282 724 320 704 q 357 683 383 643 q 409 603 423 546 q 436 489 436 416 l 436 416 q 436 339 427 273 q 417 207 397 155 q 376 103 344 66 q 312 28 267 9 q 221 -11 161 -11 z m 231 344 l 231 344 q 265 344 288 362 q 311 380 323 408 q 335 436 335 465 l 335 465 q 335 491 330 520 q 325 549 313 576 q 301 603 282 620 q 262 636 234 636 l 234 636 q 189 636 164 599 q 138 561 138 484 l 138 484 q 138 415 162 380 q 186 344 231 344 z"},"\r":{"ha":247,"x_min":0,"x_max":0,"o":""}," ":{"ha":247,"x_min":0,"x_max":0,"o":""},"ഀ":{"ha":0,"x_min":-414,"x_max":-142,"o":"m -414 719 l -414 719 q -414 785 -377 825 q -340 864 -279 864 l -279 864 q -216 864 -179 825 q -142 785 -142 719 l -142 719 q -142 652 -179 613 q -216 573 -279 573 l -279 573 q -341 573 -377 613 q -414 652 -414 719 z m -338 719 l -338 719 q -338 687 -324 665 q -310 642 -279 642 l -279 642 q -247 642 -232 665 q -218 687 -218 720 l -218 720 q -218 752 -233 774 q -248 796 -279 796 l -279 796 q -309 796 -323 774 q -338 752 -338 719 z"},"ഁ":{"ha":0,"x_min":-435,"x_max":-121,"o":"m -278 649 l -278 649 q -352 649 -393 690 q -435 730 -435 808 l -435 808 q -435 823 -433 837 q -431 851 -428 863 l -428 863 l -357 852 q -359 842 -360 831 q -362 819 -362 810 l -362 810 q -362 776 -351 756 q -340 736 -321 728 q -302 719 -279 719 l -279 719 q -256 719 -237 727 q -218 735 -206 756 q -195 776 -195 812 l -195 812 q -195 819 -196 831 q -197 842 -200 852 l -200 852 l -128 862 q -125 850 -123 836 q -121 822 -121 809 l -121 809 q -121 731 -163 690 q -205 649 -278 649 z m -279 758 l -279 758 q -301 758 -313 772 q -325 785 -325 808 l -325 808 q -325 831 -313 845 q -301 859 -279 859 l -279 859 q -257 859 -244 845 q -232 831 -232 809 l -232 809 q -232 785 -244 772 q -257 758 -279 758 z"},"ം":{"ha":403,"x_min":31,"x_max":372,"o":"m 202 -12 l 202 -12 q 149 -12 111 11 q 72 34 52 77 q 31 120 31 177 l 31 177 q 31 237 53 279 q 75 321 113 344 q 151 366 201 366 l 201 366 q 252 366 291 344 q 329 322 351 280 q 372 238 372 177 l 372 177 q 372 118 351 76 q 329 33 291 11 q 252 -12 202 -12 z m 201 291 l 201 291 q 167 291 145 265 q 123 238 123 176 l 123 176 q 123 116 145 90 q 167 63 202 63 l 202 63 q 236 63 258 90 q 280 116 280 177 l 280 177 q 280 238 259 265 q 237 291 201 291 z"},"ഃ":{"ha":304,"x_min":30,"x_max":274,"o":"m 30 437 l 30 437 q 30 496 64 532 q 97 568 151 568 l 151 568 q 206 568 240 533 q 274 497 274 437 l 274 437 q 274 377 241 341 q 207 305 151 305 l 151 305 q 96 305 63 341 q 30 376 30 437 z m 104 438 l 104 438 q 104 408 116 391 q 128 373 151 373 l 151 373 q 176 373 188 391 q 200 408 200 437 l 200 437 q 200 466 188 483 q 175 500 151 500 l 151 500 q 128 500 116 484 q 104 467 104 438 z m 30 120 l 30 120 q 30 180 64 216 q 97 252 151 252 l 151 252 q 206 252 240 217 q 274 181 274 120 l 274 120 q 274 59 241 24 q 207 -12 151 -12 l 151 -12 q 96 -12 63 24 q 30 60 30 120 z m 104 120 l 104 120 q 104 90 116 73 q 128 55 151 55 l 151 55 q 176 55 188 73 q 200 90 200 120 l 200 120 q 200 149 188 167 q 175 184 151 184 l 151 184 q 128 184 116 167 q 104 149 104 120 z"},"ഄ":{"ha":529,"x_min":35,"x_max":494,"o":"m 50 324 l 50 324 l 141 307 q 135 286 132 263 q 129 239 129 215 l 129 215 q 129 150 159 111 q 189 71 264 71 l 264 71 q 339 71 369 111 q 399 150 399 215 l 399 215 q 399 239 397 263 q 394 286 388 307 l 388 307 l 479 324 q 484 304 489 275 q 494 246 494 214 l 494 214 q 494 149 472 99 q 450 49 400 20 q 349 -9 264 -9 l 264 -9 q 180 -9 130 20 q 79 49 57 99 q 35 149 35 214 l 35 214 q 35 246 40 275 q 44 304 50 324 z m 224 175 l 224 407 l 307 407 l 307 175 l 224 175 z"},"അ":{"ha":1286,"x_min":36,"x_max":1250,"o":"m 326 568 l 326 568 q 364 568 407 561 q 450 553 489 534 l 489 534 q 496 531 501 526 q 506 520 512 516 l 512 516 q 545 503 568 482 q 591 461 604 434 q 617 406 617 370 l 617 370 q 617 343 609 321 q 600 299 582 282 q 564 264 533 251 l 533 251 l 531 260 q 575 247 601 215 q 627 183 627 135 l 627 135 q 627 95 610 62 q 593 28 557 8 q 520 -12 459 -12 l 459 -12 q 390 -12 347 19 q 303 50 282 106 q 261 161 261 236 l 261 236 q 261 292 276 344 q 290 395 320 439 q 350 482 396 512 l 396 512 q 401 516 406 520 q 410 524 415 528 l 415 528 q 448 547 488 558 q 528 568 575 568 l 575 568 q 632 568 672 554 q 711 540 739 515 q 766 489 787 455 l 787 455 l 815 248 l 815 0 l 718 0 l 718 293 q 718 363 710 399 q 701 435 676 460 l 676 460 q 658 477 633 486 q 607 494 569 494 l 569 494 q 545 494 524 490 q 502 485 484 478 l 484 478 q 450 465 425 441 q 400 416 385 384 q 369 351 362 313 q 354 275 354 234 l 354 234 q 354 144 381 104 q 407 63 457 63 l 457 63 q 494 63 514 81 q 533 99 533 137 l 533 137 q 533 173 509 195 q 485 216 440 216 l 440 216 l 430 216 l 430 292 l 438 292 q 479 292 502 314 q 524 335 524 370 l 524 370 q 524 412 500 440 q 475 467 423 480 l 423 480 q 398 489 376 492 q 354 494 335 494 l 335 494 q 267 494 223 466 q 179 438 158 391 q 136 343 136 281 l 136 281 q 136 228 148 186 q 159 144 180 111 q 201 78 230 51 l 230 51 l 163 -9 q 128 22 100 64 q 71 105 54 160 q 36 215 36 286 l 36 286 q 36 342 53 393 q 69 443 104 483 q 138 523 193 546 q 248 568 326 568 z m 1066 -12 l 1066 -12 q 1008 -12 971 16 q 934 44 916 93 q 898 141 898 200 l 898 200 q 898 297 940 351 q 981 404 1055 404 l 1055 404 q 1098 404 1129 383 q 1160 362 1182 326 q 1203 290 1215 242 l 1215 242 l 1182 233 q 1176 254 1162 276 q 1148 298 1127 314 q 1106 329 1077 329 l 1077 329 q 1033 329 1013 295 q 993 260 993 199 l 993 199 q 993 157 1001 127 q 1009 96 1026 80 q 1043 64 1069 64 l 1069 64 q 1097 64 1117 82 q 1136 100 1147 140 q 1157 179 1157 244 l 1157 244 q 1157 252 1156 271 q 1154 289 1151 308 l 1151 308 q 1151 313 1151 321 q 1151 328 1150 333 l 1150 333 q 1143 373 1121 409 q 1099 444 1060 467 q 1021 489 965 489 l 965 489 q 931 489 906 482 q 881 475 861 457 l 861 457 q 846 444 836 424 q 825 404 820 374 q 815 343 815 295 l 815 295 l 815 209 l 753 461 q 775 492 803 517 q 830 541 869 555 q 908 568 964 568 l 964 568 q 1035 568 1089 544 q 1142 520 1178 476 q 1214 432 1232 373 q 1250 313 1250 241 l 1250 241 q 1250 148 1227 93 q 1204 37 1163 13 q 1121 -12 1066 -12 z"},"ആ":{"ha":1413,"x_min":36,"x_max":1389,"o":"m 326 568 l 326 568 q 364 568 407 561 q 450 553 489 534 l 489 534 q 496 531 501 526 q 506 520 512 516 l 512 516 q 545 503 568 482 q 591 461 604 434 q 617 406 617 370 l 617 370 q 617 343 609 321 q 600 299 582 282 q 564 264 533 251 l 533 251 l 531 260 q 575 247 601 215 q 627 183 627 135 l 627 135 q 627 95 610 62 q 593 28 557 8 q 520 -12 459 -12 l 459 -12 q 390 -12 347 19 q 303 50 282 106 q 261 161 261 236 l 261 236 q 261 292 276 344 q 290 395 320 439 q 350 482 396 512 l 396 512 q 401 516 406 520 q 410 524 415 528 l 415 528 q 448 547 488 558 q 528 568 575 568 l 575 568 q 632 568 672 554 q 711 540 739 515 q 766 489 787 455 l 787 455 l 815 244 l 815 0 l 718 0 l 718 293 q 718 363 710 399 q 701 435 676 460 l 676 460 q 658 477 633 486 q 607 494 569 494 l 569 494 q 545 494 524 490 q 502 485 484 478 l 484 478 q 450 465 425 441 q 400 416 385 384 q 369 351 362 313 q 354 275 354 234 l 354 234 q 354 144 381 104 q 407 63 457 63 l 457 63 q 494 63 514 81 q 533 99 533 137 l 533 137 q 533 173 509 195 q 485 216 440 216 l 440 216 l 430 216 l 430 292 l 438 292 q 479 292 502 314 q 524 335 524 370 l 524 370 q 524 412 500 440 q 475 467 423 480 l 423 480 q 398 489 376 492 q 354 494 335 494 l 335 494 q 267 494 223 466 q 179 438 158 391 q 136 343 136 281 l 136 281 q 136 228 148 186 q 159 144 180 111 q 201 78 230 51 l 230 51 l 163 -9 q 128 22 100 64 q 71 105 54 160 q 36 215 36 286 l 36 286 q 36 342 53 393 q 69 443 104 483 q 138 523 193 546 q 248 568 326 568 z m 955 568 l 955 568 q 1037 568 1093 537 q 1148 506 1180 453 q 1211 400 1221 334 l 1221 334 q 1226 309 1228 283 q 1230 256 1230 228 l 1230 228 q 1230 142 1209 89 q 1187 36 1148 12 q 1108 -12 1050 -12 l 1050 -12 q 993 -12 957 13 q 920 38 903 80 q 885 121 885 173 l 885 173 q 885 276 948 331 q 1011 386 1116 386 l 1116 386 q 1129 386 1141 386 q 1153 385 1162 383 l 1162 383 l 1184 382 q 1248 370 1294 331 q 1339 291 1364 230 q 1389 169 1389 92 l 1389 92 q 1389 27 1373 -26 q 1357 -80 1324 -119 q 1290 -158 1238 -179 q 1185 -201 1114 -201 l 1114 -201 q 1076 -201 1045 -195 q 1014 -190 986 -180 l 986 -180 l 1013 -105 q 1037 -113 1062 -117 q 1086 -121 1114 -121 l 1114 -121 q 1167 -121 1203 -103 q 1238 -86 1259 -55 q 1279 -25 1288 14 q 1296 53 1296 96 l 1296 96 q 1296 146 1286 185 q 1276 223 1256 251 q 1236 278 1206 295 l 1206 295 l 1175 301 q 1161 306 1146 309 q 1131 311 1119 311 l 1119 311 q 1076 311 1045 296 q 1014 280 998 250 q 981 220 981 174 l 981 174 q 981 143 988 119 q 995 94 1011 80 q 1027 65 1053 65 l 1053 65 q 1095 65 1117 103 q 1138 140 1138 232 l 1138 232 q 1138 261 1135 291 q 1131 320 1124 348 l 1124 348 l 1120 368 q 1109 404 1088 431 q 1066 458 1034 474 q 1001 489 956 489 l 956 489 q 929 489 905 482 q 880 475 860 457 l 860 457 q 845 444 835 424 q 825 403 820 373 q 815 342 815 295 l 815 295 l 815 208 l 752 460 q 773 492 801 517 q 829 541 867 555 q 905 568 955 568 z"},"ഇ":{"ha":835,"x_min":35,"x_max":799,"o":"m 281 568 l 281 568 q 334 568 369 556 q 404 544 429 523 q 453 502 474 475 l 474 475 l 447 480 q 477 529 516 549 q 554 568 598 568 l 598 568 q 650 568 688 549 q 726 529 751 493 q 775 457 787 410 q 799 363 799 310 l 799 310 q 799 219 779 160 q 758 101 711 62 l 711 62 q 686 41 653 27 q 620 13 574 7 q 527 0 460 0 l 460 0 l 258 0 q 218 0 200 -2 q 181 -5 168 -12 l 168 -12 q 153 -18 146 -30 q 139 -43 139 -59 l 139 -59 q 139 -74 145 -85 q 150 -97 161 -105 l 161 -105 q 174 -113 197 -117 q 219 -122 258 -122 l 258 -122 l 783 -122 l 783 -201 l 253 -201 q 200 -201 162 -193 q 124 -185 99 -170 l 99 -170 q 71 -152 57 -125 q 42 -99 42 -64 l 42 -64 q 42 -28 56 1 q 69 29 98 47 l 98 47 q 113 57 132 64 q 151 70 179 74 q 206 77 245 77 l 245 77 l 437 77 q 501 77 541 83 q 581 89 605 101 q 629 112 646 127 l 646 127 q 681 157 691 204 q 701 250 701 307 l 701 307 q 701 352 690 394 q 679 435 655 463 q 631 490 591 490 l 591 490 q 573 490 559 484 q 545 478 535 466 l 535 466 q 519 448 513 417 q 506 386 506 329 l 506 329 l 506 134 l 410 134 l 410 326 q 410 380 402 410 q 393 440 375 458 l 375 458 q 359 474 337 483 q 314 491 279 491 l 279 491 q 248 491 223 483 q 198 474 179 459 q 160 444 146 423 q 132 402 123 376 l 123 376 q 121 370 122 364 q 123 358 122 352 l 122 352 q 121 342 120 331 q 118 320 118 306 l 118 306 q 118 250 134 221 q 150 191 184 191 l 184 191 q 213 191 226 214 q 238 237 238 271 l 238 271 q 238 294 233 312 q 227 329 215 339 q 202 348 181 348 l 181 348 q 150 348 130 333 q 110 317 92 299 l 92 299 l 52 334 q 68 356 91 376 q 114 395 142 407 q 170 419 202 419 l 202 419 q 247 419 276 399 q 304 379 317 346 q 330 313 330 271 l 330 271 q 330 228 315 194 q 300 159 268 139 q 235 118 185 118 l 185 118 q 140 118 107 140 q 73 162 54 206 q 35 250 35 317 l 35 317 q 35 392 66 449 q 97 505 153 537 q 208 568 281 568 z"},"ഈ":{"ha":1491,"x_min":35,"x_max":1454,"o":"m 281 568 l 281 568 q 334 568 369 556 q 404 544 429 523 q 453 502 474 475 l 474 475 l 447 480 q 477 529 516 549 q 554 568 598 568 l 598 568 q 650 568 688 549 q 726 529 751 493 q 775 457 787 410 q 799 363 799 310 l 799 310 q 799 219 779 160 q 758 101 711 62 l 711 62 q 686 41 653 27 q 620 13 574 7 q 527 0 460 0 l 460 0 l 258 0 q 218 0 200 -2 q 181 -5 168 -12 l 168 -12 q 153 -18 146 -30 q 139 -43 139 -59 l 139 -59 q 139 -74 145 -85 q 150 -97 161 -105 l 161 -105 q 174 -113 197 -117 q 219 -122 258 -122 l 258 -122 l 783 -122 l 783 -201 l 253 -201 q 200 -201 162 -193 q 124 -185 99 -170 l 99 -170 q 71 -152 57 -125 q 42 -99 42 -64 l 42 -64 q 42 -28 56 1 q 69 29 98 47 l 98 47 q 113 57 132 64 q 151 70 179 74 q 206 77 245 77 l 245 77 l 437 77 q 501 77 541 83 q 581 89 605 101 q 629 112 646 127 l 646 127 q 681 157 691 204 q 701 250 701 307 l 701 307 q 701 352 690 394 q 679 435 655 463 q 631 490 591 490 l 591 490 q 573 490 559 484 q 545 478 535 466 l 535 466 q 519 448 513 417 q 506 386 506 329 l 506 329 l 506 134 l 410 134 l 410 326 q 410 380 402 410 q 393 440 375 458 l 375 458 q 359 474 337 483 q 314 491 279 491 l 279 491 q 248 491 223 483 q 198 474 179 459 q 160 444 146 423 q 132 402 123 376 l 123 376 q 121 370 122 364 q 123 358 122 352 l 122 352 q 121 342 120 331 q 118 320 118 306 l 118 306 q 118 250 134 221 q 150 191 184 191 l 184 191 q 213 191 226 214 q 238 237 238 271 l 238 271 q 238 294 233 312 q 227 329 215 339 q 202 348 181 348 l 181 348 q 150 348 130 333 q 110 317 92 299 l 92 299 l 52 334 q 68 356 91 376 q 114 395 142 407 q 170 419 202 419 l 202 419 q 247 419 276 399 q 304 379 317 346 q 330 313 330 271 l 330 271 q 330 228 315 194 q 300 159 268 139 q 235 118 185 118 l 185 118 q 140 118 107 140 q 73 162 54 206 q 35 250 35 317 l 35 317 q 35 392 66 449 q 97 505 153 537 q 208 568 281 568 z m 1275 568 l 1275 568 q 1332 568 1372 538 q 1411 507 1432 449 q 1453 391 1453 307 l 1453 307 q 1453 198 1424 128 q 1395 57 1339 23 q 1282 -12 1199 -12 l 1199 -12 q 1148 -12 1102 -2 q 1055 8 1011 32 l 1011 32 l 1054 106 q 1084 91 1118 81 q 1152 70 1193 70 l 1193 70 q 1253 70 1289 97 q 1324 124 1339 177 q 1354 229 1354 306 l 1354 306 q 1354 399 1331 445 q 1307 490 1268 490 l 1268 490 q 1250 490 1239 484 q 1228 477 1220 466 l 1220 466 q 1210 452 1206 429 q 1202 406 1202 357 l 1202 357 l 1202 261 l 1106 261 l 1106 349 q 1106 395 1103 421 q 1100 446 1090 461 l 1090 461 q 1082 476 1069 483 q 1055 490 1039 490 l 1039 490 q 1002 490 983 460 q 964 430 964 387 l 964 387 q 964 354 968 327 q 972 299 978 277 l 978 277 l 887 257 q 878 287 873 322 q 867 357 867 390 l 867 390 q 867 438 885 479 q 902 519 938 544 q 974 568 1030 568 l 1030 568 q 1076 568 1107 550 q 1137 531 1158 496 l 1158 496 l 1145 497 q 1169 536 1201 552 q 1232 568 1275 568 z"},"ഉ":{"ha":598,"x_min":35,"x_max":562,"o":"m 298 568 l 298 568 q 372 568 422 545 q 472 521 503 482 q 534 442 548 393 q 562 344 562 292 l 562 292 q 562 214 544 157 q 525 99 483 63 l 483 63 q 455 39 421 25 q 387 11 346 6 q 305 0 255 0 l 255 0 l 243 0 q 215 0 198 -2 q 181 -5 168 -11 l 168 -11 q 153 -18 146 -30 q 139 -43 139 -59 l 139 -59 q 139 -74 145 -85 q 150 -97 161 -105 l 161 -105 q 174 -113 197 -117 q 219 -122 258 -122 l 258 -122 l 546 -122 l 546 -201 l 253 -201 q 200 -201 162 -193 q 124 -185 99 -170 l 99 -170 q 71 -152 57 -125 q 42 -99 42 -64 l 42 -64 q 42 -28 56 1 q 69 29 98 48 l 98 48 q 120 62 153 70 q 185 77 232 77 l 232 77 l 234 77 q 287 77 322 83 q 357 88 380 99 q 402 110 418 127 l 418 127 q 445 155 454 198 q 463 240 463 291 l 463 291 q 463 326 455 362 q 446 397 427 426 q 407 455 374 473 q 340 490 291 490 l 291 490 q 256 490 228 482 q 200 473 179 457 q 158 441 144 419 q 129 397 121 370 l 121 370 q 120 365 122 361 q 123 357 122 353 l 122 353 q 121 343 120 332 q 118 321 118 306 l 118 306 q 118 250 134 221 q 150 191 184 191 l 184 191 q 213 191 226 214 q 238 237 238 271 l 238 271 q 238 294 233 312 q 227 329 215 339 q 202 348 181 348 l 181 348 q 150 348 130 333 q 109 317 92 299 l 92 299 l 52 334 q 68 356 91 376 q 114 395 142 407 q 170 419 202 419 l 202 419 q 247 419 276 399 q 304 379 317 346 q 330 313 330 271 l 330 271 q 330 228 315 194 q 300 159 268 139 q 235 118 185 118 l 185 118 q 140 118 107 140 q 73 162 54 206 q 35 250 35 316 l 35 316 q 35 373 53 419 q 71 465 106 499 q 140 532 189 550 q 237 568 298 568 z"},"ഊ":{"ha":1252,"x_min":35,"x_max":1215,"o":"m 298 568 l 298 568 q 372 568 422 545 q 472 521 503 482 q 534 442 548 393 q 562 344 562 292 l 562 292 q 562 214 544 157 q 525 99 483 63 l 483 63 q 455 39 421 25 q 387 11 346 6 q 305 0 255 0 l 255 0 l 243 0 q 215 0 198 -2 q 181 -5 168 -11 l 168 -11 q 153 -18 146 -30 q 139 -43 139 -59 l 139 -59 q 139 -74 145 -85 q 150 -97 161 -105 l 161 -105 q 174 -113 197 -117 q 219 -122 258 -122 l 258 -122 l 546 -122 l 546 -201 l 253 -201 q 200 -201 162 -193 q 124 -185 99 -170 l 99 -170 q 71 -152 57 -125 q 42 -99 42 -64 l 42 -64 q 42 -28 56 1 q 69 29 98 48 l 98 48 q 120 62 153 70 q 185 77 232 77 l 232 77 l 234 77 q 287 77 322 83 q 357 88 380 99 q 402 110 418 127 l 418 127 q 445 155 454 198 q 463 240 463 291 l 463 291 q 463 326 455 362 q 446 397 427 426 q 407 455 374 473 q 340 490 291 490 l 291 490 q 256 490 228 482 q 200 473 179 457 q 158 441 144 419 q 129 397 121 370 l 121 370 q 120 365 122 361 q 123 357 122 353 l 122 353 q 121 343 120 332 q 118 321 118 306 l 118 306 q 118 250 134 221 q 150 191 184 191 l 184 191 q 213 191 226 214 q 238 237 238 271 l 238 271 q 238 294 233 312 q 227 329 215 339 q 202 348 181 348 l 181 348 q 150 348 130 333 q 109 317 92 299 l 92 299 l 52 334 q 68 356 91 376 q 114 395 142 407 q 170 419 202 419 l 202 419 q 247 419 276 399 q 304 379 317 346 q 330 313 330 271 l 330 271 q 330 228 315 194 q 300 159 268 139 q 235 118 185 118 l 185 118 q 140 118 107 140 q 73 162 54 206 q 35 250 35 316 l 35 316 q 35 373 53 419 q 71 465 106 499 q 140 532 189 550 q 237 568 298 568 z m 1036 568 l 1036 568 q 1093 568 1133 538 q 1172 507 1193 449 q 1214 391 1214 307 l 1214 307 q 1214 198 1185 128 q 1156 57 1100 23 q 1043 -12 960 -12 l 960 -12 q 909 -12 863 -2 q 816 8 772 32 l 772 32 l 815 106 q 845 91 879 81 q 913 70 954 70 l 954 70 q 1014 70 1050 97 q 1085 124 1100 177 q 1115 229 1115 306 l 1115 306 q 1115 399 1092 445 q 1068 490 1029 490 l 1029 490 q 1011 490 1000 484 q 989 477 981 466 l 981 466 q 971 452 967 429 q 963 406 963 357 l 963 357 l 963 261 l 867 261 l 867 349 q 867 395 864 421 q 861 446 851 461 l 851 461 q 843 476 830 483 q 816 490 800 490 l 800 490 q 763 490 744 460 q 725 430 725 387 l 725 387 q 725 354 729 327 q 733 299 739 277 l 739 277 l 648 257 q 639 287 634 322 q 628 357 628 390 l 628 390 q 628 438 646 479 q 663 519 699 544 q 735 568 791 568 l 791 568 q 837 568 868 550 q 898 531 919 496 l 919 496 l 906 497 q 930 536 962 552 q 993 568 1036 568 z"},"ഋ":{"ha":773,"x_min":34,"x_max":739,"o":"m 575 568 l 575 568 q 651 568 695 514 q 739 459 739 359 l 739 359 q 739 293 720 244 q 701 195 663 160 l 663 160 q 624 122 568 104 q 512 85 431 85 l 431 85 l 345 85 q 292 85 250 92 q 207 99 175 115 q 143 131 117 155 l 117 155 q 77 190 56 241 q 34 291 34 357 l 34 357 q 34 420 55 468 q 76 515 115 542 q 154 568 208 568 l 208 568 q 259 568 292 547 q 325 525 341 488 q 357 451 357 407 l 357 407 q 357 355 341 319 q 324 283 293 264 q 261 245 213 245 l 213 245 q 181 245 154 257 q 126 268 104 286 q 81 303 63 322 l 63 322 l 90 389 q 105 369 120 353 q 134 337 152 328 q 169 319 193 319 l 193 319 q 230 319 248 342 q 265 365 265 409 l 265 409 q 265 446 250 469 q 234 492 203 492 l 203 492 q 177 492 159 477 q 141 462 132 434 q 123 405 123 365 l 123 365 q 123 348 125 332 q 127 316 131 301 l 131 301 l 127 282 q 138 248 161 224 q 183 200 214 186 q 245 171 283 165 q 320 158 363 158 l 363 158 l 410 158 q 452 158 490 165 q 528 171 560 186 q 591 200 614 224 q 636 248 647 283 l 647 283 l 643 302 q 646 315 648 332 q 650 348 650 363 l 650 363 q 650 406 642 435 q 634 464 618 478 q 601 492 576 492 l 576 492 q 543 492 526 469 q 509 445 509 404 l 509 404 q 509 364 526 342 q 542 319 579 319 l 579 319 q 603 319 621 328 q 639 337 654 353 q 668 368 683 387 l 683 387 l 710 321 q 693 303 671 286 q 649 268 621 257 q 593 245 560 245 l 560 245 q 513 245 481 265 q 449 284 433 320 q 417 355 417 404 l 417 404 q 417 450 435 488 q 452 525 487 547 q 522 568 575 568 z m 388 -224 l 388 -224 q 286 -224 217 -204 q 147 -184 111 -142 q 75 -100 75 -35 l 75 -35 q 75 9 96 41 q 116 73 152 93 q 187 113 234 123 q 281 133 334 133 l 334 133 l 437 133 q 492 133 539 123 q 586 113 622 93 q 658 73 679 41 q 699 9 699 -36 l 699 -36 q 699 -97 666 -139 q 632 -181 563 -202 q 494 -224 388 -224 z m 388 -144 l 388 -144 q 464 -144 511 -131 q 557 -119 579 -94 q 601 -69 601 -33 l 601 -33 q 601 0 585 22 q 568 43 540 56 q 511 68 475 73 q 438 78 396 78 l 396 78 l 378 78 q 320 78 274 68 q 228 58 201 34 q 173 10 173 -32 l 173 -32 q 173 -69 195 -94 q 216 -119 264 -131 q 311 -144 388 -144 z"},"ഌ":{"ha":1009,"x_min":38,"x_max":972,"o":"m 313 568 l 313 568 q 383 568 427 544 q 470 519 505 472 l 505 472 l 522 405 l 537 235 l 537 0 l 441 0 l 441 310 q 441 371 433 404 q 424 436 406 456 l 406 456 q 391 472 369 481 q 347 489 313 489 l 313 489 q 258 489 217 459 q 175 429 152 374 q 128 319 128 246 l 128 246 l 128 226 q 128 167 139 132 q 149 96 167 81 q 185 65 209 65 l 209 65 q 227 65 241 75 q 254 85 262 106 q 269 126 269 160 l 269 160 q 269 211 252 234 q 234 256 200 256 l 200 256 q 171 256 146 240 q 120 224 94 192 l 94 192 l 76 259 q 100 287 139 310 q 178 332 223 332 l 223 332 q 267 332 299 313 q 330 294 347 257 q 363 220 363 165 l 363 165 q 363 107 345 68 q 327 28 293 8 q 259 -12 211 -12 l 211 -12 q 165 -12 126 13 q 86 38 62 94 q 38 149 38 242 l 38 242 q 38 351 75 424 q 111 496 173 532 q 235 568 313 568 z m 788 -12 l 788 -12 q 730 -12 693 16 q 656 44 638 93 q 620 141 620 200 l 620 200 q 620 297 662 351 q 703 404 777 404 l 777 404 q 820 404 851 383 q 882 362 904 326 q 925 290 937 242 l 937 242 l 904 233 q 898 254 884 276 q 870 298 849 314 q 828 329 799 329 l 799 329 q 755 329 735 295 q 715 260 715 199 l 715 199 q 715 157 723 127 q 731 96 748 80 q 765 64 791 64 l 791 64 q 819 64 839 82 q 858 100 869 140 q 879 179 879 244 l 879 244 q 879 252 878 271 q 876 289 874 308 l 874 308 q 873 313 874 321 q 874 328 872 333 l 872 333 q 866 373 844 409 q 821 444 782 467 q 743 489 687 489 l 687 489 q 653 489 628 482 q 603 475 583 457 l 583 457 q 568 444 558 424 q 547 404 542 374 q 537 343 537 295 l 537 295 l 537 209 l 475 461 q 497 492 525 517 q 552 541 591 555 q 630 568 686 568 l 686 568 q 757 568 811 544 q 864 520 900 476 q 936 432 954 373 q 972 313 972 241 l 972 241 q 972 148 949 93 q 926 37 885 13 q 843 -12 788 -12 z"},"എ":{"ha":1089,"x_min":30,"x_max":1050,"o":"m 206 351 l 206 351 q 266 351 305 326 q 343 300 362 261 q 381 221 381 177 l 381 177 q 381 137 369 107 q 356 76 344 61 l 344 61 l 328 77 l 738 77 l 734 0 l 286 0 l 251 54 q 265 74 276 101 q 287 128 287 166 l 287 166 q 287 216 267 245 q 246 274 207 274 l 207 274 q 181 274 163 261 q 144 248 135 225 q 125 201 125 171 l 125 171 q 125 129 139 99 q 153 69 174 41 l 174 41 l 105 -8 q 73 28 52 72 q 30 116 30 173 l 30 173 q 30 227 52 267 q 74 306 114 329 q 153 351 206 351 z m 771 568 l 771 568 q 839 568 891 544 q 943 519 979 470 q 1014 421 1032 349 q 1050 276 1050 181 l 1050 181 q 1050 107 1036 34 q 1021 -39 994 -105 q 966 -172 926 -228 l 926 -228 l 850 -180 q 883 -132 905 -76 q 927 -21 939 43 q 950 107 950 180 l 950 180 q 950 243 941 299 q 932 354 911 397 q 889 440 855 465 q 820 490 769 490 l 769 490 q 705 490 663 448 q 621 405 601 328 q 580 251 580 146 l 580 146 q 580 117 581 94 q 582 70 583 50 l 583 50 q 584 44 584 39 q 583 33 583 27 l 583 27 q 587 -41 600 -80 q 613 -119 633 -135 q 652 -152 673 -152 l 673 -152 q 691 -152 701 -141 l 701 -141 q 707 -133 710 -120 q 712 -108 712 -85 l 712 -85 l 712 400 l 808 400 l 808 -55 q 808 -102 802 -133 q 795 -165 778 -187 l 778 -187 q 763 -205 739 -216 q 715 -228 679 -228 l 679 -228 q 619 -228 575 -190 q 530 -153 506 -70 q 482 13 482 147 l 482 147 q 482 244 501 322 q 519 400 556 455 q 592 510 646 539 q 699 568 771 568 z"},"ഏ":{"ha":1098,"x_min":30,"x_max":1068,"o":"m 206 351 l 206 351 q 266 351 305 326 q 343 300 362 261 q 380 221 380 177 l 380 177 q 380 137 368 107 q 355 76 343 61 l 343 61 l 325 77 l 736 77 l 734 0 l 286 0 l 251 54 q 265 74 276 101 q 286 128 286 166 l 286 166 q 286 216 266 245 q 246 274 207 274 l 207 274 q 181 274 163 261 q 144 248 135 225 q 125 201 125 171 l 125 171 q 125 129 139 99 q 153 69 174 41 l 174 41 l 104 -8 q 73 28 52 72 q 30 116 30 173 l 30 173 q 30 227 52 267 q 74 306 114 329 q 153 351 206 351 z m 808 568 l 808 568 q 877 568 926 549 q 974 529 1004 496 q 1033 462 1047 421 q 1060 380 1060 337 l 1060 337 q 1060 284 1045 246 q 1029 208 1005 183 q 980 157 951 140 l 951 140 l 952 150 q 1004 128 1036 84 q 1068 39 1068 -32 l 1068 -32 q 1068 -101 1046 -144 q 1024 -188 986 -208 q 948 -228 898 -228 l 898 -228 q 878 -228 859 -226 q 839 -224 826 -220 l 826 -220 l 842 -144 q 852 -147 863 -148 q 874 -150 883 -150 l 883 -150 q 912 -150 932 -137 q 951 -124 961 -98 q 970 -72 970 -30 l 970 -30 q 970 27 943 63 q 915 99 859 101 l 859 101 l 859 178 q 890 186 913 205 q 936 224 949 256 q 962 287 962 333 l 962 333 q 962 377 946 412 q 929 447 895 468 q 860 489 805 489 l 805 489 q 724 489 675 445 q 625 401 603 324 q 580 246 580 146 l 580 146 q 580 117 581 94 q 581 70 583 50 l 583 50 q 583 44 583 39 q 582 33 583 27 l 583 27 q 587 -41 600 -80 q 613 -119 633 -135 q 652 -152 673 -152 l 673 -152 q 691 -152 700 -141 l 700 -141 q 707 -133 709 -120 q 711 -108 711 -85 l 711 -85 l 711 400 l 808 400 l 808 -55 q 808 -102 802 -133 q 795 -165 778 -187 l 778 -187 q 763 -205 739 -216 q 714 -228 679 -228 l 679 -228 q 619 -228 575 -190 q 530 -153 506 -70 q 482 13 482 148 l 482 148 q 482 245 503 323 q 523 400 565 455 q 606 510 667 539 q 727 568 808 568 z"},"ഐ":{"ha":1708,"x_min":36,"x_max":1669,"o":"m 209 -12 l 209 -12 q 162 -12 123 13 q 83 38 60 92 q 36 146 36 235 l 36 235 q 36 314 57 376 q 77 437 116 480 q 154 523 207 546 q 259 568 323 568 l 323 568 q 389 568 438 547 q 487 526 519 488 q 551 449 567 398 q 582 347 582 286 l 582 286 q 582 216 566 162 q 549 108 520 67 q 491 25 454 -10 l 454 -10 l 388 51 q 414 75 436 107 q 457 139 470 181 q 482 223 482 279 l 482 279 q 482 345 464 392 q 445 439 408 464 q 371 489 318 489 l 318 489 q 262 489 218 457 q 174 424 150 366 q 125 308 125 232 l 125 232 q 125 169 136 133 q 146 96 165 81 q 183 65 207 65 l 207 65 q 225 65 239 75 q 252 85 260 106 q 267 127 267 160 l 267 160 q 267 210 249 233 q 231 256 198 256 l 198 256 q 169 256 144 240 q 118 224 92 192 l 92 192 l 74 259 q 98 287 137 310 q 175 332 220 332 l 220 332 q 264 332 296 313 q 327 294 344 257 q 360 220 360 165 l 360 165 q 360 107 342 68 q 324 28 291 8 q 257 -12 209 -12 z m 825 351 l 825 351 q 885 351 924 326 q 962 300 981 261 q 1000 221 1000 177 l 1000 177 q 1000 137 988 107 q 975 76 963 61 l 963 61 l 947 77 l 1357 77 l 1353 0 l 905 0 l 870 54 q 884 74 895 101 q 906 128 906 166 l 906 166 q 906 216 886 245 q 865 274 826 274 l 826 274 q 800 274 782 261 q 763 248 754 225 q 744 201 744 171 l 744 171 q 744 129 758 99 q 772 69 793 41 l 793 41 l 724 -8 q 692 28 671 72 q 649 116 649 173 l 649 173 q 649 227 671 267 q 693 306 733 329 q 772 351 825 351 z m 1390 568 l 1390 568 q 1458 568 1510 544 q 1562 519 1598 470 q 1633 421 1651 349 q 1669 276 1669 181 l 1669 181 q 1669 107 1655 34 q 1640 -39 1613 -105 q 1585 -172 1545 -228 l 1545 -228 l 1469 -180 q 1502 -132 1524 -76 q 1546 -21 1558 43 q 1569 107 1569 180 l 1569 180 q 1569 243 1560 299 q 1551 354 1530 397 q 1508 440 1474 465 q 1439 490 1388 490 l 1388 490 q 1324 490 1282 448 q 1240 405 1220 328 q 1199 251 1199 146 l 1199 146 q 1199 117 1200 94 q 1201 70 1202 50 l 1202 50 q 1203 44 1203 39 q 1202 33 1202 27 l 1202 27 q 1206 -41 1219 -80 q 1232 -119 1252 -135 q 1271 -152 1292 -152 l 1292 -152 q 1310 -152 1320 -141 l 1320 -141 q 1326 -133 1329 -120 q 1331 -108 1331 -85 l 1331 -85 l 1331 400 l 1427 400 l 1427 -55 q 1427 -102 1421 -133 q 1414 -165 1397 -187 l 1397 -187 q 1382 -205 1358 -216 q 1334 -228 1298 -228 l 1298 -228 q 1238 -228 1194 -190 q 1149 -153 1125 -70 q 1101 13 1101 147 l 1101 147 q 1101 244 1120 322 q 1138 400 1175 455 q 1211 510 1265 539 q 1318 568 1390 568 z"},"ഒ":{"ha":661,"x_min":36,"x_max":628,"o":"m 394 568 l 394 568 q 475 568 525 546 q 575 524 598 487 q 621 450 621 404 l 621 404 q 621 376 612 352 q 602 327 582 308 q 561 289 527 275 l 527 275 l 525 281 q 573 267 601 229 q 628 191 628 142 l 628 142 q 628 70 587 30 q 545 -11 469 -11 l 469 -11 q 443 -11 420 -8 q 397 -5 381 -1 l 381 -1 l 397 74 q 410 70 424 68 q 438 66 452 66 l 452 66 q 493 66 512 86 q 530 106 530 145 l 530 145 q 530 165 524 182 q 518 199 504 211 l 504 211 q 491 225 470 232 q 448 239 413 239 l 413 239 l 405 239 l 405 316 l 413 316 q 446 316 467 322 q 488 328 502 342 l 502 342 q 513 352 518 366 q 523 379 523 397 l 523 397 q 523 441 490 465 q 456 489 389 489 l 389 489 q 331 489 283 472 q 235 454 200 422 q 165 389 146 343 q 126 296 126 238 l 126 238 l 126 221 q 126 165 136 130 q 146 95 165 80 q 184 65 207 65 l 207 65 q 226 65 240 75 q 253 84 260 105 q 267 126 267 160 l 267 160 q 267 211 250 234 q 232 256 199 256 l 199 256 q 170 256 145 241 q 120 225 95 194 l 95 194 l 79 264 q 103 290 140 311 q 177 332 220 332 l 220 332 q 265 332 297 313 q 328 294 345 257 q 361 220 361 165 l 361 165 q 361 107 343 68 q 325 28 291 8 q 257 -12 209 -12 l 209 -12 q 162 -12 123 13 q 84 38 60 91 q 36 143 36 228 l 36 228 q 36 307 61 370 q 85 433 132 478 q 178 522 244 545 q 310 568 394 568 z"},"ഓ":{"ha":1109,"x_min":36,"x_max":1070,"o":"m 394 568 l 394 568 q 475 568 525 546 q 575 524 598 487 q 621 450 621 404 l 621 404 q 621 376 612 352 q 602 327 582 308 q 561 289 527 275 l 527 275 l 525 281 q 573 267 601 229 q 628 191 628 142 l 628 142 q 628 70 587 30 q 545 -11 469 -11 l 469 -11 q 443 -11 420 -8 q 397 -5 381 -1 l 381 -1 l 397 74 q 410 70 424 68 q 438 66 452 66 l 452 66 q 493 66 512 86 q 530 106 530 145 l 530 145 q 530 165 524 182 q 518 199 504 211 l 504 211 q 491 225 470 232 q 448 239 413 239 l 413 239 l 405 239 l 405 316 l 413 316 q 446 316 467 322 q 488 328 502 342 l 502 342 q 513 352 518 366 q 523 379 523 397 l 523 397 q 523 441 490 465 q 456 489 389 489 l 389 489 q 331 489 283 472 q 235 454 200 422 q 165 389 146 343 q 126 296 126 238 l 126 238 l 126 221 q 126 165 136 130 q 146 95 165 80 q 184 65 207 65 l 207 65 q 226 65 240 75 q 253 84 260 105 q 267 126 267 160 l 267 160 q 267 211 250 234 q 232 256 199 256 l 199 256 q 170 256 145 241 q 120 225 95 194 l 95 194 l 79 264 q 103 290 140 311 q 177 332 220 332 l 220 332 q 265 332 297 313 q 328 294 345 257 q 361 220 361 165 l 361 165 q 361 107 343 68 q 325 28 291 8 q 257 -12 209 -12 l 209 -12 q 162 -12 123 13 q 84 38 60 91 q 36 143 36 228 l 36 228 q 36 307 61 370 q 85 433 132 478 q 178 522 244 545 q 310 568 394 568 z m 1070 280 l 1070 280 q 1070 216 1061 163 q 1051 109 1028 70 q 1005 31 968 10 q 930 -12 873 -12 l 873 -12 q 824 -12 790 4 q 755 20 733 48 q 710 75 698 108 q 685 141 679 174 l 679 174 l 776 192 q 782 165 792 136 q 802 106 821 86 q 839 65 870 65 l 870 65 q 907 65 929 90 q 951 115 962 163 q 972 211 972 280 l 972 280 q 972 347 962 394 q 951 441 930 466 q 908 491 874 491 l 874 491 q 845 491 826 473 q 807 454 796 426 q 785 397 778 366 l 778 366 l 682 385 q 691 419 705 452 q 719 484 742 511 q 764 537 798 553 q 832 568 881 568 l 881 568 q 934 568 971 547 q 1007 525 1029 486 q 1051 447 1061 395 q 1070 342 1070 280 z"},"ഔ":{"ha":1313,"x_min":36,"x_max":1276,"o":"m 394 568 l 394 568 q 475 568 525 546 q 575 524 598 487 q 621 450 621 404 l 621 404 q 621 376 612 352 q 602 327 582 308 q 561 289 527 275 l 527 275 l 525 281 q 573 267 601 229 q 628 191 628 142 l 628 142 q 628 70 587 30 q 545 -11 469 -11 l 469 -11 q 443 -11 420 -8 q 397 -5 381 -1 l 381 -1 l 397 74 q 410 70 424 68 q 438 66 452 66 l 452 66 q 493 66 512 86 q 530 106 530 145 l 530 145 q 530 165 524 182 q 518 199 504 211 l 504 211 q 491 225 470 232 q 448 239 413 239 l 413 239 l 405 239 l 405 316 l 413 316 q 446 316 467 322 q 488 328 502 342 l 502 342 q 513 352 518 366 q 523 379 523 397 l 523 397 q 523 441 490 465 q 456 489 389 489 l 389 489 q 331 489 283 472 q 235 454 200 422 q 165 389 146 343 q 126 296 126 238 l 126 238 l 126 221 q 126 165 136 130 q 146 95 165 80 q 184 65 207 65 l 207 65 q 226 65 240 75 q 253 84 260 105 q 267 126 267 160 l 267 160 q 267 211 250 234 q 232 256 199 256 l 199 256 q 170 256 145 241 q 120 225 95 194 l 95 194 l 79 264 q 103 290 140 311 q 177 332 220 332 l 220 332 q 265 332 297 313 q 328 294 345 257 q 361 220 361 165 l 361 165 q 361 107 343 68 q 325 28 291 8 q 257 -12 209 -12 l 209 -12 q 162 -12 123 13 q 84 38 60 91 q 36 143 36 228 l 36 228 q 36 307 61 370 q 85 433 132 478 q 178 522 244 545 q 310 568 394 568 z m 1098 568 l 1098 568 q 1155 568 1195 538 q 1234 507 1255 449 q 1276 391 1276 307 l 1276 307 q 1276 198 1247 128 q 1218 57 1162 23 q 1105 -12 1022 -12 l 1022 -12 q 971 -12 925 -2 q 878 8 834 32 l 834 32 l 877 106 q 907 91 941 81 q 975 70 1016 70 l 1016 70 q 1076 70 1112 97 q 1147 124 1162 177 q 1177 229 1177 306 l 1177 306 q 1177 399 1154 445 q 1130 490 1091 490 l 1091 490 q 1073 490 1062 484 q 1051 477 1043 466 l 1043 466 q 1033 452 1029 429 q 1025 406 1025 357 l 1025 357 l 1025 261 l 929 261 l 929 349 q 929 395 926 421 q 923 446 913 461 l 913 461 q 905 476 892 483 q 878 490 862 490 l 862 490 q 825 490 806 460 q 787 430 787 387 l 787 387 q 787 354 791 327 q 795 299 801 277 l 801 277 l 710 257 q 701 287 696 322 q 690 357 690 390 l 690 390 q 690 438 708 479 q 725 519 761 544 q 797 568 853 568 l 853 568 q 899 568 930 550 q 960 531 981 496 l 981 496 l 968 497 q 992 536 1024 552 q 1055 568 1098 568 z"},"ക":{"ha":898,"x_min":30,"x_max":869,"o":"m 193 -12 l 193 -12 q 115 -12 73 33 q 30 77 30 154 l 30 154 q 30 206 52 240 q 73 274 108 295 l 108 295 q 130 308 157 316 q 183 324 222 328 q 260 332 317 332 l 317 332 l 594 332 q 678 332 725 322 q 772 312 804 289 l 804 289 q 833 269 851 235 q 869 201 869 152 l 869 152 q 869 76 825 32 q 781 -12 710 -12 l 710 -12 q 689 -12 672 -9 q 654 -7 635 -2 l 635 -2 l 653 73 q 663 70 675 69 q 686 67 698 67 l 698 67 q 735 67 755 89 q 774 110 774 152 l 774 152 q 774 177 766 196 q 757 215 741 226 l 741 226 q 721 242 691 249 q 660 255 599 255 l 599 255 l 295 255 q 242 255 212 250 q 181 244 159 229 l 159 229 q 143 218 133 200 q 123 181 123 155 l 123 155 q 123 127 133 107 q 142 86 161 76 q 179 66 205 66 l 205 66 q 233 66 257 76 q 280 85 307 107 l 307 107 l 353 43 q 325 21 300 10 q 274 -2 249 -7 q 223 -12 193 -12 z m 451 568 l 451 568 q 522 568 567 533 q 612 498 634 434 q 655 369 655 280 l 655 280 q 655 181 631 116 q 606 51 561 20 q 515 -12 451 -12 l 451 -12 q 398 -12 361 8 q 323 28 299 61 l 299 61 q 270 102 258 159 q 245 216 245 281 l 245 281 q 245 423 300 496 q 354 568 451 568 z m 451 491 l 451 491 q 395 491 368 440 q 340 389 340 279 l 340 279 q 340 204 352 157 q 364 109 389 87 q 413 65 450 65 l 450 65 q 486 65 511 87 q 535 108 548 156 q 560 203 560 279 l 560 279 q 560 354 548 401 q 535 448 511 470 q 487 491 451 491 z"},"ഖ":{"ha":864,"x_min":37,"x_max":804,"o":"m 326 568 l 326 568 q 393 568 441 547 q 489 526 521 488 q 552 450 568 400 q 583 349 583 290 l 583 290 q 583 235 572 191 q 561 147 542 112 q 522 76 497 45 l 497 45 l 494 0 l 444 0 l 398 56 q 420 80 440 112 q 459 143 472 185 q 484 227 484 281 l 484 281 q 484 348 465 394 q 445 440 409 465 q 372 489 321 489 l 321 489 q 262 489 219 457 q 175 424 151 368 q 127 312 127 242 l 127 242 l 127 224 q 127 166 138 131 q 148 96 166 81 q 184 65 208 65 l 208 65 q 227 65 240 75 q 253 85 261 106 q 268 127 268 160 l 268 160 q 268 210 251 233 q 233 256 199 256 l 199 256 q 171 256 146 241 q 121 225 96 194 l 96 194 l 80 264 q 104 290 141 311 q 178 332 221 332 l 221 332 q 266 332 297 313 q 328 294 345 257 q 362 220 362 165 l 362 165 q 362 107 344 68 q 326 28 293 8 q 259 -12 211 -12 l 211 -12 q 164 -12 125 13 q 85 38 61 93 q 37 148 37 239 l 37 239 q 37 346 75 419 q 112 492 178 530 q 243 568 326 568 z m 707 556 l 804 556 l 804 0 l 468 0 l 496 77 l 707 77 l 707 556 z"},"ഗ":{"ha":768,"x_min":36,"x_max":732,"o":"m 523 568 l 523 568 q 588 568 635 537 q 682 505 707 446 q 732 387 732 303 l 732 303 q 732 232 717 176 q 702 119 676 74 q 649 28 614 -10 l 614 -10 l 541 48 q 568 78 589 114 q 609 150 621 196 q 633 241 633 298 l 633 298 q 633 359 619 402 q 605 445 581 467 q 556 489 522 489 l 522 489 q 498 489 482 481 q 466 473 456 458 l 456 458 q 442 438 438 407 q 433 375 433 316 l 433 316 l 433 215 q 433 175 428 143 q 423 110 413 85 q 403 60 384 40 l 384 40 q 360 15 327 2 q 293 -12 246 -12 l 246 -12 q 180 -12 133 20 q 86 51 61 111 q 36 170 36 254 l 36 254 q 36 327 51 384 q 66 440 93 486 q 120 531 155 569 l 155 569 l 227 511 q 201 481 180 445 q 159 408 147 362 q 135 316 135 258 l 135 258 q 135 197 149 155 q 163 112 188 90 q 212 67 244 67 l 244 67 q 270 67 286 75 q 302 83 312 98 l 312 98 q 326 119 331 152 q 335 185 335 248 l 335 248 l 335 341 q 335 402 346 445 q 357 487 386 517 l 386 517 q 409 541 442 555 q 474 568 523 568 z"},"ഘ":{"ha":1141,"x_min":30,"x_max":1080,"o":"m 206 568 l 206 568 q 267 568 306 544 q 344 519 363 480 q 381 440 381 396 l 381 396 q 381 356 369 327 q 357 297 345 281 l 345 281 l 331 298 l 507 298 l 516 221 l 287 221 l 252 275 q 266 294 277 321 q 287 348 287 386 l 287 386 q 287 434 267 463 q 246 491 207 491 l 207 491 q 181 491 163 478 q 144 465 135 443 q 125 420 125 391 l 125 391 q 125 348 138 319 q 151 289 172 261 l 172 261 l 103 212 q 71 249 51 293 q 30 336 30 392 l 30 392 q 30 446 52 486 q 74 525 114 547 q 153 568 206 568 z m 983 556 l 1080 556 l 1080 0 l 457 0 l 457 321 q 457 395 471 437 q 485 479 509 507 l 509 507 q 535 537 574 553 q 612 568 664 568 l 664 568 q 716 568 755 553 q 794 538 818 509 l 818 509 q 847 478 859 435 q 870 392 870 328 l 870 328 l 870 221 l 554 221 l 554 77 l 983 77 l 983 556 z m 664 491 l 664 491 q 605 491 580 451 q 554 410 554 328 l 554 328 l 554 298 l 774 298 l 774 328 q 774 412 748 452 q 721 491 664 491 z"},"ങ":{"ha":913,"x_min":38,"x_max":880,"o":"m 313 568 l 313 568 q 383 568 428 543 q 472 518 506 468 l 506 468 l 523 404 l 537 248 l 537 0 l 441 0 l 441 310 q 441 371 433 404 q 424 436 406 456 l 406 456 q 391 472 369 481 q 347 489 313 489 l 313 489 q 258 489 217 459 q 175 429 152 374 q 128 319 128 246 l 128 246 l 128 226 q 128 167 139 132 q 149 96 167 81 q 185 65 209 65 l 209 65 q 227 65 241 75 q 254 85 262 106 q 269 126 269 160 l 269 160 q 269 211 252 234 q 234 256 200 256 l 200 256 q 171 256 146 240 q 120 224 94 192 l 94 192 l 76 259 q 100 287 139 310 q 178 332 223 332 l 223 332 q 267 332 299 313 q 330 294 347 257 q 363 220 363 165 l 363 165 q 363 107 345 68 q 327 28 293 8 q 259 -12 211 -12 l 211 -12 q 165 -12 126 13 q 86 38 62 94 q 38 149 38 242 l 38 242 q 38 351 75 424 q 111 496 173 532 q 235 568 313 568 z m 689 568 l 689 568 q 750 568 791 548 q 831 527 852 492 q 873 456 873 413 l 873 413 q 873 381 864 356 q 854 330 834 310 q 813 290 779 275 l 779 275 l 777 281 q 825 267 853 229 q 880 191 880 142 l 880 142 q 880 69 838 29 q 796 -11 720 -11 l 720 -11 q 695 -11 673 -8 q 650 -5 634 -1 l 634 -1 l 650 74 q 664 70 677 68 q 690 66 704 66 l 704 66 q 741 66 762 84 q 782 101 782 145 l 782 145 q 782 165 776 182 q 769 199 756 211 l 756 211 q 742 225 721 232 q 700 239 665 239 l 665 239 l 652 239 l 652 316 l 666 316 q 696 316 718 322 q 739 328 753 343 l 753 343 q 764 353 770 369 q 775 384 775 404 l 775 404 q 775 447 750 469 q 725 490 685 490 l 685 490 q 654 490 630 481 q 606 472 588 454 l 588 454 q 571 438 560 416 q 548 393 543 360 q 537 327 537 279 l 537 279 l 537 168 l 466 171 l 458 283 l 470 423 q 486 464 516 497 q 545 530 589 549 q 633 568 689 568 z"},"ച":{"ha":798,"x_min":17,"x_max":737,"o":"m 641 556 l 737 556 l 737 0 l 17 0 l 17 77 l 366 77 l 313 62 q 334 81 353 115 q 372 148 372 196 l 372 196 q 372 241 354 268 q 335 294 299 294 l 299 294 q 262 294 243 269 q 223 244 223 199 l 223 199 q 223 187 225 176 q 226 165 227 158 l 227 158 l 134 147 q 132 158 130 174 q 128 189 128 206 l 128 206 q 128 283 174 327 q 220 371 299 371 l 299 371 q 347 371 379 357 q 410 342 430 318 q 449 293 458 263 q 466 232 466 201 l 466 201 q 466 170 459 144 q 452 118 440 97 q 428 76 413 59 l 413 59 l 393 77 l 641 77 l 641 556 z"},"ഛ":{"ha":1152,"x_min":17,"x_max":1115,"o":"m 299 371 l 299 371 q 347 371 379 357 q 410 342 430 318 q 449 293 458 263 q 466 232 466 201 l 466 201 q 466 170 459 144 q 452 118 440 97 q 428 76 413 59 l 413 59 l 393 77 l 642 77 l 674 0 l 17 0 l 17 77 l 366 77 l 313 62 q 334 81 353 115 q 372 148 372 196 l 372 196 q 372 241 354 268 q 335 294 299 294 l 299 294 q 262 294 243 269 q 223 244 223 199 l 223 199 q 223 187 225 176 q 226 165 227 158 l 227 158 l 134 147 q 132 158 130 174 q 128 189 128 206 l 128 206 q 128 283 174 327 q 220 371 299 371 z m 824 568 l 824 568 q 898 568 953 544 q 1007 520 1043 476 q 1079 432 1097 372 q 1115 312 1115 240 l 1115 240 q 1115 148 1092 93 q 1069 37 1028 13 q 987 -12 932 -12 l 932 -12 q 873 -12 836 16 q 799 44 781 93 q 763 141 763 200 l 763 200 q 763 297 805 351 q 846 404 921 404 l 921 404 q 963 404 994 383 q 1025 362 1047 326 q 1068 290 1081 242 l 1081 242 l 1047 233 q 1041 254 1027 276 q 1013 298 992 314 q 971 329 943 329 l 943 329 q 899 329 879 295 q 858 260 858 199 l 858 199 q 858 157 866 127 q 874 96 891 80 q 908 64 935 64 l 935 64 q 962 64 982 82 q 1001 100 1012 140 q 1022 179 1022 244 l 1022 244 q 1022 251 1021 271 q 1019 290 1016 309 l 1016 309 q 1016 314 1016 322 q 1016 330 1014 334 l 1014 334 q 1007 375 984 410 q 961 445 923 467 q 884 489 831 489 l 831 489 q 771 489 730 464 q 689 438 668 392 q 647 345 647 281 l 647 281 q 647 232 658 192 q 668 151 688 118 q 708 84 732 56 l 732 56 l 690 0 l 650 0 l 638 43 q 614 72 593 109 q 572 145 560 190 q 547 235 547 289 l 547 289 q 547 346 564 397 q 581 447 616 486 q 650 524 702 546 q 754 568 824 568 z"},"ജ":{"ha":800,"x_min":32,"x_max":763,"o":"m 258 568 l 258 568 q 306 568 341 558 q 375 547 401 527 q 427 507 449 478 l 449 478 l 416 477 q 447 526 486 547 q 525 568 577 568 l 577 568 q 643 568 684 541 q 724 513 744 469 q 763 424 763 375 l 763 375 q 763 331 751 299 q 738 266 716 243 q 693 219 662 203 l 662 203 l 552 181 l 484 170 q 460 166 424 164 q 387 162 351 162 l 351 162 l 232 162 q 192 162 175 159 q 157 155 146 149 l 146 149 q 135 143 130 134 q 125 124 125 112 l 125 112 q 125 95 133 84 q 140 72 154 67 q 168 61 185 61 l 185 61 q 213 61 237 67 q 261 72 290 85 q 318 97 358 120 l 358 120 q 381 131 402 141 q 422 150 440 158 q 458 165 475 171 q 492 177 506 182 l 506 182 q 522 188 537 196 q 552 204 566 212 q 579 219 593 225 q 607 230 620 230 l 620 230 q 651 230 679 219 q 706 208 724 182 q 742 156 742 112 l 742 112 q 742 54 708 21 q 673 -12 610 -12 l 610 -12 q 561 -12 532 7 q 503 26 491 55 q 478 84 478 116 l 478 116 q 478 151 492 176 q 506 200 530 215 l 530 215 l 599 216 q 590 207 580 194 q 569 180 562 162 q 555 144 555 119 l 555 119 q 555 85 569 70 q 583 54 607 54 l 607 54 q 636 54 648 72 q 659 89 659 114 l 659 114 q 659 134 653 147 q 646 160 635 167 q 623 174 606 174 l 606 174 q 587 174 571 165 q 555 155 534 137 l 534 137 l 524 148 q 513 137 497 123 q 481 109 461 95 q 440 80 414 66 l 414 66 q 368 39 330 22 q 292 4 257 -4 q 221 -12 180 -12 l 180 -12 q 140 -12 106 0 q 72 12 52 39 q 32 66 32 109 l 32 109 q 32 142 46 168 q 59 193 86 208 l 86 208 q 107 220 136 227 q 164 233 222 233 l 222 233 l 457 233 q 497 233 528 236 q 558 238 581 245 q 604 252 621 264 l 621 264 q 644 280 656 307 q 668 333 668 371 l 668 371 q 668 401 659 429 q 649 457 627 475 q 605 492 568 492 l 568 492 q 547 492 532 486 q 517 480 507 469 l 507 469 q 488 450 483 417 q 477 383 477 334 l 477 334 l 477 261 l 387 261 l 387 325 q 387 372 381 406 q 374 440 351 464 l 351 464 q 337 479 314 488 q 290 497 254 497 l 254 497 q 218 497 186 488 q 153 478 134 456 l 134 456 q 131 452 130 445 q 128 438 127 433 l 127 433 q 121 422 119 409 q 117 396 117 380 l 117 380 q 117 339 132 322 q 147 305 170 305 l 170 305 q 189 305 200 315 q 211 324 216 339 q 220 354 220 370 l 220 370 q 220 400 207 415 q 193 430 167 430 l 167 430 q 143 430 123 419 q 103 408 90 395 l 90 395 l 68 424 q 90 450 123 465 q 156 479 193 479 l 193 479 q 228 479 252 466 q 276 452 289 427 q 302 401 302 366 l 302 366 q 302 331 289 303 q 275 274 247 258 q 218 241 172 241 l 172 241 q 110 241 75 278 q 39 315 39 384 l 39 384 q 39 438 65 479 q 90 520 139 544 q 187 568 258 568 z"},"ഝ":{"ha":1418,"x_min":36,"x_max":1382,"o":"m 578 568 l 578 568 q 630 568 669 556 q 707 543 735 518 l 735 518 q 775 483 791 431 q 807 379 807 297 l 807 297 l 807 216 q 807 174 812 145 q 817 116 831 96 l 831 96 q 841 82 857 75 q 872 67 894 67 l 894 67 q 916 67 932 75 q 947 83 957 97 l 957 97 q 971 116 976 146 q 981 175 981 229 l 981 229 l 981 556 l 1078 556 l 1078 235 q 1078 178 1084 147 q 1089 115 1105 96 l 1105 96 q 1117 81 1134 74 q 1150 67 1168 67 l 1168 67 q 1202 67 1228 91 q 1254 115 1269 158 q 1283 201 1283 259 l 1283 259 q 1283 315 1271 361 q 1259 406 1238 442 q 1217 478 1191 507 l 1191 507 l 1264 566 q 1298 528 1325 484 q 1351 439 1367 384 q 1382 328 1382 255 l 1382 255 q 1382 178 1358 118 q 1333 57 1287 23 q 1240 -12 1173 -12 l 1173 -12 q 1122 -12 1087 9 q 1051 29 1022 73 l 1022 73 l 1034 73 q 1019 48 999 29 q 979 10 953 -1 q 926 -12 888 -12 l 888 -12 q 844 -12 813 1 q 781 14 759 38 l 759 38 q 743 56 732 79 q 721 101 716 134 q 710 167 710 216 l 710 216 l 710 290 q 710 334 706 366 q 701 397 691 420 q 681 442 666 457 l 666 457 q 650 473 626 483 q 601 493 567 493 l 567 493 q 549 493 530 490 q 511 486 493 478 l 493 478 l 474 466 q 438 448 412 412 q 386 375 372 325 q 358 275 358 217 l 358 217 q 358 156 370 123 q 381 90 400 78 q 418 65 439 65 l 439 65 q 462 65 481 78 q 499 90 510 123 q 521 155 521 216 l 521 216 q 521 274 507 324 q 492 374 466 412 q 440 449 405 469 l 405 469 l 387 478 q 371 486 353 490 q 335 493 316 493 l 316 493 q 257 493 217 466 q 177 439 157 392 q 136 344 136 281 l 136 281 q 136 228 148 186 q 159 144 180 111 q 201 78 230 51 l 230 51 l 163 -9 q 128 22 100 64 q 71 105 54 160 q 36 215 36 286 l 36 286 q 36 342 52 393 q 68 444 101 484 q 133 523 184 546 q 235 568 306 568 l 306 568 q 350 568 386 558 q 421 548 454 526 l 454 526 l 474 510 q 539 468 579 395 q 619 321 619 217 l 619 217 q 619 143 598 92 q 577 40 537 14 q 497 -12 439 -12 l 439 -12 q 381 -12 341 15 q 301 42 281 94 q 260 145 260 217 l 260 217 q 260 285 278 340 q 295 394 327 436 q 359 478 404 508 l 404 508 l 425 525 q 459 548 498 558 q 537 568 578 568 z"},"ഞ":{"ha":1249,"x_min":38,"x_max":1213,"o":"m 313 568 l 313 568 q 383 568 428 543 q 472 518 506 468 l 506 468 l 511 429 l 537 244 l 537 0 l 441 0 l 441 310 q 441 371 433 404 q 424 436 406 456 l 406 456 q 391 472 369 481 q 347 489 313 489 l 313 489 q 258 489 217 459 q 175 429 152 374 q 128 319 128 246 l 128 246 l 128 226 q 128 167 139 132 q 149 96 167 81 q 185 65 209 65 l 209 65 q 227 65 241 75 q 254 85 262 106 q 269 126 269 160 l 269 160 q 269 211 252 234 q 234 256 200 256 l 200 256 q 171 256 146 240 q 120 224 94 192 l 94 192 l 76 259 q 100 287 139 310 q 178 332 223 332 l 223 332 q 267 332 299 313 q 330 294 347 257 q 363 220 363 165 l 363 165 q 363 107 345 68 q 327 28 293 8 q 259 -12 211 -12 l 211 -12 q 165 -12 126 13 q 86 38 62 94 q 38 149 38 242 l 38 242 q 38 351 75 424 q 111 496 173 532 q 235 568 313 568 z m 678 568 l 678 568 q 719 568 755 558 q 791 548 824 526 l 824 526 l 845 510 q 909 467 949 394 q 988 321 988 217 l 988 217 q 988 143 968 92 q 947 40 907 14 q 866 -12 808 -12 l 808 -12 q 750 -12 711 15 q 671 42 650 94 q 629 145 629 217 l 629 217 q 629 285 647 339 q 665 393 698 436 q 731 478 776 508 l 776 508 l 797 524 q 829 546 869 557 q 908 568 955 568 l 955 568 q 1022 568 1071 546 q 1120 524 1152 484 q 1183 444 1198 392 q 1213 340 1213 282 l 1213 282 q 1213 215 1197 162 q 1180 108 1152 67 q 1123 25 1085 -9 l 1085 -9 l 1019 51 q 1045 75 1066 107 q 1087 138 1101 181 q 1114 223 1114 277 l 1114 277 q 1114 339 1095 388 q 1076 436 1039 465 q 1001 493 946 493 l 946 493 q 922 493 903 489 q 883 485 864 477 l 864 477 l 845 466 q 809 447 782 410 q 755 373 741 324 q 727 274 727 217 l 727 217 q 727 156 739 123 q 750 90 769 78 q 787 65 809 65 l 809 65 q 831 65 850 78 q 868 90 879 123 q 890 155 890 216 l 890 216 q 890 275 876 325 q 862 374 837 411 q 811 448 776 468 l 776 468 l 758 477 q 748 483 737 486 q 726 489 713 491 q 699 493 680 493 l 680 493 q 644 493 620 483 q 595 472 580 456 l 580 456 q 556 431 547 395 q 537 359 537 299 l 537 299 l 537 24 l 448 24 l 448 249 l 475 458 q 495 490 523 515 q 550 540 588 554 q 625 568 678 568 z"},"ട":{"ha":480,"x_min":15,"x_max":459,"o":"m 243 568 l 243 568 q 307 568 359 555 q 410 542 459 519 l 459 519 l 413 447 q 373 467 334 478 q 295 489 246 489 l 246 489 q 201 489 175 477 q 148 464 137 444 q 125 424 125 403 l 125 403 q 125 382 130 369 q 135 355 146 345 l 146 345 q 161 331 186 327 q 210 322 243 322 l 243 322 l 254 322 q 310 322 350 309 q 389 295 414 268 l 414 268 q 433 248 442 222 q 451 196 451 162 l 451 162 q 451 111 427 72 q 402 32 354 10 q 305 -12 233 -12 l 233 -12 q 172 -12 117 2 q 61 15 15 39 l 15 39 l 60 112 q 87 98 113 88 q 139 78 168 73 q 197 68 231 68 l 231 68 q 277 68 304 81 q 331 93 343 113 q 354 133 354 157 l 354 157 q 354 178 348 195 q 342 211 328 221 l 328 221 q 314 232 296 237 q 277 242 242 242 l 242 242 l 235 242 q 180 242 136 254 q 92 266 67 292 l 67 292 q 48 311 38 338 q 28 365 28 401 l 28 401 q 28 448 53 486 q 77 524 125 546 q 173 568 243 568 z"},"ഠ":{"ha":568,"x_min":36,"x_max":532,"o":"m 285 568 l 285 568 q 363 568 418 534 q 473 500 503 435 q 532 370 532 278 l 532 278 q 532 187 503 122 q 473 57 418 23 q 362 -12 282 -12 l 282 -12 q 199 -12 145 26 q 90 64 63 131 q 36 197 36 280 l 36 280 q 36 371 66 436 q 96 500 152 534 q 207 568 285 568 z m 283 67 l 283 67 q 333 67 366 93 q 399 119 416 167 q 432 215 432 280 l 432 280 q 432 345 415 392 q 398 439 366 464 q 333 489 285 489 l 285 489 q 215 489 176 435 q 136 381 136 280 l 136 280 q 136 177 175 122 q 213 67 283 67 z"},"ഡ":{"ha":1044,"x_min":36,"x_max":1008,"o":"m 513 -12 l 513 -12 q 470 -12 439 1 q 407 14 385 38 l 385 38 q 369 55 358 78 q 346 100 341 134 q 335 167 335 216 l 335 216 l 335 312 q 335 372 331 405 q 326 438 312 458 l 312 458 q 303 473 287 481 q 271 489 244 489 l 244 489 q 212 489 188 467 q 163 445 149 403 q 135 360 135 298 l 135 298 q 135 241 147 195 q 159 149 180 113 q 201 76 227 46 l 227 46 l 155 -12 q 120 26 93 72 q 66 117 51 174 q 36 230 36 302 l 36 302 q 36 385 61 445 q 86 504 134 536 q 182 568 249 568 l 249 568 q 294 568 327 555 q 360 542 382 518 l 382 518 q 403 497 413 472 q 423 446 428 414 q 432 382 432 342 l 432 342 l 432 223 q 432 173 437 144 q 441 115 455 96 l 455 96 q 465 82 481 75 q 497 67 520 67 l 520 67 q 541 67 558 75 q 574 83 583 97 l 583 97 q 597 116 602 146 q 607 175 607 228 l 607 228 l 607 556 l 704 556 l 704 235 q 704 177 710 146 q 715 114 731 96 l 731 96 q 743 81 760 74 q 776 67 794 67 l 794 67 q 828 67 854 91 q 880 115 895 158 q 909 201 909 259 l 909 259 q 909 315 897 360 q 885 405 864 442 q 843 478 817 507 l 817 507 l 890 566 q 924 528 951 484 q 977 439 993 383 q 1008 327 1008 254 l 1008 254 q 1008 177 984 117 q 959 57 913 23 q 866 -12 799 -12 l 799 -12 q 749 -12 714 9 q 678 29 649 73 l 649 73 l 660 73 q 636 33 602 11 q 568 -12 513 -12 z"},"ഢ":{"ha":1145,"x_min":36,"x_max":1107,"o":"m 513 -12 l 513 -12 q 470 -12 439 1 q 407 14 385 38 l 385 38 q 369 56 358 78 q 346 100 341 134 q 335 167 335 216 l 335 216 l 335 313 q 335 372 331 405 q 326 438 312 458 l 312 458 q 303 473 287 481 q 271 489 244 489 l 244 489 q 212 489 188 467 q 163 445 149 403 q 135 360 135 298 l 135 298 q 135 241 147 195 q 159 149 180 113 q 200 76 227 46 l 227 46 l 155 -12 q 120 26 93 72 q 66 117 51 174 q 36 231 36 303 l 36 303 q 36 385 61 445 q 86 504 134 536 q 182 568 249 568 l 249 568 q 294 568 327 555 q 360 542 382 519 l 382 519 q 403 497 413 472 q 423 446 428 415 q 432 383 432 342 l 432 342 l 432 223 q 432 173 437 144 q 441 115 455 96 l 455 96 q 465 82 481 75 q 497 67 520 67 l 520 67 q 541 67 557 75 q 573 83 583 97 l 583 97 q 597 117 602 146 q 607 175 607 229 l 607 229 l 607 556 l 704 556 l 704 279 l 660 73 q 637 34 603 11 q 568 -12 513 -12 z m 934 568 l 934 568 q 981 568 1020 544 q 1059 519 1083 464 q 1107 408 1107 315 l 1107 315 q 1107 207 1071 134 q 1034 60 972 24 q 910 -12 832 -12 l 832 -12 q 763 -12 720 13 q 676 37 641 84 l 641 84 l 625 282 l 625 519 l 704 519 l 704 247 q 704 186 712 153 q 720 120 739 100 l 739 100 q 754 85 776 76 q 798 67 832 67 l 832 67 q 887 67 929 98 q 971 128 994 183 q 1017 237 1017 311 l 1017 311 l 1017 331 q 1017 391 1007 426 q 996 461 978 476 q 959 491 935 491 l 935 491 q 917 491 904 481 q 891 471 884 451 q 876 430 876 397 l 876 397 q 876 346 894 323 q 911 300 944 300 l 944 300 q 974 300 1000 317 q 1025 333 1050 364 l 1050 364 l 1069 297 q 1044 270 1006 247 q 967 224 922 224 l 922 224 q 879 224 847 244 q 815 263 799 301 q 782 338 782 392 l 782 392 q 782 450 800 489 q 818 528 852 548 q 886 568 934 568 z"},"ണ":{"ha":1163,"x_min":38,"x_max":1127,"o":"m 313 568 l 313 568 q 383 568 427 544 q 470 519 504 473 l 504 473 l 479 478 q 507 524 545 546 q 583 568 632 568 l 632 568 q 687 568 722 546 q 756 524 780 485 l 780 485 l 766 483 q 797 529 833 549 q 869 568 919 568 l 919 568 q 985 568 1032 534 q 1078 500 1103 440 q 1127 380 1127 303 l 1127 303 q 1127 231 1112 175 q 1096 118 1070 74 q 1043 29 1009 -10 l 1009 -10 l 936 49 q 962 79 983 116 q 1004 152 1016 197 q 1028 242 1028 298 l 1028 298 q 1028 356 1014 399 q 999 442 973 466 q 947 489 913 489 l 913 489 q 894 489 878 482 q 861 475 849 460 l 849 460 q 834 442 828 411 q 822 380 822 320 l 822 320 l 822 0 l 726 0 l 726 327 q 726 383 721 412 q 716 440 702 459 l 702 459 q 691 473 675 481 q 658 489 632 489 l 632 489 q 607 489 591 481 q 575 472 564 458 l 564 458 q 548 437 543 408 q 537 378 537 323 l 537 323 l 537 0 l 441 0 l 441 309 q 441 370 433 403 q 424 436 406 456 l 406 456 q 391 472 369 481 q 347 489 313 489 l 313 489 q 258 489 217 460 q 175 430 152 375 q 128 320 128 246 l 128 246 l 128 226 q 128 167 139 132 q 149 96 167 81 q 185 65 209 65 l 209 65 q 227 65 241 75 q 254 85 262 106 q 269 126 269 160 l 269 160 q 269 211 252 234 q 234 256 200 256 l 200 256 q 171 256 146 240 q 120 224 94 192 l 94 192 l 76 259 q 100 287 139 310 q 178 332 223 332 l 223 332 q 267 332 299 313 q 330 294 347 257 q 363 220 363 165 l 363 165 q 363 107 345 68 q 327 28 293 8 q 259 -12 211 -12 l 211 -12 q 165 -12 126 13 q 86 38 62 94 q 38 149 38 241 l 38 241 q 38 351 75 424 q 111 496 173 532 q 235 568 313 568 z"},"ത":{"ha":880,"x_min":36,"x_max":844,"o":"m 439 -12 l 439 -12 q 381 -12 341 15 q 301 42 281 94 q 260 145 260 217 l 260 217 q 260 285 278 339 q 296 393 329 436 q 362 478 407 508 l 407 508 l 428 524 q 460 546 499 557 q 538 568 585 568 l 585 568 q 653 568 702 546 q 751 524 782 484 q 813 444 829 392 q 844 340 844 282 l 844 282 q 844 215 828 162 q 811 108 783 67 q 754 25 716 -9 l 716 -9 l 650 51 q 675 75 697 107 q 718 138 731 181 q 744 223 744 277 l 744 277 q 744 339 725 388 q 706 436 669 465 q 632 493 577 493 l 577 493 q 552 493 533 489 q 513 485 495 477 l 495 477 l 476 466 q 440 447 413 410 q 386 373 372 324 q 358 274 358 217 l 358 217 q 358 156 370 123 q 381 90 400 78 q 418 65 439 65 l 439 65 q 462 65 481 78 q 499 90 510 123 q 521 155 521 216 l 521 216 q 521 274 507 324 q 492 374 466 412 q 440 449 405 469 l 405 469 l 387 478 q 371 486 353 490 q 335 493 316 493 l 316 493 q 257 493 217 466 q 177 439 157 392 q 136 344 136 281 l 136 281 q 136 228 148 186 q 159 144 180 111 q 201 78 230 51 l 230 51 l 163 -9 q 128 22 100 64 q 71 105 54 160 q 36 215 36 286 l 36 286 q 36 342 52 393 q 68 444 101 484 q 133 523 184 546 q 235 568 306 568 l 306 568 q 350 568 386 558 q 421 548 454 526 l 454 526 l 474 509 q 539 467 579 394 q 619 321 619 217 l 619 217 q 619 143 598 92 q 577 40 537 14 q 497 -12 439 -12 z"},"ഥ":{"ha":775,"x_min":61,"x_max":720,"o":"m 61 556 l 157 556 l 157 77 l 337 77 l 337 0 l 61 0 l 61 556 z m 505 568 l 505 568 q 559 568 597 554 q 634 540 660 515 l 660 515 q 694 481 707 433 q 720 384 720 313 l 720 313 l 720 0 l 291 0 l 291 311 q 291 361 297 398 q 303 435 316 464 q 328 492 351 515 l 351 515 q 376 539 414 554 q 452 568 505 568 z m 505 490 l 505 490 q 476 490 456 481 q 435 472 421 457 l 421 457 q 404 436 396 402 q 388 367 388 304 l 388 304 l 388 77 l 623 77 l 623 300 q 623 364 615 400 q 607 435 590 456 l 590 456 q 576 472 555 481 q 534 490 505 490 z"},"ദ":{"ha":557,"x_min":45,"x_max":523,"o":"m 330 568 l 330 568 q 391 568 433 548 q 474 528 495 493 q 516 457 516 413 l 516 413 q 516 365 495 331 q 473 297 422 275 l 422 275 l 420 281 q 468 267 496 230 q 523 192 523 142 l 523 142 q 523 70 480 30 q 437 -11 357 -11 l 357 -11 q 327 -11 303 -8 q 278 -5 260 -1 l 260 -1 l 277 75 q 293 71 309 69 q 325 66 341 66 l 341 66 q 385 66 405 86 q 425 105 425 145 l 425 145 q 425 165 419 182 q 413 199 399 211 l 399 211 q 386 225 365 232 q 343 239 301 239 l 301 239 l 279 239 l 279 316 l 300 316 q 338 316 360 322 q 382 328 396 343 l 396 343 q 407 353 413 369 q 418 384 418 404 l 418 404 q 418 446 394 468 q 369 490 326 490 l 326 490 q 267 490 227 457 q 186 424 164 365 q 142 305 142 225 l 142 225 q 142 170 149 115 q 155 60 166 13 l 166 13 l 73 -4 q 61 45 53 107 q 45 168 45 224 l 45 224 q 45 331 78 408 q 111 485 175 527 q 238 568 330 568 z"},"ധ":{"ha":780,"x_min":36,"x_max":744,"o":"m 530 -12 l 530 -12 q 493 -12 467 0 q 440 11 420 31 q 400 50 383 74 l 383 74 l 396 73 q 367 28 332 8 q 296 -12 245 -12 l 245 -12 q 178 -12 132 23 q 85 57 61 117 q 36 177 36 254 l 36 254 q 36 326 51 382 q 66 437 93 483 q 120 528 155 566 l 155 566 l 227 508 q 201 478 180 442 q 159 406 147 361 q 135 316 135 259 l 135 259 q 135 201 150 158 q 165 114 191 91 q 217 67 251 67 l 251 67 q 273 67 289 75 q 304 82 315 96 l 315 96 q 330 113 336 144 q 342 175 342 230 l 342 230 l 342 556 l 438 556 l 438 232 q 438 174 444 145 q 450 115 465 96 l 465 96 q 475 82 491 75 q 506 67 527 67 l 527 67 q 559 67 586 90 q 613 112 629 156 q 645 199 645 260 l 645 260 q 645 317 633 362 q 621 407 601 443 q 580 479 554 507 l 554 507 l 627 566 q 660 528 687 484 q 713 439 729 384 q 744 328 744 257 l 744 257 q 744 177 719 117 q 693 56 646 22 q 598 -12 530 -12 z"},"ന":{"ha":780,"x_min":36,"x_max":744,"o":"m 250 568 l 250 568 q 288 568 314 557 q 340 546 360 527 q 380 507 397 482 l 397 482 l 384 483 q 413 529 449 549 q 484 568 535 568 l 535 568 q 602 568 649 534 q 695 500 720 440 q 744 380 744 303 l 744 303 q 744 231 729 175 q 714 119 687 74 q 660 29 625 -9 l 625 -9 l 553 49 q 579 79 600 115 q 621 151 633 196 q 645 241 645 298 l 645 298 q 645 356 630 399 q 615 442 589 466 q 563 489 529 489 l 529 489 q 508 489 492 482 q 476 475 465 461 l 465 461 q 451 443 445 413 q 438 382 438 327 l 438 327 l 438 0 l 342 0 l 342 324 q 342 383 336 413 q 330 442 315 460 l 315 460 q 305 474 290 482 q 274 489 253 489 l 253 489 q 221 489 194 467 q 167 445 151 402 q 135 358 135 296 l 135 296 q 135 240 147 195 q 159 150 180 114 q 200 78 226 49 l 226 49 l 153 -9 q 120 29 94 73 q 67 117 52 173 q 36 229 36 299 l 36 299 q 36 379 62 440 q 87 500 135 534 q 182 568 250 568 z"},"ഩ":{"ha":879,"x_min":38,"x_max":843,"o":"m 313 568 l 313 568 q 383 568 427 544 q 470 519 504 473 l 504 473 l 481 482 q 509 528 547 548 q 584 568 634 568 l 634 568 q 701 568 748 534 q 794 500 819 440 q 843 380 843 303 l 843 303 q 843 231 828 175 q 813 118 786 74 q 759 29 725 -9 l 725 -9 l 652 49 q 678 79 699 115 q 720 151 732 196 q 744 241 744 298 l 744 298 q 744 356 730 399 q 715 442 689 466 q 663 489 629 489 l 629 489 q 607 489 592 482 q 576 475 565 461 l 565 461 q 550 443 544 413 q 537 382 537 326 l 537 326 l 537 0 l 441 0 l 441 310 q 441 370 433 403 q 424 436 406 456 l 406 456 q 391 472 369 481 q 347 489 313 489 l 313 489 q 258 489 217 459 q 175 429 152 374 q 128 319 128 246 l 128 246 l 128 226 q 128 167 139 132 q 149 96 167 81 q 185 65 209 65 l 209 65 q 227 65 241 75 q 254 85 262 106 q 269 126 269 160 l 269 160 q 269 211 252 234 q 234 256 200 256 l 200 256 q 171 256 146 240 q 120 224 94 192 l 94 192 l 76 259 q 100 287 139 310 q 178 332 223 332 l 223 332 q 267 332 299 313 q 330 294 347 257 q 363 220 363 165 l 363 165 q 363 107 345 68 q 327 28 293 8 q 259 -12 211 -12 l 211 -12 q 165 -12 126 13 q 86 38 62 94 q 38 149 38 242 l 38 242 q 38 351 75 424 q 111 496 173 532 q 235 568 313 568 z"},"പ":{"ha":767,"x_min":30,"x_max":706,"o":"m 206 351 l 206 351 q 267 351 306 326 q 344 300 363 261 q 381 221 381 177 l 381 177 q 381 137 369 107 q 356 76 344 61 l 344 61 l 330 77 l 610 77 l 610 556 l 706 556 l 706 0 l 286 0 l 251 54 q 265 74 276 102 q 287 129 287 167 l 287 167 q 287 215 267 245 q 246 274 207 274 l 207 274 q 181 274 163 261 q 144 248 135 225 q 125 201 125 171 l 125 171 q 125 129 139 99 q 153 69 174 41 l 174 41 l 105 -8 q 73 28 52 72 q 30 116 30 173 l 30 173 q 30 227 52 267 q 74 306 114 329 q 153 351 206 351 z"},"ഫ":{"ha":973,"x_min":30,"x_max":918,"o":"m 206 351 l 206 351 q 267 351 306 326 q 344 300 363 261 q 381 221 381 177 l 381 177 q 381 137 369 107 q 356 76 344 61 l 344 61 l 328 77 l 543 77 l 543 0 l 286 0 l 251 54 q 265 74 276 102 q 287 129 287 167 l 287 167 q 287 215 267 245 q 246 274 207 274 l 207 274 q 181 274 163 261 q 144 248 135 225 q 125 201 125 171 l 125 171 q 125 129 139 99 q 153 69 174 41 l 174 41 l 105 -8 q 73 28 52 72 q 30 116 30 173 l 30 173 q 30 227 52 267 q 74 306 114 329 q 153 351 206 351 z m 703 568 l 703 568 q 757 568 795 554 q 832 540 858 515 l 858 515 q 892 481 905 433 q 918 384 918 313 l 918 313 l 918 0 l 489 0 l 489 311 q 489 361 495 398 q 501 435 514 464 q 526 492 549 515 l 549 515 q 574 539 612 554 q 650 568 703 568 z m 703 490 l 703 490 q 674 490 654 481 q 633 472 619 457 l 619 457 q 602 436 594 402 q 586 367 586 304 l 586 304 l 586 77 l 821 77 l 821 300 q 821 364 813 400 q 805 435 788 456 l 788 456 q 774 472 753 481 q 732 490 703 490 z"},"ബ":{"ha":1122,"x_min":38,"x_max":1061,"o":"m 313 568 l 313 568 q 383 568 427 544 q 470 519 504 472 l 504 472 l 522 414 l 537 260 l 537 0 l 441 0 l 441 310 q 441 370 433 403 q 424 436 406 456 l 406 456 q 391 472 369 481 q 347 489 313 489 l 313 489 q 258 489 217 459 q 175 429 152 374 q 128 319 128 246 l 128 246 l 128 226 q 128 167 139 132 q 149 96 167 81 q 185 65 209 65 l 209 65 q 227 65 241 75 q 254 85 262 106 q 269 127 269 160 l 269 160 q 269 211 252 234 q 234 256 200 256 l 200 256 q 171 256 146 240 q 120 224 94 192 l 94 192 l 76 259 q 100 287 139 310 q 178 332 223 332 l 223 332 q 267 332 299 313 q 330 294 347 257 q 363 220 363 165 l 363 165 q 363 107 345 68 q 327 28 293 8 q 259 -12 211 -12 l 211 -12 q 165 -12 126 13 q 86 38 62 94 q 38 149 38 242 l 38 242 q 38 351 75 424 q 111 496 173 532 q 235 568 313 568 z m 964 556 l 1061 556 l 1061 0 l 701 0 l 659 51 q 684 86 703 121 q 722 156 733 199 q 744 241 744 298 l 744 298 q 744 356 729 399 q 714 442 689 466 q 663 489 629 489 l 629 489 q 607 489 592 482 q 576 475 565 461 l 565 461 q 550 443 544 413 q 537 382 537 326 l 537 326 l 537 6 l 447 6 l 447 249 l 483 422 l 481 482 q 509 528 547 548 q 584 568 634 568 l 634 568 q 701 568 747 534 q 793 500 818 440 q 842 380 842 303 l 842 303 q 842 248 833 205 q 824 162 808 127 q 792 92 770 61 l 770 61 l 759 77 l 964 77 l 964 556 z"},"ഭ":{"ha":574,"x_min":45,"x_max":545,"o":"m 353 568 l 353 568 q 410 568 453 552 q 496 535 521 503 q 545 471 545 425 l 545 425 q 545 397 537 376 q 529 355 514 341 l 514 341 q 498 326 473 319 q 447 311 406 310 l 406 310 l 396 310 q 375 310 362 308 q 348 305 340 300 l 340 300 q 333 296 329 289 q 325 281 325 272 l 325 272 q 325 249 344 241 q 363 233 397 233 l 397 233 l 402 233 q 442 233 469 225 q 496 216 512 200 l 512 200 q 529 185 537 165 q 545 144 545 117 l 545 117 q 545 81 528 51 q 511 21 474 5 q 437 -12 375 -12 l 375 -12 q 351 -12 325 -9 q 298 -7 273 -1 q 247 5 225 14 l 225 14 l 257 88 q 288 77 317 72 q 345 67 373 67 l 373 67 q 419 67 437 80 q 454 93 454 115 l 454 115 q 454 135 439 146 q 424 157 390 157 l 390 157 l 385 157 q 338 157 309 167 q 280 176 263 195 l 263 195 q 250 209 243 229 q 235 248 235 270 l 235 270 q 235 297 245 319 q 254 341 273 355 l 273 355 q 291 369 317 377 q 342 385 387 386 l 387 386 l 399 386 q 427 386 440 395 q 453 404 453 426 l 453 426 q 453 459 425 475 q 396 490 350 490 l 350 490 q 278 490 232 457 q 186 424 164 365 q 142 305 142 225 l 142 225 q 142 170 149 115 q 155 60 166 13 l 166 13 l 73 -4 q 61 45 53 107 q 45 168 45 224 l 45 224 q 45 330 79 407 q 113 484 181 526 q 249 568 353 568 z"},"മ":{"ha":635,"x_min":53,"x_max":582,"o":"m 311 568 l 311 568 q 382 568 432 550 q 482 532 514 498 l 514 498 q 538 474 554 443 q 569 411 576 369 q 582 327 582 271 l 582 271 l 582 0 l 53 0 l 53 273 q 53 328 60 370 q 67 411 82 443 q 97 474 120 498 l 120 498 q 153 532 198 550 q 243 568 311 568 z m 259 490 l 259 490 q 232 490 210 472 q 187 453 173 421 l 173 421 q 161 395 155 359 q 149 322 149 267 l 149 267 l 149 63 l 142 65 q 193 116 232 173 q 271 229 293 288 q 315 346 315 403 l 315 403 q 315 429 310 449 q 304 468 292 479 q 280 490 259 490 z m 411 387 l 411 387 q 411 329 392 275 q 372 220 337 167 q 301 113 253 58 l 253 58 l 239 73 q 261 75 289 76 q 317 77 333 77 l 333 77 l 486 77 l 486 273 q 486 339 475 383 q 463 426 438 453 q 412 480 371 493 l 371 493 l 372 497 q 389 478 400 451 q 411 423 411 387 z"},"യ":{"ha":900,"x_min":37,"x_max":861,"o":"m 578 -12 l 578 -12 q 534 -12 497 -2 q 460 7 424 29 l 424 29 q 418 33 412 39 q 405 45 400 49 l 400 49 q 354 86 326 134 q 298 181 285 235 q 272 289 272 345 l 272 345 q 272 381 280 415 q 287 448 301 476 l 301 476 l 314 493 q 330 519 353 536 q 375 553 402 561 q 429 568 459 568 l 459 568 q 546 568 594 510 q 642 452 642 342 l 642 342 q 642 246 607 171 q 572 96 510 47 l 510 47 q 504 42 497 37 q 490 32 482 28 l 482 28 q 449 7 410 -2 q 371 -12 325 -12 l 325 -12 q 255 -12 201 14 q 147 39 111 85 q 74 130 56 193 q 37 255 37 329 l 37 329 q 37 403 60 457 q 83 510 127 539 q 171 568 233 568 l 233 568 q 281 568 318 550 q 354 531 387 492 l 387 492 l 316 441 q 300 466 280 479 q 260 491 236 491 l 236 491 q 206 491 183 473 q 160 455 148 419 q 135 383 135 329 l 135 329 q 135 248 159 189 q 182 129 226 97 q 269 64 329 64 l 329 64 q 354 64 374 67 q 393 70 410 77 l 410 77 q 418 80 426 83 q 433 86 439 90 l 439 90 q 472 113 496 152 q 519 191 532 240 q 544 289 544 341 l 544 341 q 544 398 532 431 q 519 464 500 478 q 480 491 458 491 l 458 491 q 431 491 411 475 q 391 459 381 426 q 370 392 370 342 l 370 342 q 370 297 381 249 q 391 200 414 159 q 436 118 469 92 l 469 92 q 476 88 482 86 q 488 84 494 81 l 494 81 q 510 73 531 69 q 552 64 576 64 l 576 64 q 639 64 681 93 q 722 122 742 177 q 762 231 762 303 l 762 303 q 762 361 746 418 q 730 475 699 525 l 699 525 l 783 568 q 821 512 841 445 q 861 377 861 310 l 861 310 q 861 241 845 182 q 829 123 795 80 q 761 36 707 12 q 653 -12 578 -12 z"},"ര":{"ha":641,"x_min":36,"x_max":604,"o":"m 314 568 l 314 568 q 387 568 442 544 q 496 520 532 476 q 568 432 586 372 q 604 312 604 240 l 604 240 q 604 148 581 93 q 558 37 517 13 q 476 -12 421 -12 l 421 -12 q 362 -12 325 16 q 288 44 271 93 q 253 141 253 200 l 253 200 q 253 297 294 351 q 335 404 410 404 l 410 404 q 453 404 484 383 q 514 362 536 326 q 557 290 570 242 l 570 242 l 536 233 q 530 254 517 276 q 503 298 482 314 q 460 329 432 329 l 432 329 q 388 329 368 295 q 347 260 347 199 l 347 199 q 347 157 355 127 q 363 96 380 80 q 397 64 424 64 l 424 64 q 451 64 471 82 q 490 100 501 140 q 511 179 511 244 l 511 244 q 511 251 510 271 q 508 290 506 309 l 506 309 q 505 314 505 322 q 505 330 503 334 l 503 334 q 496 375 473 410 q 450 445 412 467 q 373 489 320 489 l 320 489 q 260 489 219 464 q 178 438 157 392 q 136 345 136 281 l 136 281 q 136 228 147 186 q 158 144 180 111 q 201 78 230 50 l 230 50 l 164 -10 q 129 21 100 64 q 71 106 54 162 q 36 217 36 286 l 36 286 q 36 343 53 394 q 70 445 104 484 q 138 523 191 546 q 243 568 314 568 z"},"റ":{"ha":583,"x_min":36,"x_max":547,"o":"m 294 568 l 294 568 q 360 568 408 547 q 456 525 487 486 q 518 447 533 396 q 547 345 547 287 l 547 287 q 547 217 531 163 q 514 108 486 67 q 457 25 419 -10 l 419 -10 l 353 51 q 378 75 400 107 q 421 139 434 182 q 447 225 447 281 l 447 281 q 447 346 428 393 q 409 439 375 464 q 341 489 294 489 l 294 489 q 246 489 211 464 q 175 438 156 392 q 136 345 136 282 l 136 282 q 136 230 148 188 q 159 145 181 112 q 202 78 231 51 l 231 51 l 164 -9 q 129 21 100 63 q 71 105 54 161 q 36 217 36 286 l 36 286 q 36 344 52 395 q 67 446 99 485 q 131 524 180 546 q 228 568 294 568 z"},"ല":{"ha":740,"x_min":56,"x_max":679,"o":"m 582 556 l 679 556 l 679 0 l 56 0 l 56 321 q 56 395 70 437 q 83 479 108 507 l 108 507 q 134 537 173 553 q 211 568 263 568 l 263 568 q 315 568 354 553 q 393 538 417 509 l 417 509 q 446 478 458 435 q 469 392 469 328 l 469 328 l 469 221 l 153 221 l 153 77 l 582 77 l 582 556 z m 262 491 l 262 491 q 204 491 179 451 q 153 410 153 328 l 153 328 l 153 298 l 373 298 l 373 328 q 373 412 347 452 q 320 491 262 491 z"},"ള":{"ha":626,"x_min":35,"x_max":593,"o":"m 340 491 l 340 491 q 297 491 262 483 q 226 474 198 458 q 169 441 150 419 q 130 397 121 369 l 121 369 q 121 365 122 360 q 123 355 123 350 l 123 350 q 121 342 120 331 q 118 319 118 306 l 118 306 q 118 250 134 221 q 150 191 184 191 l 184 191 q 213 191 226 214 q 238 237 238 271 l 238 271 q 238 294 233 312 q 227 329 215 339 q 202 348 181 348 l 181 348 q 151 348 131 333 q 110 318 92 299 l 92 299 l 53 334 q 70 355 93 375 q 116 394 143 407 q 170 419 201 419 l 201 419 q 247 419 276 399 q 304 379 317 346 q 330 313 330 271 l 330 271 q 330 228 315 194 q 300 159 268 139 q 236 118 185 118 l 185 118 q 141 118 107 140 q 73 161 54 204 q 35 247 35 310 l 35 310 q 35 365 54 412 q 73 459 112 494 q 151 529 210 549 q 268 568 347 568 l 347 568 q 425 568 478 549 q 531 530 559 493 q 586 456 586 403 l 586 403 q 586 365 570 337 q 553 309 521 291 q 489 273 442 264 l 442 264 l 382 294 l 382 316 l 388 316 q 411 316 431 321 q 450 326 465 339 l 465 339 q 477 349 483 363 q 488 377 488 396 l 488 396 q 488 426 473 447 q 457 467 425 479 q 392 491 340 491 z m 593 151 l 593 151 q 593 114 580 85 q 566 56 543 37 l 543 37 q 526 25 507 17 q 487 8 459 4 q 430 0 386 0 l 386 0 l 258 0 q 218 0 200 -2 q 181 -5 168 -12 l 168 -12 q 153 -18 146 -30 q 139 -43 139 -59 l 139 -59 q 139 -74 145 -85 q 150 -97 161 -105 l 161 -105 q 174 -113 197 -117 q 219 -122 258 -122 l 258 -122 l 570 -122 l 570 -201 l 253 -201 q 200 -201 162 -193 q 124 -185 99 -170 l 99 -170 q 71 -152 57 -125 q 42 -99 42 -64 l 42 -64 q 42 -28 56 1 q 69 29 98 47 l 98 47 q 113 57 132 64 q 151 70 179 74 q 206 77 244 77 l 244 77 l 375 77 q 412 77 435 82 q 457 86 471 98 l 471 98 q 483 108 489 123 q 495 137 495 157 l 495 157 q 495 178 488 194 q 481 209 466 219 l 466 219 q 454 229 436 234 q 418 239 387 239 l 387 239 l 382 239 l 382 302 l 467 291 q 526 277 560 241 q 593 205 593 151 z"},"ഴ":{"ha":578,"x_min":34,"x_max":544,"o":"m 225 415 l 225 415 q 225 483 267 526 q 309 568 384 568 l 384 568 q 441 568 477 543 q 512 518 528 479 q 544 440 544 398 l 544 398 q 544 327 516 272 q 488 217 436 185 q 384 153 311 153 l 311 153 l 292 153 q 206 153 149 185 q 91 216 63 271 q 34 326 34 397 l 34 397 q 34 440 46 483 q 58 525 85 568 l 85 568 l 164 529 q 146 495 138 464 q 130 433 130 398 l 130 398 q 130 341 151 303 q 171 264 208 246 q 244 227 291 227 l 291 227 l 311 227 q 355 227 386 249 q 416 270 432 309 q 448 348 448 399 l 448 399 q 448 437 434 466 q 419 494 384 494 l 384 494 q 363 494 348 483 q 333 472 326 453 q 319 434 319 410 l 319 410 q 319 370 331 336 q 342 301 357 268 q 372 235 384 200 q 395 165 395 126 l 395 126 q 395 94 382 62 q 369 30 337 9 q 305 -12 247 -12 l 247 -12 q 211 -12 175 -5 q 138 1 104 17 l 104 17 l 136 90 q 161 78 185 72 q 209 66 235 66 l 235 66 q 276 66 289 87 q 302 108 302 133 l 302 133 q 302 168 291 201 q 279 233 264 267 q 248 300 237 337 q 225 373 225 415 z"},"വ":{"ha":828,"x_min":36,"x_max":767,"o":"m 294 568 l 294 568 q 360 568 408 547 q 455 525 486 487 q 517 448 532 398 q 546 348 546 291 l 546 291 q 546 235 535 191 q 523 146 504 111 q 484 75 459 43 l 459 43 l 462 77 l 670 77 l 670 556 l 767 556 l 767 0 l 403 0 l 361 59 q 383 81 403 112 q 423 143 435 185 q 447 227 447 281 l 447 281 q 447 346 428 393 q 409 439 375 464 q 341 489 294 489 l 294 489 q 246 489 211 464 q 175 438 156 392 q 136 345 136 282 l 136 282 q 136 230 148 188 q 159 145 181 112 q 202 78 231 51 l 231 51 l 164 -10 q 129 21 100 63 q 71 105 54 161 q 36 217 36 286 l 36 286 q 36 344 52 395 q 67 446 99 485 q 131 524 180 546 q 228 568 294 568 z"},"ശ":{"ha":896,"x_min":36,"x_max":859,"o":"m 579 568 l 579 568 q 646 568 698 545 q 750 522 786 479 q 822 436 841 376 q 859 315 859 240 l 859 240 q 859 148 836 93 q 813 37 772 13 q 730 -12 676 -12 l 676 -12 q 617 -12 580 16 q 543 44 525 93 q 507 141 507 200 l 507 200 q 507 297 549 351 q 590 404 664 404 l 664 404 q 707 404 738 383 q 769 362 791 326 q 812 290 824 242 l 824 242 l 791 233 q 785 254 771 276 q 757 298 736 314 q 715 329 686 329 l 686 329 q 642 329 622 295 q 602 260 602 199 l 602 199 q 602 157 610 127 q 618 96 635 80 q 652 64 678 64 l 678 64 q 706 64 726 82 q 745 100 756 140 q 766 179 766 244 l 766 244 q 766 251 765 271 q 763 290 760 309 l 760 309 q 760 314 761 322 q 761 330 759 333 l 759 333 q 752 376 729 412 q 706 447 669 468 q 631 489 580 489 l 580 489 q 547 489 524 482 q 500 475 482 459 l 482 459 q 451 432 442 385 q 432 337 432 259 l 432 259 l 432 215 q 432 156 422 113 q 411 70 383 40 l 383 40 q 359 15 326 2 q 293 -12 245 -12 l 245 -12 q 180 -12 133 20 q 86 51 61 111 q 36 170 36 254 l 36 254 q 36 327 51 384 q 66 440 93 486 q 120 531 155 569 l 155 569 l 227 511 q 201 481 180 445 q 159 408 147 362 q 135 316 135 258 l 135 258 q 135 197 149 154 q 162 111 187 89 q 212 67 243 67 l 243 67 q 268 67 285 76 q 301 84 311 99 l 311 99 q 325 120 329 153 q 333 186 333 239 l 333 239 l 333 293 q 333 370 349 423 q 365 475 404 511 l 404 511 q 434 539 477 554 q 519 568 579 568 z"},"ഷ":{"ha":999,"x_min":30,"x_max":938,"o":"m 206 351 l 206 351 q 266 351 305 326 q 343 300 362 261 q 381 221 381 177 l 381 177 q 381 137 369 107 q 356 76 344 61 l 344 61 l 328 77 l 585 77 l 611 0 l 286 0 l 251 54 q 265 74 276 101 q 287 128 287 166 l 287 166 q 287 215 267 245 q 246 274 207 274 l 207 274 q 181 274 163 261 q 144 248 135 225 q 125 201 125 171 l 125 171 q 125 129 139 99 q 153 69 174 41 l 174 41 l 105 -8 q 73 28 52 72 q 30 116 30 173 l 30 173 q 30 227 52 267 q 74 306 114 329 q 153 351 206 351 z m 938 0 l 566 0 l 566 399 q 566 427 563 447 q 559 466 551 477 l 551 477 q 546 483 539 488 q 531 492 520 492 l 520 492 q 496 492 482 471 q 468 450 468 412 l 468 412 q 468 384 477 361 q 485 337 507 324 q 529 310 570 310 l 570 310 l 606 310 q 651 310 686 329 q 721 348 749 382 q 777 416 801 461 q 824 506 845 556 l 845 556 l 938 556 l 938 0 z m 523 568 l 523 568 q 555 568 580 560 q 604 551 620 534 l 620 534 q 641 513 651 482 q 660 450 660 397 l 660 397 l 660 77 l 843 77 l 843 307 q 843 332 844 355 q 844 377 846 396 q 847 414 849 426 l 849 426 l 851 420 q 825 356 787 315 q 749 273 705 254 q 660 235 613 235 l 613 235 l 574 235 q 504 235 461 259 q 417 282 397 323 q 376 363 376 413 l 376 413 q 376 452 392 488 q 408 523 441 546 q 474 568 523 568 z"},"സ":{"ha":1044,"x_min":36,"x_max":1008,"o":"m 534 568 l 534 568 q 574 568 606 556 q 637 543 659 519 l 659 519 q 676 502 687 479 q 698 456 704 424 q 709 391 709 341 l 709 341 l 709 244 q 709 184 714 152 q 718 119 732 98 l 732 98 q 742 83 758 75 q 774 67 800 67 l 800 67 q 833 67 858 90 q 882 112 896 155 q 909 197 909 259 l 909 259 q 909 316 897 362 q 885 408 865 445 q 844 481 817 511 l 817 511 l 889 569 q 924 531 951 486 q 978 440 993 384 q 1008 327 1008 254 l 1008 254 q 1008 170 983 111 q 957 51 910 20 q 863 -12 798 -12 l 798 -12 q 751 -12 718 2 q 684 15 660 40 l 660 40 q 642 60 632 86 q 621 111 617 143 q 612 175 612 215 l 612 215 l 612 333 q 612 383 608 413 q 603 442 589 461 l 589 461 q 579 475 563 482 q 547 489 524 489 l 524 489 q 504 489 488 481 q 471 473 461 459 l 461 459 q 448 441 443 412 q 437 382 437 328 l 437 328 l 437 0 l 341 0 l 341 321 q 341 380 335 411 q 329 442 314 460 l 314 460 q 302 475 286 482 q 269 489 250 489 l 250 489 q 216 489 190 466 q 164 442 150 399 q 135 356 135 298 l 135 298 q 135 242 147 197 q 159 151 180 115 q 201 79 227 49 l 227 49 l 154 -9 q 120 29 93 74 q 66 118 51 174 q 36 230 36 303 l 36 303 q 36 380 61 440 q 85 500 132 534 q 179 568 245 568 l 245 568 q 296 568 331 548 q 366 528 395 483 l 395 483 l 384 484 q 408 523 443 546 q 477 568 534 568 z"},"ഹ":{"ha":1023,"x_min":30,"x_max":987,"o":"m 206 351 l 206 351 q 266 351 305 326 q 343 300 362 261 q 381 221 381 177 l 381 177 q 381 137 369 107 q 356 76 344 61 l 344 61 l 328 77 l 580 77 l 611 0 l 286 0 l 251 54 q 265 74 276 101 q 287 128 287 166 l 287 166 q 287 215 267 245 q 246 274 207 274 l 207 274 q 181 274 163 261 q 144 248 135 225 q 125 201 125 171 l 125 171 q 125 129 139 99 q 153 69 174 41 l 174 41 l 105 -8 q 73 28 52 72 q 30 116 30 173 l 30 173 q 30 227 52 267 q 74 306 114 329 q 153 351 206 351 z m 734 568 l 734 568 q 800 568 848 547 q 895 525 926 486 q 957 447 972 396 q 987 345 987 287 l 987 287 q 987 216 971 162 q 954 108 925 66 q 896 24 858 -10 l 858 -10 l 792 51 q 818 75 840 107 q 861 138 874 181 q 887 224 887 281 l 887 281 q 887 346 868 393 q 849 439 815 464 q 781 489 733 489 l 733 489 q 685 489 650 464 q 614 438 595 392 q 576 345 576 282 l 576 282 q 576 233 586 193 q 596 153 616 120 q 635 86 662 59 l 662 59 l 618 0 l 595 0 l 562 46 q 539 76 520 112 q 500 148 488 192 q 476 236 476 288 l 476 288 q 476 345 492 396 q 507 447 539 486 q 571 524 620 546 q 668 568 734 568 z"},"ഺ":{"ha":639,"x_min":19,"x_max":622,"o":"m 126 77 l 622 77 l 622 0 l 401 0 l 401 -202 l 304 -202 l 304 0 l 70 0 l 19 60 l 209 561 l 299 532 l 126 77 z"},"഻":{"ha":0,"x_min":-316,"x_max":-241,"o":"m -316 588 l -316 864 l -241 864 l -241 588 l -316 588 z"},"഼":{"ha":0,"x_min":-227,"x_max":16,"o":"m -227 723 l -227 723 q -227 783 -193 819 q -160 855 -106 855 l -106 855 q -51 855 -17 820 q 16 784 16 723 l 16 723 q 16 663 -17 627 q -50 591 -106 591 l -106 591 q -161 591 -194 627 q -227 663 -227 723 z m -154 724 l -154 724 q -154 695 -142 677 q -130 659 -106 659 l -106 659 q -82 659 -69 677 q -57 695 -57 724 l -57 724 q -57 753 -69 770 q -82 787 -106 787 l -106 787 q -129 787 -141 770 q -154 753 -154 724 z"},"ഽ":{"ha":415,"x_min":-66,"x_max":480,"o":"m 324 794 l 324 794 q 369 794 401 775 q 432 756 452 723 q 471 690 480 648 l 480 648 l 386 629 q 380 655 372 675 q 364 695 353 706 q 341 717 322 717 l 322 717 q 307 717 296 711 q 284 705 276 694 l 276 694 q 266 680 262 654 q 257 627 257 579 l 257 579 l 257 -16 q 257 -90 245 -133 q 233 -177 204 -205 l 204 -205 q 184 -224 157 -234 q 129 -244 90 -244 l 90 -244 q 45 -244 14 -225 q -17 -206 -36 -172 q -56 -139 -66 -97 l -66 -97 l 29 -78 q 35 -104 43 -124 q 51 -144 63 -155 q 75 -167 93 -167 l 93 -167 q 110 -167 121 -160 q 132 -154 139 -143 l 139 -143 q 149 -128 154 -101 q 158 -75 158 -30 l 158 -30 l 158 563 q 158 640 170 684 q 181 727 211 754 l 211 754 q 230 773 258 784 q 286 794 324 794 z"},"ാ":{"ha":446,"x_min":16,"x_max":407,"o":"m 407 280 l 407 280 q 407 216 398 163 q 388 109 365 70 q 342 31 305 10 q 267 -12 210 -12 l 210 -12 q 161 -12 127 4 q 92 20 70 48 q 47 75 35 108 q 22 141 16 174 l 16 174 l 113 192 q 119 165 129 136 q 139 106 158 86 q 176 65 207 65 l 207 65 q 244 65 266 90 q 288 115 299 163 q 309 211 309 280 l 309 280 q 309 347 299 394 q 288 441 267 466 q 245 491 211 491 l 211 491 q 182 491 163 473 q 144 454 133 426 q 122 397 115 366 l 115 366 l 19 385 q 28 419 42 452 q 56 484 79 511 q 101 537 135 553 q 169 568 218 568 l 218 568 q 271 568 308 547 q 344 525 366 486 q 388 447 398 395 q 407 342 407 280 z"},"ി":{"ha":218,"x_min":-192,"x_max":157,"o":"m -22 845 l -22 845 q 14 845 44 836 q 74 826 96 806 l 96 806 q 119 786 133 758 q 146 730 152 690 q 157 650 157 590 l 157 590 l 157 0 l 61 0 l 61 553 q 61 605 59 642 q 56 679 50 704 q 44 729 32 743 l 32 743 q 23 755 10 762 q -3 768 -23 768 l -23 768 q -40 768 -57 759 q -74 750 -84 732 q -95 714 -95 684 l -95 684 q -95 673 -93 661 q -92 648 -91 639 l -91 639 l -185 625 q -188 637 -190 652 q -192 667 -192 684 l -192 684 q -192 737 -168 773 q -145 809 -106 827 q -68 845 -22 845 z"},"ീ":{"ha":218,"x_min":-241,"x_max":157,"o":"m -78 845 l -78 845 q -28 845 11 832 q 50 819 81 794 l 81 794 q 125 757 141 700 q 157 643 157 553 l 157 553 l 157 0 l 61 0 l 61 533 q 61 586 58 625 q 55 663 47 690 q 38 717 23 735 l 23 735 q 6 759 -20 769 q -47 778 -88 778 l -88 778 q -105 778 -122 771 q -140 764 -152 749 q -164 734 -164 708 l -164 708 q -164 679 -151 665 q -138 650 -115 650 l -115 650 q -88 650 -76 667 q -65 683 -65 709 l -65 709 q -65 733 -74 755 q -84 777 -101 791 l -101 791 l -16 779 q -8 768 -1 749 q 6 730 6 705 l 6 705 q 6 670 -6 641 q -18 612 -45 596 q -73 579 -117 579 l -117 579 q -152 579 -180 594 q -208 608 -224 637 q -241 666 -241 709 l -241 709 q -241 748 -222 779 q -203 810 -166 828 q -130 845 -78 845 z"},"ു":{"ha":298,"x_min":-20,"x_max":302,"o":"m 141 -229 l 141 -229 q 67 -229 24 -182 q -20 -135 -20 -53 l -20 -53 q -20 2 0 41 q 20 80 57 101 q 93 122 140 122 l 140 122 q 189 122 226 102 q 262 82 282 43 q 302 3 302 -53 l 302 -53 q 302 -108 282 -147 q 261 -187 225 -208 q 189 -229 141 -229 z m 141 -157 l 141 -157 q 174 -157 194 -131 q 214 -105 214 -53 l 214 -53 q 214 -2 195 24 q 175 50 141 50 l 141 50 q 108 50 88 24 q 68 -2 68 -54 l 68 -54 q 68 -106 88 -131 q 108 -157 141 -157 z m 104 568 l 104 568 q 157 568 188 546 q 219 523 232 486 q 245 449 245 407 l 245 407 q 245 341 230 259 q 214 176 190 88 l 190 88 l 101 103 q 121 186 134 259 q 147 332 147 396 l 147 396 q 147 438 134 464 q 120 489 82 489 l 82 489 q 69 489 56 487 q 43 485 32 482 l 32 482 l 15 557 q 31 562 53 565 q 75 568 104 568 z"},"ൂ":{"ha":298,"x_min":-20,"x_max":302,"o":"m 142 -229 l 142 -229 q 67 -229 24 -182 q -20 -135 -20 -53 l -20 -53 q -20 2 0 41 q 20 80 57 101 q 93 122 141 122 l 141 122 q 189 122 226 102 q 262 82 282 43 q 302 3 302 -53 l 302 -53 q 302 -108 282 -147 q 261 -187 225 -208 q 189 -229 142 -229 z m 141 54 l 141 54 q 103 54 79 28 q 54 2 54 -54 l 54 -54 q 54 -109 78 -134 q 102 -160 141 -160 l 141 -160 q 180 -160 204 -134 q 228 -108 228 -54 l 228 -54 q 228 1 204 28 q 180 54 141 54 z m 140 -97 l 140 -97 q 90 -97 68 -66 q 45 -35 45 13 l 45 13 q 45 35 55 55 q 64 75 81 98 l 81 98 l 122 70 q 105 61 96 48 q 87 35 87 19 l 87 19 q 87 5 93 -5 q 99 -16 111 -22 q 123 -28 141 -28 l 141 -28 q 158 -28 170 -22 q 182 -16 189 -5 q 195 5 195 19 l 195 19 q 195 34 187 47 q 179 59 163 67 l 163 67 l 204 98 q 223 73 230 54 q 237 35 237 15 l 237 15 q 237 -13 229 -38 q 220 -64 199 -80 q 178 -97 140 -97 z m 105 568 l 105 568 q 158 568 189 546 q 219 523 232 487 q 245 450 245 407 l 245 407 q 245 341 230 259 q 214 176 190 88 l 190 88 l 101 103 q 121 186 134 259 q 147 332 147 396 l 147 396 q 147 438 134 464 q 120 489 82 489 l 82 489 q 70 489 57 487 q 43 485 32 482 l 32 482 l 15 557 q 31 562 53 565 q 75 568 105 568 z"},"ൃ":{"ha":229,"x_min":-130,"x_max":225,"o":"m 35 -321 l 35 -321 q -15 -321 -52 -304 q -89 -287 -109 -253 q -130 -219 -130 -170 l -130 -170 q -130 -106 -89 -67 q -49 -28 26 -28 l 26 -28 q 60 -28 98 -40 q 136 -53 177 -91 l 177 -91 l 156 -160 q 124 -130 94 -117 q 64 -104 32 -104 l 32 -104 q 1 -104 -18 -120 q -38 -137 -38 -173 l -38 -173 q -38 -208 -18 -226 q 1 -244 34 -244 l 34 -244 q 65 -244 87 -231 q 108 -219 120 -192 q 131 -166 131 -123 l 131 -123 q 131 -92 126 -62 q 120 -33 110 3 q 99 38 83 84 l 83 84 q 67 133 53 187 q 39 241 39 303 l 39 303 q 39 369 57 434 q 75 498 102 556 l 102 556 l 202 556 q 179 507 165 466 q 150 425 144 387 q 137 349 137 308 l 137 308 q 137 253 148 208 q 158 163 176 108 l 176 108 q 193 60 204 21 q 214 -18 220 -52 q 225 -86 225 -122 l 225 -122 q 225 -194 199 -238 q 173 -282 130 -301 q 86 -321 35 -321 z"},"ൄ":{"ha":229,"x_min":-239,"x_max":225,"o":"m -21 -321 l -21 -321 q -90 -321 -139 -301 q -188 -282 -213 -243 q -239 -205 -239 -151 l -239 -151 q -239 -97 -209 -65 q -179 -34 -131 -34 l -131 -34 q -103 -34 -83 -47 q -64 -60 -53 -83 l -53 -83 l -62 -81 q -49 -58 -30 -46 q -11 -34 16 -34 l 16 -34 q 43 -34 61 -44 q 79 -55 89 -71 q 98 -88 101 -107 q 104 -126 104 -145 l 104 -145 l 104 -176 l 39 -176 l 39 -161 q 39 -134 32 -119 q 25 -104 8 -104 l 8 -104 q -12 -104 -18 -119 q -25 -134 -25 -158 l -25 -158 l -25 -176 l -91 -176 l -91 -158 q -91 -133 -98 -118 q -105 -104 -123 -104 l -123 -104 q -138 -104 -147 -116 q -157 -128 -157 -151 l -157 -151 q -157 -195 -123 -219 q -89 -244 -21 -244 l -21 -244 q 48 -244 88 -213 q 128 -183 128 -121 l 128 -121 q 128 -90 123 -61 q 118 -32 108 3 q 98 37 83 83 l 83 83 q 67 131 53 186 q 39 240 39 303 l 39 303 q 39 369 57 434 q 75 498 102 556 l 102 556 l 202 556 q 179 507 165 466 q 150 425 144 387 q 137 349 137 308 l 137 308 q 137 253 148 208 q 158 163 176 109 l 176 109 q 193 60 204 22 q 214 -17 220 -51 q 225 -85 225 -122 l 225 -122 q 225 -189 194 -233 q 162 -277 107 -299 q 51 -321 -21 -321 z"},"െ":{"ha":619,"x_min":37,"x_max":583,"o":"m 210 -12 l 210 -12 q 163 -12 124 13 q 84 38 61 92 q 37 146 37 235 l 37 235 q 37 314 58 376 q 78 437 117 480 q 155 523 208 546 q 260 568 324 568 l 324 568 q 390 568 439 547 q 488 526 520 488 q 552 449 568 398 q 583 347 583 286 l 583 286 q 583 216 567 162 q 550 108 521 67 q 492 25 455 -10 l 455 -10 l 389 51 q 415 75 437 107 q 458 139 471 181 q 483 223 483 279 l 483 279 q 483 345 465 392 q 446 439 409 464 q 372 489 319 489 l 319 489 q 263 489 219 457 q 175 424 151 366 q 126 308 126 232 l 126 232 q 126 169 137 133 q 147 96 166 81 q 184 65 208 65 l 208 65 q 226 65 240 75 q 253 85 261 106 q 268 127 268 160 l 268 160 q 268 210 250 233 q 232 256 199 256 l 199 256 q 170 256 145 240 q 119 224 93 192 l 93 192 l 75 259 q 99 287 138 310 q 176 332 221 332 l 221 332 q 265 332 297 313 q 328 294 345 257 q 361 220 361 165 l 361 165 q 361 107 343 68 q 325 28 292 8 q 258 -12 210 -12 z"},"േ":{"ha":521,"x_min":36,"x_max":488,"o":"m 310 -12 l 310 -12 q 253 -12 204 5 q 154 22 116 59 q 78 95 57 151 q 36 206 36 282 l 36 282 q 36 356 59 411 q 81 465 120 500 q 159 534 210 551 q 261 568 317 568 l 317 568 q 379 568 417 549 q 454 530 471 498 q 488 466 488 427 l 488 427 q 488 385 472 356 q 455 327 427 312 q 398 296 361 296 l 361 296 q 313 296 285 314 q 256 331 244 361 q 231 390 231 425 l 231 425 q 231 447 238 468 q 245 489 254 502 l 254 502 l 341 514 q 326 500 317 477 q 308 454 308 428 l 308 428 q 308 404 319 386 q 329 367 357 367 l 357 367 q 382 367 393 383 q 404 398 404 425 l 404 425 q 404 461 384 479 q 364 496 334 496 l 334 496 q 322 496 308 496 q 294 496 284 495 l 284 495 q 239 492 205 465 q 171 438 152 392 q 132 345 132 281 l 132 281 q 132 219 150 172 q 167 124 200 96 q 232 67 275 62 l 275 62 q 287 61 302 61 q 316 60 326 60 l 326 60 q 349 60 365 69 q 381 77 390 93 q 399 109 399 132 l 399 132 q 399 158 389 174 q 378 190 353 190 l 353 190 q 325 190 314 172 q 303 153 303 128 l 303 128 q 303 102 312 80 q 321 57 336 43 l 336 43 l 249 54 q 239 69 232 90 q 225 111 225 136 l 225 136 q 225 168 238 197 q 250 225 279 243 q 307 261 354 261 l 354 261 q 391 261 420 247 q 449 232 466 203 q 483 174 483 130 l 483 130 q 483 91 466 59 q 448 26 410 7 q 371 -12 310 -12 z"},"ൈ":{"ha":1237,"x_min":37,"x_max":1201,"o":"m 210 -12 l 210 -12 q 163 -12 124 13 q 84 38 61 92 q 37 146 37 235 l 37 235 q 37 314 58 376 q 78 437 117 480 q 155 523 208 546 q 260 568 324 568 l 324 568 q 390 568 439 547 q 488 526 520 488 q 552 449 568 398 q 583 347 583 286 l 583 286 q 583 216 567 162 q 550 108 521 67 q 492 25 455 -10 l 455 -10 l 389 51 q 415 75 437 107 q 458 139 471 181 q 483 223 483 279 l 483 279 q 483 345 465 392 q 446 439 409 464 q 372 489 319 489 l 319 489 q 263 489 219 457 q 175 424 151 366 q 126 308 126 232 l 126 232 q 126 169 137 133 q 147 96 166 81 q 184 65 208 65 l 208 65 q 226 65 240 75 q 253 85 261 106 q 268 127 268 160 l 268 160 q 268 210 250 233 q 232 256 199 256 l 199 256 q 170 256 145 240 q 119 224 93 192 l 93 192 l 75 259 q 99 287 138 310 q 176 332 221 332 l 221 332 q 265 332 297 313 q 328 294 345 257 q 361 220 361 165 l 361 165 q 361 107 343 68 q 325 28 292 8 q 258 -12 210 -12 z m 828 -12 l 828 -12 q 781 -12 742 13 q 702 38 679 92 q 655 146 655 235 l 655 235 q 655 314 676 376 q 696 437 735 480 q 773 523 826 546 q 878 568 942 568 l 942 568 q 1008 568 1057 547 q 1106 526 1138 488 q 1170 449 1186 398 q 1201 347 1201 286 l 1201 286 q 1201 216 1185 162 q 1168 108 1139 67 q 1110 25 1073 -10 l 1073 -10 l 1007 51 q 1033 75 1055 107 q 1076 139 1089 181 q 1101 223 1101 279 l 1101 279 q 1101 345 1083 392 q 1064 439 1027 464 q 990 489 937 489 l 937 489 q 881 489 837 457 q 793 424 769 366 q 744 308 744 232 l 744 232 q 744 169 755 133 q 765 96 784 81 q 802 65 826 65 l 826 65 q 844 65 858 75 q 871 85 879 106 q 886 127 886 160 l 886 160 q 886 210 868 233 q 850 256 817 256 l 817 256 q 788 256 763 240 q 737 224 711 192 l 711 192 l 693 259 q 717 287 756 310 q 794 332 839 332 l 839 332 q 883 332 915 313 q 946 294 963 257 q 979 220 979 165 l 979 165 q 979 107 961 68 q 943 28 910 8 q 876 -12 828 -12 z"},"ൊ":{"ha":1233,"x_min":37,"x_max":1194,"o":"m 210 -12 l 210 -12 q 163 -12 124 13 q 84 38 61 92 q 37 146 37 235 l 37 235 q 37 314 58 376 q 78 437 117 480 q 155 523 208 546 q 260 568 324 568 l 324 568 q 390 568 439 547 q 488 526 520 488 q 552 449 568 398 q 583 347 583 286 l 583 286 q 583 216 567 162 q 550 108 521 67 q 492 25 455 -10 l 455 -10 l 389 51 q 415 75 437 107 q 458 139 471 181 q 483 223 483 279 l 483 279 q 483 345 465 392 q 446 439 409 464 q 372 489 319 489 l 319 489 q 263 489 219 457 q 175 424 151 366 q 126 308 126 232 l 126 232 q 126 169 137 133 q 147 96 166 81 q 184 65 208 65 l 208 65 q 226 65 240 75 q 253 85 261 106 q 268 127 268 160 l 268 160 q 268 210 250 233 q 232 256 199 256 l 199 256 q 170 256 145 240 q 119 224 93 192 l 93 192 l 75 259 q 99 287 138 310 q 176 332 221 332 l 221 332 q 265 332 297 313 q 328 294 345 257 q 361 220 361 165 l 361 165 q 361 107 343 68 q 325 28 292 8 q 258 -12 210 -12 z m 709 229 l 709 229 q 681 229 664 247 q 646 264 646 299 l 646 299 q 646 335 663 352 q 680 369 709 369 l 709 369 q 738 369 756 353 q 773 336 773 299 l 773 299 q 773 263 755 246 q 737 229 709 229 z m 1194 280 l 1194 280 q 1194 216 1185 163 q 1175 109 1152 70 q 1129 31 1092 10 q 1054 -12 997 -12 l 997 -12 q 948 -12 914 4 q 879 20 857 48 q 834 75 822 108 q 809 141 803 174 l 803 174 l 900 192 q 906 165 916 136 q 926 106 945 86 q 963 65 994 65 l 994 65 q 1031 65 1053 90 q 1075 115 1086 163 q 1096 211 1096 280 l 1096 280 q 1096 347 1086 394 q 1075 441 1054 466 q 1032 491 998 491 l 998 491 q 969 491 950 473 q 931 454 920 426 q 909 397 902 366 l 902 366 l 806 385 q 815 419 829 452 q 843 484 866 511 q 888 537 922 553 q 956 568 1005 568 l 1005 568 q 1058 568 1095 547 q 1131 525 1153 486 q 1175 447 1185 395 q 1194 342 1194 280 z"},"ോ":{"ha":1120,"x_min":36,"x_max":1081,"o":"m 310 -12 l 310 -12 q 253 -12 204 5 q 154 22 116 59 q 78 95 57 151 q 36 206 36 282 l 36 282 q 36 356 59 411 q 81 465 120 500 q 159 534 210 551 q 261 568 317 568 l 317 568 q 379 568 417 549 q 454 530 471 498 q 488 466 488 427 l 488 427 q 488 385 472 356 q 455 327 427 312 q 398 296 361 296 l 361 296 q 313 296 285 314 q 256 331 244 361 q 231 390 231 425 l 231 425 q 231 447 238 468 q 245 489 254 502 l 254 502 l 341 514 q 326 500 317 477 q 308 454 308 428 l 308 428 q 308 404 319 386 q 329 367 357 367 l 357 367 q 382 367 393 383 q 404 398 404 425 l 404 425 q 404 461 384 479 q 364 496 334 496 l 334 496 q 322 496 308 496 q 294 496 284 495 l 284 495 q 239 492 205 465 q 171 438 152 392 q 132 345 132 281 l 132 281 q 132 219 150 172 q 167 124 200 96 q 232 67 275 62 l 275 62 q 287 61 302 61 q 316 60 326 60 l 326 60 q 349 60 365 69 q 381 77 390 93 q 399 109 399 132 l 399 132 q 399 158 389 174 q 378 190 353 190 l 353 190 q 325 190 314 172 q 303 153 303 128 l 303 128 q 303 102 312 80 q 321 57 336 43 l 336 43 l 249 54 q 239 69 232 90 q 225 111 225 136 l 225 136 q 225 168 238 197 q 250 225 279 243 q 307 261 354 261 l 354 261 q 391 261 420 247 q 449 232 466 203 q 483 174 483 130 l 483 130 q 483 91 466 59 q 448 26 410 7 q 371 -12 310 -12 z m 596 229 l 596 229 q 568 229 551 247 q 533 264 533 299 l 533 299 q 533 335 550 352 q 567 369 596 369 l 596 369 q 625 369 643 353 q 660 336 660 299 l 660 299 q 660 263 642 246 q 624 229 596 229 z m 1080 280 l 1080 280 q 1080 216 1071 163 q 1061 109 1038 70 q 1015 31 978 10 q 940 -12 883 -12 l 883 -12 q 834 -12 800 4 q 765 20 743 48 q 720 75 708 108 q 695 141 689 174 l 689 174 l 786 192 q 792 165 802 136 q 812 106 831 86 q 849 65 880 65 l 880 65 q 917 65 939 90 q 961 115 972 163 q 982 211 982 280 l 982 280 q 982 347 972 394 q 961 441 940 466 q 918 491 884 491 l 884 491 q 855 491 836 473 q 817 454 806 426 q 795 397 788 366 l 788 366 l 692 385 q 701 419 715 452 q 729 484 752 511 q 774 537 808 553 q 842 568 891 568 l 891 568 q 944 568 981 547 q 1017 525 1039 486 q 1061 447 1071 395 q 1080 342 1080 280 z"},"ൌ":{"ha":1452,"x_min":37,"x_max":1415,"o":"m 210 -12 l 210 -12 q 163 -12 124 13 q 84 38 61 92 q 37 146 37 235 l 37 235 q 37 314 58 376 q 78 437 117 480 q 155 523 208 546 q 260 568 324 568 l 324 568 q 390 568 439 547 q 488 526 520 488 q 552 449 568 398 q 583 347 583 286 l 583 286 q 583 216 567 162 q 550 108 521 67 q 492 25 455 -10 l 455 -10 l 389 51 q 415 75 437 107 q 458 139 471 181 q 483 223 483 279 l 483 279 q 483 345 465 392 q 446 439 409 464 q 372 489 319 489 l 319 489 q 263 489 219 457 q 175 424 151 366 q 126 308 126 232 l 126 232 q 126 169 137 133 q 147 96 166 81 q 184 65 208 65 l 208 65 q 226 65 240 75 q 253 85 261 106 q 268 127 268 160 l 268 160 q 268 210 250 233 q 232 256 199 256 l 199 256 q 170 256 145 240 q 119 224 93 192 l 93 192 l 75 259 q 99 287 138 310 q 176 332 221 332 l 221 332 q 265 332 297 313 q 328 294 345 257 q 361 220 361 165 l 361 165 q 361 107 343 68 q 325 28 292 8 q 258 -12 210 -12 z m 709 229 l 709 229 q 681 229 664 247 q 646 264 646 299 l 646 299 q 646 335 663 352 q 680 369 709 369 l 709 369 q 738 369 756 353 q 773 336 773 299 l 773 299 q 773 263 755 246 q 737 229 709 229 z m 1237 568 l 1237 568 q 1294 568 1334 538 q 1373 507 1394 449 q 1415 391 1415 307 l 1415 307 q 1415 198 1386 128 q 1357 57 1301 23 q 1244 -12 1161 -12 l 1161 -12 q 1110 -12 1064 -2 q 1017 8 973 32 l 973 32 l 1016 106 q 1046 91 1080 81 q 1114 70 1155 70 l 1155 70 q 1215 70 1251 97 q 1286 124 1301 177 q 1316 229 1316 306 l 1316 306 q 1316 399 1293 445 q 1269 490 1230 490 l 1230 490 q 1212 490 1201 484 q 1190 477 1182 466 l 1182 466 q 1172 452 1168 429 q 1164 406 1164 357 l 1164 357 l 1164 261 l 1068 261 l 1068 349 q 1068 395 1065 421 q 1062 446 1052 461 l 1052 461 q 1044 476 1031 483 q 1017 490 1001 490 l 1001 490 q 964 490 945 460 q 926 430 926 387 l 926 387 q 926 354 930 327 q 934 299 940 277 l 940 277 l 849 257 q 840 287 835 322 q 829 357 829 390 l 829 390 q 829 438 847 479 q 864 519 900 544 q 936 568 992 568 l 992 568 q 1038 568 1069 550 q 1099 531 1120 496 l 1120 496 l 1107 497 q 1131 536 1163 552 q 1194 568 1237 568 z"},"്":{"ha":0,"x_min":-256,"x_max":61,"o":"m -98 592 l -98 592 q -152 592 -187 613 q -222 633 -239 669 q -256 705 -256 752 l -256 752 q -256 773 -253 792 q -250 810 -246 822 l -246 822 l -162 808 q -166 796 -167 783 q -169 769 -169 754 l -169 754 q -169 722 -159 703 q -150 683 -134 675 q -118 667 -97 667 l -97 667 q -76 667 -60 675 q -44 683 -34 703 q -25 722 -25 755 l -25 755 q -25 769 -27 783 q -29 797 -32 808 l -32 808 l 50 822 q 55 810 58 792 q 61 773 61 753 l 61 753 q 61 706 44 670 q 26 633 -9 613 q -44 592 -98 592 z"},"ൎ":{"ha":0,"x_min":-332,"x_max":-223,"o":"m -332 815 l -223 815 l -231 630 l -324 630 l -332 815 z"},"൏":{"ha":1078,"x_min":44,"x_max":1038,"o":"m 511 568 l 511 568 q 581 568 625 544 q 668 519 703 473 l 703 473 l 679 482 q 708 528 745 548 q 782 568 831 568 l 831 568 q 896 568 943 531 q 989 494 1014 421 q 1038 347 1038 238 l 1038 238 q 1038 83 987 -22 q 936 -127 828 -180 q 719 -234 544 -234 l 544 -234 q 428 -234 343 -209 q 258 -185 201 -141 q 143 -97 109 -37 q 74 22 59 91 q 44 160 44 235 l 44 235 q 44 306 60 383 q 76 459 108 541 l 108 541 l 194 510 q 164 442 151 371 q 137 299 137 236 l 137 236 q 137 177 147 121 q 157 65 183 16 q 208 -33 254 -70 q 300 -108 371 -129 q 442 -150 544 -150 l 544 -150 q 658 -150 734 -124 q 810 -98 855 -48 q 900 1 920 74 q 939 146 939 240 l 939 240 q 939 322 926 378 q 912 433 887 461 q 862 489 826 489 l 826 489 q 805 489 790 482 q 775 475 763 461 l 763 461 q 748 443 742 413 q 736 382 736 326 l 736 326 l 736 0 l 640 0 l 640 310 q 640 370 632 403 q 623 436 604 456 l 604 456 q 589 472 568 481 q 546 489 512 489 l 512 489 q 456 489 415 459 q 373 429 350 374 q 327 319 327 246 l 327 246 l 327 226 q 327 167 337 132 q 347 96 366 81 q 384 65 408 65 l 408 65 q 426 65 440 75 q 453 85 461 106 q 468 126 468 160 l 468 160 q 468 211 451 234 q 433 256 399 256 l 399 256 q 370 256 345 240 q 319 224 293 192 l 293 192 l 275 259 q 299 287 338 310 q 376 332 421 332 l 421 332 q 465 332 497 313 q 528 294 545 257 q 561 220 561 165 l 561 165 q 561 107 543 68 q 525 28 491 8 q 457 -12 409 -12 l 409 -12 q 363 -12 324 13 q 285 38 261 94 q 237 149 237 242 l 237 242 q 237 351 273 424 q 309 496 371 532 q 433 568 511 568 z"},"ൔ":{"ha":556,"x_min":53,"x_max":546,"o":"m 153 794 l 153 794 q 185 794 210 786 q 234 777 249 762 l 249 762 q 271 742 279 714 q 286 685 286 641 l 286 641 l 286 522 q 286 477 291 439 q 296 400 314 362 q 331 323 366 277 l 366 277 l 385 255 q 413 219 453 174 q 493 129 546 73 l 546 73 l 509 0 l 53 0 l 53 273 q 53 329 61 371 q 68 412 83 443 q 97 474 120 498 l 120 498 q 153 531 195 550 q 237 568 291 568 l 291 568 q 343 568 382 545 q 420 521 441 480 q 462 438 462 383 l 462 383 q 462 333 443 290 q 423 247 394 209 l 394 209 l 376 190 q 356 166 335 143 q 313 119 290 97 q 266 74 242 51 l 242 51 l 243 74 q 267 76 289 77 q 311 78 325 78 l 325 78 l 379 78 q 388 78 403 78 q 417 77 434 77 q 450 76 462 74 l 462 74 l 446 62 q 412 98 384 130 q 355 161 332 190 l 332 190 l 307 218 q 261 275 237 323 q 213 371 205 420 q 196 469 196 530 l 196 530 l 196 628 q 196 658 191 674 q 186 690 176 699 l 176 699 q 169 706 158 710 q 147 713 131 713 l 131 713 q 116 713 100 711 q 84 708 72 704 l 72 704 l 54 781 q 71 786 98 790 q 124 794 153 794 z m 149 262 l 149 63 l 140 64 q 174 93 207 125 q 239 156 269 191 q 298 225 320 261 l 320 261 l 339 287 q 352 311 359 336 q 366 361 366 387 l 366 387 q 366 418 355 442 q 343 466 322 479 q 300 492 269 492 l 269 492 q 234 492 211 473 q 187 453 173 420 l 173 420 q 165 402 160 381 q 155 359 152 331 q 149 302 149 262 l 149 262 z"},"ൕ":{"ha":896,"x_min":37,"x_max":861,"o":"m 589 -12 l 589 -12 q 554 -12 526 -7 q 498 -3 474 6 q 450 15 426 29 l 426 29 q 420 33 413 39 q 406 45 401 49 l 401 49 q 356 86 328 133 q 299 180 286 235 q 272 289 272 345 l 272 345 q 272 381 280 415 q 287 448 301 476 l 301 476 l 314 493 q 331 519 353 536 q 375 552 402 560 q 429 568 459 568 l 459 568 q 546 568 594 510 q 642 452 642 342 l 642 342 q 642 278 627 224 q 611 169 582 125 q 552 80 510 47 l 510 47 q 504 42 497 37 q 490 32 482 28 l 482 28 q 449 7 410 -2 q 371 -12 325 -12 l 325 -12 q 255 -12 201 14 q 147 39 111 85 q 74 130 56 193 q 37 255 37 329 l 37 329 q 37 403 60 457 q 83 510 127 539 q 171 568 233 568 l 233 568 q 281 568 318 550 q 354 531 387 492 l 387 492 l 316 441 q 300 466 280 479 q 260 491 236 491 l 236 491 q 206 491 183 473 q 160 455 148 419 q 135 383 135 329 l 135 329 q 135 248 159 189 q 182 129 226 97 q 269 64 329 64 l 329 64 q 354 64 374 67 q 393 70 410 77 l 410 77 q 418 80 426 83 q 433 86 439 90 l 439 90 q 472 113 496 152 q 519 191 532 240 q 544 289 544 341 l 544 341 q 544 398 532 431 q 519 464 500 478 q 480 491 458 491 l 458 491 q 431 491 411 475 q 391 459 381 426 q 370 392 370 342 l 370 342 q 370 296 381 248 q 392 200 415 159 q 438 118 471 92 l 471 92 q 478 88 484 86 q 489 84 496 81 l 496 81 q 511 73 533 69 q 554 64 585 64 l 585 64 q 646 64 685 87 q 724 109 743 148 q 762 186 762 235 l 762 235 q 762 276 754 311 q 746 345 730 380 q 713 415 689 457 l 689 457 q 666 499 649 532 q 631 565 622 596 q 612 627 612 662 l 612 662 q 612 692 625 723 q 638 753 669 774 q 699 794 754 794 l 754 794 q 783 794 807 790 q 831 785 845 781 l 845 781 l 827 704 q 815 709 802 711 q 788 713 770 713 l 770 713 q 737 713 723 695 q 708 677 708 654 l 708 654 q 708 632 715 612 q 721 591 736 564 q 750 537 774 495 l 774 495 q 800 450 820 408 q 839 365 850 324 q 861 282 861 239 l 861 239 q 861 199 851 162 q 841 124 821 93 q 800 61 768 38 q 736 14 691 1 q 646 -12 589 -12 z"},"ൖ":{"ha":646,"x_min":34,"x_max":612,"o":"m 203 165 l 203 165 q 203 138 212 116 q 221 93 241 80 q 261 67 296 67 l 296 67 q 341 67 356 87 q 370 107 370 135 l 370 135 q 370 170 360 201 q 349 232 335 264 q 321 296 311 333 q 300 369 300 413 l 300 413 q 300 457 318 492 q 335 527 369 548 q 402 568 452 568 l 452 568 q 509 568 544 544 q 579 519 596 480 q 612 440 612 398 l 612 398 q 612 328 583 273 q 554 217 497 185 q 439 153 352 153 l 352 153 l 328 153 q 282 153 246 160 q 210 167 176 184 l 176 184 l 146 193 q 111 214 86 244 q 60 274 47 313 q 34 351 34 397 l 34 397 q 34 440 46 483 q 58 526 85 569 l 85 569 l 163 529 q 146 495 139 464 q 131 432 131 398 l 131 398 q 131 360 140 331 q 148 302 162 280 l 162 280 l 191 263 q 215 245 251 236 q 287 227 326 227 l 326 227 l 355 227 q 410 227 446 249 q 482 270 499 309 q 516 348 516 399 l 516 399 q 516 437 502 466 q 487 494 451 494 l 451 494 q 431 494 416 483 q 401 472 394 453 q 387 434 387 410 l 387 410 q 387 370 399 335 q 410 300 425 267 q 440 234 452 200 q 463 166 463 127 l 463 127 q 463 103 455 79 q 447 54 429 34 q 411 13 379 1 q 346 -12 296 -12 l 296 -12 q 242 -12 202 7 q 161 26 138 67 q 115 107 115 171 l 115 171 q 115 210 127 253 q 138 295 159 343 q 179 391 203 447 l 203 447 q 227 497 242 533 q 256 569 263 597 q 269 625 269 649 l 269 649 q 269 679 254 696 q 238 713 205 713 l 205 713 q 191 713 175 711 q 159 709 148 705 l 148 705 l 130 781 q 147 787 174 791 q 201 794 229 794 l 229 794 q 284 794 314 774 q 343 753 354 725 q 365 696 365 670 l 365 670 q 365 644 361 619 q 356 594 346 566 q 336 537 320 500 q 303 463 280 413 l 280 413 q 257 361 242 325 q 227 289 219 262 q 210 235 207 213 q 203 190 203 165 z"},"ൗ":{"ha":655,"x_min":32,"x_max":618,"o":"m 440 568 l 440 568 q 497 568 537 538 q 576 507 597 449 q 618 391 618 307 l 618 307 q 618 198 589 128 q 560 57 504 23 q 447 -12 364 -12 l 364 -12 q 313 -12 267 -2 q 220 8 176 32 l 176 32 l 219 106 q 249 91 283 81 q 317 70 358 70 l 358 70 q 418 70 454 97 q 489 124 504 177 q 519 229 519 306 l 519 306 q 519 399 496 445 q 472 490 433 490 l 433 490 q 415 490 404 484 q 393 477 385 466 l 385 466 q 375 452 371 429 q 367 406 367 357 l 367 357 l 367 261 l 271 261 l 271 349 q 271 395 268 421 q 265 446 255 461 l 255 461 q 247 476 234 483 q 220 490 204 490 l 204 490 q 167 490 148 460 q 129 430 129 387 l 129 387 q 129 354 133 327 q 137 299 143 277 l 143 277 l 52 257 q 43 287 38 322 q 32 357 32 390 l 32 390 q 32 438 50 479 q 67 519 103 544 q 139 568 195 568 l 195 568 q 241 568 272 550 q 302 531 323 496 l 323 496 l 310 497 q 334 536 366 552 q 397 568 440 568 z"},"൘":{"ha":1042,"x_min":36,"x_max":1001,"o":"m 516 -12 l 516 -12 q 470 -12 434 9 q 398 29 371 73 l 371 73 l 384 71 q 359 31 326 10 q 293 -12 240 -12 l 240 -12 q 176 -12 130 22 q 84 56 60 117 q 36 177 36 257 l 36 257 q 36 328 51 383 q 66 438 93 483 q 119 527 153 566 l 153 566 l 226 507 q 200 479 180 443 q 159 407 147 362 q 135 317 135 260 l 135 260 q 135 198 150 155 q 164 111 190 89 q 215 67 245 67 l 245 67 q 267 67 282 75 q 296 83 306 97 l 306 97 q 320 118 325 148 q 330 178 330 228 l 330 228 l 330 556 l 426 556 l 426 230 q 426 180 432 150 q 437 120 451 99 l 451 99 q 462 84 479 76 q 495 67 517 67 l 517 67 q 541 67 557 75 q 573 83 584 98 l 584 98 q 597 117 602 147 q 606 176 606 225 l 606 225 l 606 556 l 703 556 l 703 252 l 660 71 q 636 31 602 10 q 568 -12 516 -12 z m 797 -12 l 797 -12 q 748 -12 712 8 q 676 28 648 73 l 648 73 l 614 229 l 614 546 l 703 546 l 703 237 q 703 183 709 150 q 714 117 729 96 l 729 96 q 740 82 755 75 q 770 67 791 67 l 791 67 q 825 67 850 94 q 875 121 889 177 q 903 232 903 317 l 903 317 q 903 407 889 478 q 874 549 845 603 q 816 657 773 693 q 729 728 671 746 q 612 764 539 764 l 539 764 q 485 764 433 758 q 381 751 336 739 l 336 739 l 322 819 q 359 828 393 834 q 427 840 463 843 q 499 845 541 845 l 541 845 q 636 845 711 822 q 785 799 840 756 q 894 712 930 648 q 966 583 984 501 q 1001 419 1001 319 l 1001 319 q 1001 205 978 132 q 954 58 908 23 q 862 -12 797 -12 z"},"൙":{"ha":970,"x_min":36,"x_max":950,"o":"m 313 568 l 313 568 q 387 568 442 544 q 496 519 532 475 q 568 430 586 369 q 604 308 604 235 l 604 235 q 604 143 581 89 q 558 34 517 11 q 476 -12 422 -12 l 422 -12 q 364 -12 328 11 q 292 34 276 70 q 259 106 259 147 l 259 147 q 259 200 278 235 q 296 270 328 291 l 328 291 q 349 307 376 316 q 402 324 438 328 q 474 332 525 332 l 525 332 l 645 332 l 645 255 l 529 255 q 471 255 441 249 q 410 242 389 227 l 389 227 q 372 215 363 196 q 354 176 354 148 l 354 148 q 354 111 372 89 q 389 66 423 66 l 423 66 q 451 66 470 83 q 489 100 499 138 q 509 175 509 237 l 509 237 q 509 255 508 272 q 507 288 505 300 l 505 300 l 502 320 q 496 367 474 406 q 451 444 413 467 q 374 489 319 489 l 319 489 q 260 489 219 464 q 178 438 157 392 q 136 345 136 281 l 136 281 q 136 228 147 186 q 158 144 180 111 q 201 78 230 50 l 230 50 l 164 -10 q 129 21 100 64 q 71 106 54 162 q 36 217 36 286 l 36 286 q 36 343 53 394 q 70 445 104 484 q 138 523 190 546 q 242 568 313 568 z m 804 556 l 804 556 q 856 556 888 536 q 920 516 935 484 q 950 451 950 413 l 950 413 q 950 374 936 343 q 922 312 896 292 l 896 292 q 879 278 857 270 q 835 262 806 259 q 776 255 736 255 l 736 255 l 564 255 l 567 332 l 747 332 q 784 332 803 338 q 822 343 834 352 l 834 352 q 847 362 853 377 q 859 392 859 414 l 859 414 q 859 444 845 462 q 831 480 803 480 l 803 480 q 773 480 757 459 q 741 438 741 403 l 741 403 q 741 366 752 340 q 763 313 779 291 l 779 291 l 692 285 q 676 309 665 342 q 653 375 653 413 l 653 413 q 653 459 673 491 q 692 523 727 540 q 761 556 804 556 z"},"൚":{"ha":921,"x_min":36,"x_max":869,"o":"m 597 568 l 597 568 q 668 568 718 550 q 768 532 800 498 l 800 498 q 824 474 840 443 q 855 411 862 369 q 869 327 869 271 l 869 271 l 869 0 l 437 0 l 437 74 q 484 122 521 177 q 558 232 580 290 q 601 347 601 403 l 601 403 q 601 429 596 449 q 591 468 579 479 q 566 490 545 490 l 545 490 q 518 490 496 471 q 473 452 459 421 l 459 421 q 447 391 443 356 q 438 320 438 265 l 438 265 l 438 230 l 342 230 l 342 324 q 342 383 336 413 q 330 442 315 460 l 315 460 q 305 474 290 482 q 274 489 253 489 l 253 489 q 221 489 194 467 q 167 445 151 402 q 135 358 135 296 l 135 296 q 135 240 147 195 q 159 150 180 114 q 200 78 226 49 l 226 49 l 153 -9 q 120 29 94 73 q 67 117 52 173 q 36 229 36 299 l 36 299 q 36 379 62 440 q 87 500 135 534 q 183 568 251 568 l 251 568 q 290 568 319 557 q 347 545 370 522 q 392 498 412 462 l 412 462 l 380 456 q 402 495 434 520 q 466 545 507 557 q 547 568 597 568 z m 697 387 l 697 387 q 697 329 678 275 q 658 220 623 167 q 587 113 539 58 l 539 58 l 525 73 q 547 75 575 76 q 603 77 619 77 l 619 77 l 773 77 l 773 273 q 773 339 761 383 q 749 426 724 453 q 699 480 657 493 l 657 493 l 658 497 q 675 478 686 451 q 697 423 697 387 z"},"൛":{"ha":828,"x_min":61,"x_max":791,"o":"m 533 -12 l 533 -12 q 467 -12 420 10 q 372 32 341 70 q 310 108 296 159 q 281 209 281 266 l 281 266 q 281 321 293 366 q 304 410 324 446 q 344 482 369 513 l 369 513 l 366 479 l 157 479 l 157 0 l 61 0 l 61 556 l 424 556 l 467 498 q 445 476 425 445 q 405 413 393 372 q 380 330 380 275 l 380 275 q 380 211 399 164 q 418 117 453 92 q 487 67 534 67 l 534 67 q 582 67 618 93 q 653 118 673 165 q 692 211 692 274 l 692 274 q 692 327 680 369 q 668 411 647 445 q 626 479 597 506 l 597 506 l 664 566 q 700 536 729 494 q 757 451 774 396 q 791 340 791 270 l 791 270 q 791 213 776 162 q 760 111 728 72 q 696 33 648 11 q 599 -12 533 -12 z"},"൜":{"ha":1296,"x_min":36,"x_max":1259,"o":"m 780 568 l 780 568 q 824 568 856 556 q 888 544 910 521 l 910 521 q 928 503 939 479 q 950 454 956 420 q 961 386 961 336 l 961 336 l 961 244 q 961 184 966 152 q 970 119 983 98 l 983 98 q 993 83 1010 75 q 1026 67 1052 67 l 1052 67 q 1084 67 1109 90 q 1133 112 1147 155 q 1161 197 1161 259 l 1161 259 q 1161 316 1149 362 q 1137 408 1116 445 q 1095 481 1069 511 l 1069 511 l 1141 569 q 1176 531 1203 486 q 1229 440 1244 384 q 1259 327 1259 254 l 1259 254 q 1259 170 1234 111 q 1208 51 1161 20 q 1114 -12 1050 -12 l 1050 -12 q 1003 -12 969 2 q 935 15 912 40 l 912 40 q 894 59 883 85 q 872 111 868 144 q 864 176 864 214 l 864 214 l 864 333 q 864 381 860 412 q 855 442 841 461 l 841 461 q 832 475 817 482 q 801 489 780 489 l 780 489 q 761 489 745 483 q 729 476 720 462 l 720 462 q 706 443 701 413 q 696 382 696 333 l 696 333 l 696 222 q 696 174 691 139 q 685 103 674 79 q 663 54 646 36 l 646 36 q 624 13 593 1 q 561 -12 516 -12 l 516 -12 q 471 -12 440 1 q 408 13 386 36 l 386 36 q 369 54 358 79 q 346 104 341 139 q 335 173 335 221 l 335 221 l 335 313 q 335 373 331 406 q 326 438 312 458 l 312 458 q 303 473 287 481 q 271 489 244 489 l 244 489 q 212 489 188 467 q 163 445 149 403 q 135 360 135 298 l 135 298 q 135 241 147 195 q 159 149 180 113 q 201 76 227 46 l 227 46 l 155 -12 q 120 26 93 72 q 66 117 51 174 q 36 230 36 302 l 36 302 q 36 385 61 445 q 86 504 134 536 q 182 568 249 568 l 249 568 q 294 568 327 555 q 360 542 382 518 l 382 518 q 403 497 413 470 q 423 443 428 410 q 432 376 432 334 l 432 334 l 432 223 q 432 175 437 145 q 441 115 454 95 l 454 95 q 464 82 480 75 q 495 67 515 67 l 515 67 q 536 67 552 74 q 567 81 576 94 l 576 94 q 590 114 595 144 q 599 174 599 222 l 599 222 l 599 333 q 599 382 605 418 q 611 453 622 478 q 633 503 650 521 l 650 521 q 671 544 703 556 q 734 568 780 568 z"},"൝":{"ha":1719,"x_min":9,"x_max":1682,"o":"m 674 568 l 674 568 q 717 568 750 556 q 782 544 804 521 l 804 521 q 821 503 832 479 q 843 454 849 420 q 855 386 855 336 l 855 336 l 855 223 q 855 175 860 145 q 864 115 877 95 l 877 95 q 887 82 903 75 q 918 67 938 67 l 938 67 q 959 67 975 74 q 990 81 999 94 l 999 94 q 1013 114 1018 144 q 1022 174 1022 222 l 1022 222 l 1022 333 q 1022 382 1028 418 q 1034 453 1045 478 q 1056 503 1073 521 l 1073 521 q 1094 544 1126 556 q 1157 568 1203 568 l 1203 568 q 1247 568 1279 556 q 1311 544 1333 521 l 1333 521 q 1351 503 1362 479 q 1373 454 1379 420 q 1384 386 1384 336 l 1384 336 l 1384 244 q 1384 184 1389 152 q 1393 119 1406 98 l 1406 98 q 1416 83 1433 75 q 1449 67 1475 67 l 1475 67 q 1507 67 1532 90 q 1556 112 1570 155 q 1584 197 1584 259 l 1584 259 q 1584 316 1572 362 q 1560 408 1539 445 q 1518 481 1492 511 l 1492 511 l 1564 569 q 1599 531 1626 486 q 1652 440 1667 384 q 1682 327 1682 254 l 1682 254 q 1682 170 1657 111 q 1631 51 1584 20 q 1537 -12 1473 -12 l 1473 -12 q 1426 -12 1392 2 q 1358 15 1335 40 l 1335 40 q 1317 59 1306 85 q 1295 111 1291 144 q 1287 176 1287 214 l 1287 214 l 1287 333 q 1287 381 1283 412 q 1278 442 1264 461 l 1264 461 q 1255 475 1240 482 q 1224 489 1203 489 l 1203 489 q 1184 489 1168 483 q 1152 476 1143 462 l 1143 462 q 1129 443 1124 413 q 1119 382 1119 333 l 1119 333 l 1119 222 q 1119 174 1114 139 q 1108 103 1097 79 q 1086 54 1069 36 l 1069 36 q 1047 13 1016 1 q 984 -12 939 -12 l 939 -12 q 894 -12 863 1 q 831 13 809 36 l 809 36 q 792 54 781 79 q 769 104 764 139 q 758 173 758 221 l 758 221 l 758 334 q 758 382 754 412 q 749 442 735 461 l 735 461 q 726 475 710 482 q 694 489 674 489 l 674 489 q 654 489 639 483 q 623 476 614 462 l 614 462 q 599 443 595 413 q 590 382 590 333 l 590 333 l 590 214 q 590 144 578 105 q 566 66 541 38 l 541 38 q 518 13 486 1 q 454 -12 411 -12 l 411 -12 q 354 -12 319 12 q 284 35 261 76 l 261 76 l 275 73 q 256 46 235 27 q 213 7 186 -2 q 159 -12 123 -12 l 123 -12 q 89 -12 62 -5 q 34 2 9 15 l 9 15 l 41 89 q 59 80 80 74 q 101 68 125 68 l 125 68 q 147 68 164 75 q 181 81 193 96 l 193 96 q 208 115 214 146 q 219 177 219 235 l 219 235 l 219 555 l 316 556 l 316 228 q 316 175 322 146 q 327 116 340 97 l 340 97 q 350 83 367 75 q 383 67 404 67 l 404 67 q 427 67 444 75 q 460 83 470 97 l 470 97 q 484 117 489 147 q 493 176 493 227 l 493 227 l 493 333 q 493 382 499 418 q 505 453 516 478 q 527 503 544 521 l 544 521 q 565 544 597 556 q 628 568 674 568 z"},"൞":{"ha":1190,"x_min":36,"x_max":1163,"o":"m 313 568 l 313 568 q 387 568 442 544 q 496 519 532 475 q 568 430 586 369 q 604 308 604 235 l 604 235 q 604 143 581 89 q 558 34 517 11 q 476 -12 422 -12 l 422 -12 q 364 -12 328 11 q 292 34 276 70 q 259 106 259 147 l 259 147 q 259 200 278 235 q 296 270 328 291 l 328 291 q 349 307 376 316 q 402 324 438 328 q 474 332 525 332 l 525 332 l 556 332 l 556 255 l 529 255 q 471 255 441 249 q 410 242 389 227 l 389 227 q 372 215 363 196 q 354 176 354 148 l 354 148 q 354 111 372 89 q 389 66 423 66 l 423 66 q 451 66 470 83 q 489 100 499 138 q 509 175 509 237 l 509 237 q 509 255 508 272 q 507 288 505 300 l 505 300 l 502 320 q 496 367 474 406 q 451 444 413 467 q 374 489 319 489 l 319 489 q 260 489 219 464 q 178 438 157 392 q 136 345 136 281 l 136 281 q 136 228 147 186 q 158 144 180 111 q 201 78 230 50 l 230 50 l 164 -10 q 129 21 100 64 q 71 106 54 162 q 36 217 36 286 l 36 286 q 36 343 53 394 q 70 445 104 484 q 138 523 190 546 q 242 568 313 568 z m 988 206 l 988 206 q 927 206 889 231 q 850 256 832 296 q 813 336 813 379 l 813 379 q 813 420 825 451 q 837 481 850 496 l 850 496 l 865 479 l 683 479 l 722 496 q 735 479 744 455 q 753 430 753 401 l 753 401 q 753 345 730 313 q 706 281 666 268 q 626 255 576 255 l 576 255 l 553 255 l 553 332 l 576 332 q 604 332 624 339 q 644 345 655 361 q 665 376 665 403 l 665 403 q 665 428 657 447 q 649 466 638 481 l 638 481 l 665 556 l 907 556 l 942 502 q 928 482 918 455 q 907 428 907 390 l 907 390 q 907 342 927 313 q 947 283 987 283 l 987 283 q 1013 283 1031 296 q 1049 309 1059 332 q 1068 355 1068 385 l 1068 385 q 1068 428 1055 458 q 1042 488 1019 516 l 1019 516 l 1089 565 q 1121 529 1142 485 q 1163 440 1163 383 l 1163 383 q 1163 330 1141 290 q 1119 250 1080 228 q 1041 206 988 206 z"},"ൟ":{"ha":1181,"x_min":25,"x_max":1156,"o":"m 25 269 l 25 269 q 25 329 59 365 q 92 400 146 400 l 146 400 q 201 400 235 365 q 269 329 269 269 l 269 269 q 269 208 236 173 q 202 137 146 137 l 146 137 q 91 137 58 173 q 25 208 25 269 z m 99 270 l 99 270 q 99 240 111 223 q 123 205 146 205 l 146 205 q 171 205 183 223 q 195 240 195 269 l 195 269 q 195 298 183 315 q 170 332 146 332 l 146 332 q 123 332 111 316 q 99 299 99 270 z m 912 269 l 912 269 q 912 329 946 365 q 979 400 1033 400 l 1033 400 q 1088 400 1122 365 q 1156 329 1156 269 l 1156 269 q 1156 208 1123 173 q 1089 137 1033 137 l 1033 137 q 978 137 945 173 q 912 208 912 269 z m 986 270 l 986 270 q 986 240 998 223 q 1010 205 1033 205 l 1033 205 q 1058 205 1070 223 q 1082 240 1082 269 l 1082 269 q 1082 298 1070 315 q 1057 332 1033 332 l 1033 332 q 1011 332 999 316 q 986 299 986 270 z m 583 568 l 583 568 q 657 568 711 544 q 765 520 802 476 q 838 432 856 372 q 874 312 874 240 l 874 240 q 874 148 851 93 q 828 37 787 13 q 745 -12 691 -12 l 691 -12 q 632 -12 595 16 q 558 44 540 93 q 522 141 522 200 l 522 200 q 522 297 564 351 q 605 404 679 404 l 679 404 q 722 404 753 383 q 784 362 806 326 q 827 290 839 242 l 839 242 l 806 233 q 800 254 786 276 q 772 298 751 314 q 730 329 702 329 l 702 329 q 657 329 637 295 q 617 260 617 199 l 617 199 q 617 157 625 127 q 633 96 650 80 q 667 64 693 64 l 693 64 q 721 64 741 82 q 760 100 771 140 q 781 179 781 244 l 781 244 q 781 251 780 271 q 778 290 775 309 l 775 309 q 774 314 774 322 q 774 330 772 334 l 772 334 q 766 375 743 410 q 720 445 682 467 q 643 489 589 489 l 589 489 q 530 489 489 464 q 448 438 427 392 q 405 345 405 281 l 405 281 q 405 228 417 186 q 428 144 450 111 q 471 78 500 50 l 500 50 l 433 -10 q 398 21 369 64 q 340 106 323 162 q 306 217 306 286 l 306 286 q 306 343 323 394 q 339 445 373 484 q 407 523 460 546 q 512 568 583 568 z"},"ൠ":{"ha":773,"x_min":34,"x_max":739,"o":"m 575 568 l 575 568 q 651 568 695 514 q 739 459 739 359 l 739 359 q 739 293 720 244 q 701 195 663 160 l 663 160 q 635 132 598 115 q 560 98 513 91 l 513 91 l 422 95 l 349 94 l 269 89 q 219 96 183 112 q 146 128 117 155 l 117 155 q 77 190 56 241 q 34 291 34 357 l 34 357 q 34 420 55 468 q 76 515 115 542 q 154 568 208 568 l 208 568 q 259 568 292 547 q 325 525 341 488 q 357 451 357 407 l 357 407 q 357 355 341 319 q 324 283 293 264 q 261 245 213 245 l 213 245 q 181 245 154 257 q 126 268 104 286 q 81 303 63 322 l 63 322 l 90 389 q 105 369 120 353 q 134 337 152 328 q 169 319 193 319 l 193 319 q 230 319 248 342 q 265 365 265 409 l 265 409 q 265 446 250 469 q 234 492 203 492 l 203 492 q 177 492 159 477 q 141 462 132 434 q 123 405 123 365 l 123 365 q 123 348 125 332 q 127 316 131 301 l 131 301 l 127 282 q 138 248 161 224 q 183 200 214 186 q 245 171 283 165 q 320 158 363 158 l 363 158 l 410 158 q 452 158 490 165 q 528 171 560 186 q 591 200 614 224 q 636 248 647 283 l 647 283 l 643 302 q 646 315 648 332 q 650 348 650 363 l 650 363 q 650 406 642 435 q 634 464 618 478 q 601 492 576 492 l 576 492 q 543 492 526 469 q 509 445 509 404 l 509 404 q 509 364 526 342 q 542 319 579 319 l 579 319 q 603 319 621 328 q 639 337 654 353 q 668 368 683 387 l 683 387 l 710 321 q 693 303 671 286 q 649 268 621 257 q 593 245 560 245 l 560 245 q 513 245 481 265 q 449 284 433 320 q 417 355 417 404 l 417 404 q 417 450 435 488 q 452 525 487 547 q 522 568 575 568 z m 388 -224 l 388 -224 q 286 -224 217 -204 q 147 -184 111 -142 q 75 -100 75 -35 l 75 -35 q 75 9 96 41 q 116 73 152 93 q 187 113 234 123 q 281 133 334 133 l 334 133 l 437 133 q 492 133 539 123 q 586 113 622 93 q 658 73 679 41 q 699 9 699 -36 l 699 -36 q 699 -97 666 -139 q 632 -181 563 -202 q 494 -224 388 -224 z m 388 -147 l 388 -147 q 467 -147 514 -133 q 561 -120 582 -94 q 603 -69 603 -33 l 603 -33 q 603 1 587 23 q 570 45 542 58 q 513 71 476 77 q 439 82 396 82 l 396 82 l 378 82 q 319 82 273 71 q 226 60 199 36 q 171 11 171 -32 l 171 -32 q 171 -71 192 -96 q 213 -121 261 -134 q 309 -147 388 -147 z m 456 44 l 456 44 q 484 44 501 34 q 518 23 527 6 q 536 -11 539 -30 q 542 -50 542 -68 l 542 -68 l 542 -98 l 476 -98 l 476 -81 q 476 -54 471 -40 q 466 -26 448 -26 l 448 -26 q 431 -26 425 -40 q 419 -55 419 -79 l 419 -79 l 419 -98 l 354 -98 l 354 -79 q 354 -55 349 -40 q 343 -26 325 -26 l 325 -26 q 307 -26 302 -41 q 297 -57 297 -81 l 297 -81 l 297 -98 l 232 -98 l 232 -68 q 232 -51 235 -31 q 238 -12 247 5 q 255 22 273 33 q 290 44 318 44 l 318 44 q 344 44 360 34 q 375 24 386 8 l 386 8 q 400 26 417 35 q 433 44 456 44 z"},"ൡ":{"ha":1135,"x_min":38,"x_max":1112,"o":"m 313 568 l 313 568 q 383 568 427 544 q 470 519 505 472 l 505 472 l 519 403 l 537 247 l 537 0 l 441 0 l 441 310 q 441 371 433 404 q 424 436 406 456 l 406 456 q 391 472 369 481 q 347 489 313 489 l 313 489 q 258 489 217 459 q 175 429 152 374 q 128 319 128 246 l 128 246 l 128 226 q 128 167 139 132 q 149 96 167 81 q 185 65 209 65 l 209 65 q 227 65 241 75 q 254 85 262 106 q 269 127 269 160 l 269 160 q 269 211 252 234 q 234 256 200 256 l 200 256 q 171 256 146 240 q 120 224 94 192 l 94 192 l 76 259 q 100 287 139 310 q 178 332 223 332 l 223 332 q 267 332 299 313 q 330 294 347 257 q 363 220 363 165 l 363 165 q 363 107 345 68 q 327 28 293 8 q 259 -12 211 -12 l 211 -12 q 165 -12 126 13 q 86 38 62 94 q 38 149 38 242 l 38 242 q 38 351 75 424 q 111 496 173 532 q 235 568 313 568 z m 678 568 l 678 568 q 760 568 815 537 q 870 506 902 453 q 934 400 944 334 l 944 334 q 949 309 951 283 q 953 256 953 228 l 953 228 q 953 142 932 89 q 910 36 870 12 q 830 -12 773 -12 l 773 -12 q 716 -12 680 13 q 643 38 626 80 q 608 121 608 173 l 608 173 q 608 276 671 331 q 734 386 839 386 l 839 386 q 852 386 864 386 q 875 385 885 383 l 885 383 l 907 382 q 970 370 1016 331 q 1062 291 1087 230 q 1112 169 1112 92 l 1112 92 q 1112 27 1096 -26 q 1080 -80 1047 -119 q 1013 -158 961 -179 q 908 -201 836 -201 l 836 -201 q 799 -201 768 -195 q 736 -190 708 -180 l 708 -180 l 736 -105 q 760 -113 785 -117 q 809 -121 837 -121 l 837 -121 q 890 -121 925 -103 q 960 -86 981 -55 q 1001 -25 1010 14 q 1018 53 1018 96 l 1018 96 q 1018 146 1008 185 q 998 223 978 251 q 958 278 929 295 l 929 295 l 898 301 q 884 306 869 309 q 854 311 842 311 l 842 311 q 798 311 767 296 q 736 280 720 250 q 703 220 703 174 l 703 174 q 703 143 711 119 q 718 94 734 80 q 749 65 775 65 l 775 65 q 818 65 839 103 q 860 140 860 232 l 860 232 q 860 261 857 291 q 854 320 847 348 l 847 348 l 843 368 q 831 404 810 431 q 788 458 756 474 q 724 489 679 489 l 679 489 q 652 489 628 482 q 603 475 583 457 l 583 457 q 567 444 557 424 q 547 403 542 373 q 537 342 537 295 l 537 295 l 537 208 l 475 460 q 496 492 524 517 q 552 541 590 555 q 627 568 678 568 z"},"ൢ":{"ha":0,"x_min":-711,"x_max":-31,"o":"m -513 20 l -513 20 q -466 20 -428 5 q -391 -11 -364 -50 l -364 -50 l -333 -161 l -333 -332 l -414 -332 l -414 -174 q -414 -135 -420 -109 q -426 -83 -442 -68 l -442 -68 q -454 -56 -471 -50 q -489 -44 -513 -44 l -513 -44 q -539 -44 -563 -52 q -587 -61 -606 -80 q -625 -100 -634 -134 l -634 -134 q -636 -144 -637 -155 q -638 -166 -638 -180 l -638 -180 q -638 -236 -622 -255 q -606 -275 -586 -275 l -586 -275 q -564 -275 -551 -260 q -539 -245 -539 -213 l -539 -213 q -539 -182 -551 -167 q -564 -153 -587 -153 l -587 -153 q -611 -153 -629 -165 q -647 -177 -667 -199 l -667 -199 l -683 -148 q -656 -122 -628 -106 q -601 -91 -571 -91 l -571 -91 q -518 -91 -492 -123 q -466 -156 -466 -212 l -466 -212 q -466 -270 -495 -303 q -525 -337 -584 -337 l -584 -337 q -643 -337 -677 -294 q -712 -252 -712 -176 l -712 -176 q -712 -113 -685 -69 q -658 -26 -613 -3 q -568 20 -513 20 z m -227 20 l -227 20 q -168 20 -124 -4 q -80 -28 -55 -72 q -31 -116 -31 -177 l -31 -177 q -31 -261 -67 -299 q -103 -337 -159 -337 l -159 -337 q -200 -337 -226 -319 q -253 -302 -266 -272 q -279 -243 -279 -209 l -279 -209 q -279 -167 -265 -138 q -252 -109 -227 -94 q -202 -80 -168 -80 l -168 -80 q -140 -80 -119 -92 q -98 -105 -82 -129 q -67 -154 -55 -190 l -55 -190 l -83 -195 q -97 -167 -112 -153 q -127 -140 -149 -140 l -149 -140 q -178 -140 -192 -159 q -206 -178 -206 -209 l -206 -209 q -206 -240 -193 -257 q -181 -274 -157 -274 l -157 -274 q -132 -274 -119 -249 q -106 -225 -106 -179 l -106 -179 q -106 -169 -106 -157 q -107 -146 -108 -137 l -108 -137 l -112 -117 q -119 -97 -135 -80 q -152 -64 -174 -54 q -197 -44 -226 -44 l -226 -44 q -252 -44 -270 -50 q -289 -57 -301 -68 l -301 -68 q -318 -85 -326 -110 q -334 -135 -333 -181 l -333 -181 l -401 -121 q -396 -74 -371 -43 q -347 -12 -309 4 q -272 20 -227 20 z"},"ൣ":{"ha":0,"x_min":-711,"x_max":73,"o":"m -513 20 l -513 20 q -466 20 -428 5 q -391 -11 -364 -50 l -364 -50 l -333 -161 l -333 -332 l -414 -332 l -414 -174 q -414 -135 -420 -109 q -426 -83 -442 -68 l -442 -68 q -454 -56 -471 -50 q -489 -44 -513 -44 l -513 -44 q -539 -44 -563 -52 q -587 -61 -606 -80 q -625 -100 -634 -134 l -634 -134 q -636 -144 -637 -155 q -638 -166 -638 -180 l -638 -180 q -638 -236 -622 -255 q -606 -275 -586 -275 l -586 -275 q -564 -275 -551 -260 q -539 -245 -539 -213 l -539 -213 q -539 -182 -551 -167 q -564 -153 -587 -153 l -587 -153 q -611 -153 -629 -165 q -647 -177 -667 -199 l -667 -199 l -683 -148 q -656 -122 -628 -106 q -601 -91 -571 -91 l -571 -91 q -518 -91 -492 -123 q -466 -156 -466 -212 l -466 -212 q -466 -270 -495 -303 q -525 -337 -584 -337 l -584 -337 q -643 -337 -677 -294 q -712 -252 -712 -176 l -712 -176 q -712 -113 -685 -69 q -658 -26 -613 -3 q -568 20 -513 20 z m -227 20 l -227 20 q -174 20 -130 -1 q -87 -23 -61 -66 q -35 -110 -35 -175 l -35 -175 q -35 -231 -50 -267 q -65 -303 -92 -320 q -120 -337 -158 -337 l -158 -337 q -200 -337 -227 -320 q -254 -304 -266 -276 q -279 -249 -279 -216 l -279 -216 q -279 -155 -240 -116 q -201 -77 -119 -77 l -119 -77 q -109 -77 -97 -77 q -86 -78 -73 -80 l -73 -80 q -35 -88 -1 -109 q 32 -131 52 -166 q 72 -202 72 -257 l 72 -257 q 72 -289 66 -316 q 60 -343 49 -362 l 49 -362 l -19 -336 q -11 -319 -7 -299 q -3 -280 -3 -258 l -3 -258 q -3 -213 -18 -187 q -33 -161 -63 -146 l -63 -146 l -83 -142 q -92 -140 -101 -138 q -111 -137 -120 -137 l -120 -137 q -164 -137 -185 -159 q -206 -182 -206 -217 l -206 -217 q -206 -244 -194 -259 q -183 -274 -158 -274 l -158 -274 q -133 -274 -120 -249 q -108 -225 -108 -174 l -108 -174 q -108 -160 -109 -146 q -110 -132 -115 -120 l -115 -120 l -119 -103 q -128 -84 -144 -71 q -161 -58 -181 -51 q -202 -44 -226 -44 l -226 -44 q -252 -44 -270 -50 q -289 -57 -301 -68 l -301 -68 q -318 -85 -326 -110 q -334 -135 -333 -181 l -333 -181 l -400 -121 q -397 -86 -382 -59 q -367 -32 -343 -15 q -319 2 -289 11 q -260 20 -227 20 z"},"൦":{"ha":496,"x_min":38,"x_max":458,"o":"m 249 41 l 249 41 q 184 41 137 69 q 89 97 64 151 q 38 205 38 283 l 38 283 q 38 360 65 414 q 91 467 138 495 q 185 523 248 523 l 248 523 q 313 523 361 495 q 408 467 433 414 q 458 360 458 283 l 458 283 q 458 206 432 152 q 406 97 359 69 q 312 41 249 41 z m 248 120 l 248 120 q 280 120 306 137 q 331 153 346 189 q 361 225 361 283 l 361 283 q 361 368 329 407 q 296 445 248 445 l 248 445 q 200 445 168 407 q 135 368 135 281 l 135 281 q 135 197 168 159 q 201 120 248 120 z"},"൧":{"ha":775,"x_min":11,"x_max":720,"o":"m 334 -122 l 334 -201 l 226 -201 q 169 -201 132 -193 q 94 -185 68 -170 l 68 -170 q 41 -152 26 -125 q 11 -99 11 -64 l 11 -64 q 11 -28 25 0 q 39 28 67 47 l 67 47 q 82 57 101 64 q 120 70 148 74 q 175 77 214 77 l 214 77 l 377 77 l 394 0 l 225 0 q 186 0 168 -2 q 150 -5 137 -11 l 137 -11 q 122 -18 115 -30 q 108 -43 108 -59 l 108 -59 q 108 -88 131 -105 l 131 -105 q 144 -113 167 -117 q 189 -122 228 -122 l 228 -122 l 334 -122 z m 505 568 l 505 568 q 559 568 597 554 q 634 540 660 515 l 660 515 q 694 481 707 433 q 720 384 720 313 l 720 313 l 720 0 l 292 0 l 292 311 q 292 361 298 398 q 303 435 316 464 q 328 492 351 515 l 351 515 q 376 539 414 554 q 452 568 505 568 z m 506 490 l 506 490 q 476 490 456 481 q 435 472 421 457 l 421 457 q 404 436 396 402 q 388 367 388 304 l 388 304 l 388 77 l 623 77 l 623 300 q 623 364 615 400 q 607 435 590 456 l 590 456 q 576 472 555 481 q 534 490 506 490 z"},"൨":{"ha":733,"x_min":36,"x_max":716,"o":"m 294 568 l 294 568 q 360 568 408 547 q 455 525 486 487 q 517 448 532 398 q 546 348 546 291 l 546 291 q 546 235 535 191 q 523 146 504 111 q 484 75 459 43 l 459 43 l 462 77 l 716 77 l 716 0 l 403 0 l 361 59 q 383 81 403 112 q 423 143 435 185 q 447 227 447 281 l 447 281 q 447 346 428 393 q 409 439 375 464 q 341 489 294 489 l 294 489 q 246 489 211 464 q 175 438 156 392 q 136 345 136 282 l 136 282 q 136 230 148 188 q 159 145 181 112 q 202 78 231 51 l 231 51 l 164 -10 q 129 21 100 63 q 71 105 54 161 q 36 217 36 286 l 36 286 q 36 344 52 395 q 67 446 99 485 q 131 524 180 546 q 228 568 294 568 z"},"൩":{"ha":922,"x_min":36,"x_max":904,"o":"m 250 568 l 250 568 q 288 568 314 557 q 340 546 360 527 q 380 507 397 482 l 397 482 l 384 483 q 413 529 449 549 q 484 568 535 568 l 535 568 q 602 568 649 534 q 695 500 720 440 q 744 380 744 303 l 744 303 q 744 244 734 199 q 723 153 704 116 q 684 78 656 41 l 656 41 l 639 0 l 602 0 l 560 51 q 586 85 605 121 q 623 156 634 199 q 645 241 645 298 l 645 298 q 645 356 630 399 q 615 442 589 466 q 563 489 529 489 l 529 489 q 508 489 492 482 q 476 475 465 461 l 465 461 q 451 443 445 413 q 438 382 438 327 l 438 327 l 438 0 l 342 0 l 342 324 q 342 383 336 413 q 330 442 315 460 l 315 460 q 305 474 290 482 q 274 489 253 489 l 253 489 q 221 489 194 467 q 167 445 151 402 q 135 358 135 296 l 135 296 q 135 240 147 195 q 159 150 180 114 q 200 78 226 49 l 226 49 l 153 -9 q 120 29 94 73 q 67 117 52 173 q 36 229 36 299 l 36 299 q 36 379 62 440 q 87 500 135 534 q 182 568 250 568 z m 618 0 l 665 77 l 904 77 l 904 0 l 618 0 z"},"൪":{"ha":683,"x_min":36,"x_max":678,"o":"m 313 568 l 313 568 q 381 568 430 546 q 479 523 517 483 l 517 483 q 565 435 591 368 q 616 300 616 221 l 616 221 q 616 141 594 90 q 572 38 530 13 q 488 -12 428 -12 l 428 -12 q 369 -12 330 13 q 290 38 270 82 q 250 125 250 179 l 250 179 q 250 241 273 290 q 295 339 341 384 q 387 429 456 478 l 456 478 q 504 511 531 533 q 558 554 569 574 q 580 594 580 620 l 580 620 q 580 640 573 659 q 566 677 555 693 l 555 693 l 644 734 q 660 711 669 685 q 678 658 678 626 l 678 626 q 678 579 658 545 q 638 511 600 482 q 561 452 505 415 l 505 415 q 454 378 419 343 q 384 307 366 267 q 347 227 347 178 l 347 178 q 347 121 369 93 q 390 65 428 65 l 428 65 q 457 65 477 80 q 497 94 507 127 q 516 160 516 214 l 516 214 q 516 278 497 338 q 478 397 438 437 l 438 437 q 417 461 386 476 q 355 490 318 490 l 318 490 q 260 490 220 465 q 179 440 158 394 q 136 347 136 282 l 136 282 q 136 228 147 186 q 158 144 180 111 q 201 78 230 51 l 230 51 l 164 -10 q 129 21 100 64 q 71 106 54 162 q 36 217 36 286 l 36 286 q 36 343 53 394 q 70 445 104 484 q 137 523 189 546 q 241 568 313 568 z"},"൫":{"ha":859,"x_min":42,"x_max":817,"o":"m 437 725 l 437 725 q 533 725 605 693 q 676 660 723 601 q 770 541 794 460 q 817 379 817 282 l 817 282 q 817 209 804 135 q 790 61 757 -10 l 757 -10 l 670 23 q 688 63 699 106 q 710 149 716 194 q 721 238 721 282 l 721 282 q 721 360 704 426 q 686 492 652 541 q 617 589 564 617 q 510 644 437 644 l 437 644 q 346 644 279 598 q 212 551 176 465 q 139 378 139 256 l 139 256 q 139 184 152 120 q 164 56 192 8 q 219 -41 264 -69 q 308 -97 373 -97 l 373 -97 q 458 -97 498 -55 q 538 -13 538 63 l 538 63 q 538 103 526 137 q 514 171 488 192 q 461 212 418 212 l 418 212 l 407 212 l 407 288 l 419 288 q 450 288 470 294 q 490 299 504 311 l 504 311 q 517 323 523 339 q 529 354 529 378 l 529 378 q 529 418 507 441 q 485 463 445 463 l 445 463 q 403 463 376 438 q 348 413 335 370 q 322 327 322 272 l 322 272 q 322 210 339 148 q 355 86 388 33 l 388 33 l 302 -8 q 266 57 246 127 q 225 196 225 275 l 225 275 q 225 355 252 415 q 279 475 329 509 q 379 543 448 543 l 448 543 q 508 543 548 522 q 587 500 607 465 q 626 429 626 385 l 626 385 q 626 354 617 327 q 607 300 586 280 q 565 259 528 245 l 528 245 l 520 254 q 574 232 605 181 q 635 130 635 61 l 635 61 q 635 -17 604 -70 q 572 -123 514 -150 q 456 -178 375 -178 l 375 -178 q 273 -178 198 -128 q 123 -78 83 18 q 42 114 42 252 l 42 252 q 42 372 74 461 q 105 549 160 608 q 214 667 286 696 q 357 725 437 725 z"},"൬":{"ha":1042,"x_min":36,"x_max":1001,"o":"m 516 568 l 516 568 q 568 568 602 547 q 636 526 660 486 l 660 486 l 703 304 l 703 0 l 606 0 l 606 331 q 606 380 602 410 q 597 440 584 459 l 584 459 q 573 474 557 482 q 541 489 517 489 l 517 489 q 495 489 479 481 q 462 473 451 458 l 451 458 q 437 437 432 407 q 426 377 426 326 l 426 326 l 426 0 l 330 0 l 330 328 q 330 378 325 409 q 320 439 306 460 l 306 460 q 296 474 282 482 q 267 489 245 489 l 245 489 q 215 489 190 467 q 164 445 150 402 q 135 359 135 296 l 135 296 q 135 240 147 195 q 159 150 180 115 q 200 79 226 49 l 226 49 l 153 -9 q 119 29 93 74 q 66 118 51 174 q 36 229 36 299 l 36 299 q 36 379 60 440 q 84 500 130 534 q 176 568 240 568 l 240 568 q 293 568 326 547 q 359 525 384 485 l 384 485 l 371 483 q 398 528 434 548 q 470 568 516 568 z m 797 568 l 797 568 q 895 568 948 487 q 1001 405 1001 229 l 1001 229 q 1001 83 969 -12 q 937 -108 869 -154 q 800 -201 689 -201 l 689 -201 q 668 -201 643 -199 q 617 -198 596 -193 l 596 -193 l 603 -114 q 621 -118 641 -119 q 661 -121 682 -121 l 682 -121 q 748 -121 791 -97 q 833 -73 858 -27 q 882 18 892 82 q 902 146 902 227 l 902 227 q 902 318 889 376 q 875 433 850 461 q 825 489 791 489 l 791 489 q 770 489 755 482 q 740 475 729 461 l 729 461 q 714 440 709 407 q 703 374 703 319 l 703 319 l 703 10 l 614 10 l 614 328 l 648 483 q 676 529 712 549 q 748 568 797 568 z"},"൭":{"ha":643,"x_min":37,"x_max":603,"o":"m 326 568 l 326 568 q 396 568 449 544 q 501 519 535 472 q 569 425 586 358 q 603 291 603 207 l 603 207 q 603 106 584 30 q 564 -47 525 -98 q 485 -149 426 -175 q 366 -201 285 -201 l 285 -201 q 259 -201 234 -199 q 208 -198 183 -193 l 183 -193 l 191 -114 q 209 -117 231 -119 q 253 -121 278 -121 l 278 -121 q 342 -121 386 -98 q 429 -75 455 -32 q 480 11 492 72 q 503 133 503 208 l 503 208 q 503 347 456 418 q 408 489 320 489 l 320 489 q 261 489 218 456 q 174 423 151 367 q 127 311 127 241 l 127 241 l 127 224 q 127 166 138 131 q 148 96 167 81 q 185 65 208 65 l 208 65 q 227 65 240 75 q 253 85 261 106 q 268 127 268 160 l 268 160 q 268 210 251 233 q 233 256 199 256 l 199 256 q 171 256 146 241 q 121 225 96 194 l 96 194 l 75 259 q 99 287 138 310 q 176 332 221 332 l 221 332 q 266 332 297 313 q 328 294 345 257 q 362 220 362 165 l 362 165 q 362 107 344 68 q 326 28 293 8 q 259 -12 211 -12 l 211 -12 q 164 -12 125 13 q 85 38 61 93 q 37 148 37 237 l 37 237 q 37 344 74 418 q 111 491 177 530 q 242 568 326 568 z"},"൮":{"ha":825,"x_min":36,"x_max":764,"o":"m 294 568 l 294 568 q 360 568 408 547 q 455 525 486 487 q 517 448 532 398 q 546 348 546 291 l 546 291 q 546 235 535 191 q 523 146 504 111 q 484 75 459 43 l 459 43 l 462 77 l 667 77 l 667 556 l 764 556 l 764 153 l 700 0 l 403 0 l 361 59 q 383 81 403 112 q 423 143 435 185 q 447 227 447 281 l 447 281 q 447 346 428 393 q 409 439 375 464 q 341 489 294 489 l 294 489 q 246 489 211 464 q 175 438 156 392 q 136 345 136 282 l 136 282 q 136 230 148 188 q 159 145 181 112 q 202 78 231 51 l 231 51 l 164 -10 q 129 21 100 63 q 71 105 54 161 q 36 217 36 286 l 36 286 q 36 344 52 395 q 67 446 99 485 q 131 524 180 546 q 228 568 294 568 z m 483 -201 l 483 -201 q 456 -201 430 -198 q 404 -196 381 -190 l 381 -190 l 392 -111 q 408 -115 432 -118 q 455 -121 477 -121 l 477 -121 q 534 -121 571 -108 q 607 -95 628 -71 q 648 -48 657 -15 q 665 17 667 56 l 667 56 l 764 209 l 764 116 q 764 48 757 0 q 749 -49 733 -82 q 717 -115 689 -141 l 689 -141 q 657 -169 605 -185 q 553 -201 483 -201 z"},"൯":{"ha":958,"x_min":36,"x_max":953,"o":"m 250 568 l 250 568 q 288 568 316 558 q 344 547 366 527 q 388 506 407 479 l 407 479 l 438 240 l 438 0 l 342 0 l 342 323 q 342 383 336 413 q 330 442 315 460 l 315 460 q 305 474 290 482 q 274 489 253 489 l 253 489 q 221 489 194 467 q 167 444 151 401 q 135 358 135 296 l 135 296 q 135 240 147 195 q 159 150 180 114 q 200 78 226 49 l 226 49 l 153 -9 q 120 29 94 73 q 67 117 52 173 q 36 229 36 299 l 36 299 q 36 378 62 439 q 87 500 135 534 q 183 568 250 568 z m 579 568 l 579 568 q 648 568 701 546 q 753 523 792 482 l 792 482 q 839 433 865 365 q 891 297 891 221 l 891 221 q 891 141 869 90 q 847 38 805 13 q 763 -12 703 -12 l 703 -12 q 644 -12 605 13 q 565 38 545 82 q 524 125 524 179 l 524 179 q 524 241 547 290 q 570 339 616 384 q 662 429 731 478 l 731 478 q 779 511 806 533 q 833 554 844 574 q 855 594 855 620 l 855 620 q 855 640 848 659 q 841 677 830 693 l 830 693 l 919 734 q 935 711 944 685 q 953 658 953 626 l 953 626 q 953 579 933 545 q 913 511 875 482 q 836 452 780 415 l 780 415 q 730 378 695 343 q 659 307 641 267 q 622 227 622 178 l 622 178 q 622 121 644 93 q 665 65 703 65 l 703 65 q 732 65 752 80 q 772 94 782 127 q 791 160 791 214 l 791 214 q 791 279 772 338 q 752 396 712 436 l 712 436 q 689 461 656 476 q 622 490 581 490 l 581 490 q 546 490 522 482 q 498 473 481 455 l 481 455 q 466 440 456 419 q 446 398 442 369 q 438 339 438 295 l 438 295 l 438 57 l 350 57 l 350 298 l 375 454 q 395 489 423 515 q 450 540 489 554 q 527 568 579 568 z"},"൰":{"ha":904,"x_min":-25,"x_max":868,"o":"m 183 556 l 279 556 l 279 145 l 276 102 q 276 23 266 -30 q 256 -83 230 -122 l 230 -122 q 205 -159 161 -180 q 116 -201 52 -201 l 52 -201 q 33 -201 14 -199 q -6 -197 -25 -193 l -25 -193 l -18 -114 q -5 -117 10 -119 q 24 -121 40 -121 l 40 -121 q 81 -121 107 -109 q 133 -97 148 -77 l 148 -77 q 170 -51 177 -10 q 183 31 183 96 l 183 96 l 183 556 z m 659 -12 l 659 -12 q 609 -12 574 9 q 538 29 509 72 l 509 72 l 522 74 q 495 30 460 9 q 424 -12 376 -12 l 376 -12 q 339 -12 312 0 q 285 11 266 33 q 246 54 230 85 l 230 85 l 206 258 l 206 545 l 279 539 l 279 229 q 279 174 284 146 q 289 117 303 97 l 303 97 q 314 83 331 75 q 348 67 374 67 l 374 67 q 398 67 414 76 q 430 84 442 98 l 442 98 q 458 120 463 150 q 468 179 468 234 l 468 234 l 468 556 l 564 556 l 564 235 q 564 177 570 146 q 575 114 591 96 l 591 96 q 603 81 620 74 q 636 67 654 67 l 654 67 q 688 67 714 91 q 740 115 755 158 q 769 201 769 259 l 769 259 q 769 316 757 361 q 745 406 725 443 q 704 479 678 507 l 678 507 l 751 566 q 785 528 812 483 q 838 438 853 383 q 868 327 868 254 l 868 254 q 868 178 844 118 q 820 57 773 23 q 726 -12 659 -12 z"},"൱":{"ha":783,"x_min":36,"x_max":742,"o":"m 250 568 l 250 568 q 288 568 315 557 q 341 546 362 527 q 382 507 399 481 l 399 481 l 438 240 l 438 0 l 342 0 l 342 323 q 342 383 336 413 q 330 442 315 460 l 315 460 q 305 474 290 482 q 274 489 253 489 l 253 489 q 221 489 194 467 q 167 445 151 402 q 135 358 135 296 l 135 296 q 135 240 147 195 q 159 150 180 114 q 200 78 226 49 l 226 49 l 153 -9 q 120 29 94 73 q 67 117 52 173 q 36 229 36 299 l 36 299 q 36 379 62 440 q 87 500 135 534 q 183 568 250 568 z m 534 568 l 534 568 q 600 568 647 533 q 693 498 718 423 q 742 348 742 228 l 742 228 q 742 82 710 -13 q 677 -108 608 -154 q 539 -201 429 -201 l 429 -201 q 405 -201 380 -199 q 354 -198 329 -193 l 329 -193 l 337 -114 q 355 -117 377 -119 q 398 -121 423 -121 l 423 -121 q 488 -121 531 -97 q 573 -73 598 -27 q 622 18 632 82 q 642 146 642 228 l 642 228 q 642 319 629 377 q 615 435 590 462 q 564 489 529 489 l 529 489 q 509 489 493 483 q 477 476 466 461 l 466 461 q 450 443 444 412 q 438 380 438 321 l 438 321 l 438 10 l 350 10 l 350 314 l 384 483 q 413 527 449 548 q 484 568 534 568 z"},"൲":{"ha":1211,"x_min":37,"x_max":1192,"o":"m 1045 556 l 1045 556 q 1097 556 1130 536 q 1162 516 1177 484 q 1192 451 1192 413 l 1192 413 q 1192 374 1178 343 q 1164 312 1138 292 l 1138 292 q 1120 278 1099 270 q 1077 262 1048 259 q 1018 255 977 255 l 977 255 l 821 255 l 825 332 l 988 332 q 1026 332 1045 338 q 1063 343 1075 352 l 1075 352 q 1088 362 1094 377 q 1100 392 1100 414 l 1100 414 q 1100 444 1086 462 q 1072 480 1045 480 l 1045 480 q 1014 480 999 459 q 983 438 983 403 l 983 403 q 983 366 994 340 q 1005 313 1020 291 l 1020 291 l 933 285 q 918 309 906 342 q 894 375 894 413 l 894 413 q 894 459 914 491 q 933 523 968 540 q 1002 556 1045 556 z m 251 568 l 251 568 q 288 568 315 558 q 342 547 364 527 q 385 507 406 477 l 406 477 l 438 237 l 438 0 l 342 0 l 342 323 q 342 383 336 413 q 330 442 316 460 l 316 460 q 305 474 290 482 q 275 489 253 489 l 253 489 q 221 489 195 467 q 168 445 152 402 q 135 358 135 296 l 135 296 q 135 240 148 195 q 160 150 181 114 q 201 78 227 49 l 227 49 l 154 -9 q 120 29 94 73 q 67 117 52 173 q 37 229 37 299 l 37 299 q 37 379 62 440 q 87 500 135 534 q 183 568 251 568 z m 574 568 l 574 568 q 635 568 685 547 q 734 525 771 484 q 807 442 826 379 q 845 316 845 234 l 845 234 q 845 143 822 89 q 799 34 758 11 q 717 -12 663 -12 l 663 -12 q 605 -12 569 11 q 533 34 517 71 q 500 107 500 147 l 500 147 q 500 200 519 235 q 538 270 569 291 l 569 291 q 591 307 617 316 q 642 324 679 328 q 715 332 766 332 l 766 332 l 961 332 l 961 255 l 769 255 q 712 255 682 249 q 651 242 630 227 l 630 227 q 613 215 604 196 q 595 176 595 148 l 595 148 q 595 111 613 89 q 630 66 664 66 l 664 66 q 692 66 711 83 q 730 100 740 138 q 750 175 750 236 l 750 236 q 750 252 750 267 q 749 282 747 295 l 747 295 l 744 318 q 737 363 717 402 q 697 440 662 465 q 627 489 575 489 l 575 489 q 549 489 527 483 q 504 476 485 459 l 485 459 q 468 446 458 426 q 448 405 443 376 q 438 346 438 304 l 438 304 l 438 208 l 380 217 l 374 462 q 395 493 422 517 q 449 541 486 555 q 523 568 574 568 z"},"൳":{"ha":652,"x_min":36,"x_max":630,"o":"m 208 -12 l 208 -12 q 160 -12 121 13 q 82 38 59 90 q 36 141 36 219 l 36 219 q 36 300 62 359 q 87 417 138 455 l 138 455 q 170 479 210 494 q 249 508 302 515 q 354 522 425 522 l 425 522 l 630 522 l 630 440 l 440 440 q 371 440 325 435 q 279 430 249 420 q 218 409 195 392 l 195 392 q 165 370 150 339 q 135 307 128 270 l 128 270 l 128 252 q 127 243 127 234 q 126 224 126 211 l 126 211 q 126 159 136 127 q 146 95 165 80 q 183 65 206 65 l 206 65 q 226 65 240 75 q 253 84 261 105 q 268 126 268 160 l 268 160 q 268 210 250 233 q 232 256 199 256 l 199 256 q 170 256 145 241 q 120 225 95 194 l 95 194 l 79 264 q 103 290 140 311 q 177 332 221 332 l 221 332 q 265 332 297 313 q 328 294 345 257 q 361 220 361 165 l 361 165 q 361 107 343 68 q 325 28 292 8 q 258 -12 208 -12 z"},"൴":{"ha":799,"x_min":37,"x_max":762,"o":"m 413 791 l 509 791 l 509 204 q 509 175 511 153 q 513 131 518 116 q 522 100 529 90 l 529 90 q 539 77 552 71 q 565 65 584 65 l 584 65 q 611 65 629 81 q 647 97 656 130 q 664 163 664 213 l 664 213 q 664 267 653 313 q 641 358 618 394 q 594 430 558 454 q 521 478 472 488 l 472 488 l 443 488 q 433 489 422 490 q 410 490 399 490 l 399 490 q 337 490 287 473 q 237 455 201 422 q 165 389 146 343 q 126 296 126 238 l 126 238 l 126 220 q 126 164 137 130 q 147 95 166 80 q 184 65 208 65 l 208 65 q 226 65 240 75 q 253 84 261 105 q 268 126 268 160 l 268 160 q 268 211 250 234 q 232 256 199 256 l 199 256 q 170 256 145 241 q 120 225 95 194 l 95 194 l 79 264 q 103 290 140 311 q 177 332 221 332 l 221 332 q 265 332 297 313 q 328 294 345 257 q 361 220 361 165 l 361 165 q 361 107 343 68 q 325 28 292 8 q 258 -12 210 -12 l 210 -12 q 163 -12 124 13 q 84 37 61 90 q 37 143 37 228 l 37 228 q 37 307 62 370 q 86 433 134 478 q 181 522 248 545 q 315 568 400 568 l 400 568 q 414 568 426 568 q 438 568 450 567 l 450 567 l 485 564 q 545 555 596 528 q 647 501 684 457 q 721 412 742 352 q 762 291 762 214 l 762 214 q 762 145 742 94 q 722 43 683 16 q 643 -12 585 -12 l 585 -12 q 543 -12 513 0 q 483 11 462 33 l 462 33 q 444 53 433 79 q 422 104 418 140 q 413 176 413 228 l 413 228 l 413 791 z"},"൵":{"ha":1057,"x_min":38,"x_max":1052,"o":"m 313 568 l 313 568 q 383 568 428 543 q 472 518 506 468 l 506 468 l 520 405 l 537 247 l 537 0 l 441 0 l 441 310 q 441 371 433 404 q 424 436 406 456 l 406 456 q 391 472 369 481 q 347 489 313 489 l 313 489 q 258 489 217 459 q 175 429 152 374 q 128 319 128 246 l 128 246 l 128 226 q 128 167 139 132 q 149 96 167 81 q 185 65 209 65 l 209 65 q 227 65 241 75 q 254 85 262 106 q 269 126 269 160 l 269 160 q 269 211 252 234 q 234 256 200 256 l 200 256 q 171 256 146 240 q 120 224 94 192 l 94 192 l 76 259 q 100 287 139 310 q 178 332 223 332 l 223 332 q 267 332 299 313 q 330 294 347 257 q 363 220 363 165 l 363 165 q 363 107 345 68 q 327 28 293 8 q 259 -12 211 -12 l 211 -12 q 165 -12 126 13 q 86 38 62 94 q 38 149 38 242 l 38 242 q 38 351 75 424 q 111 496 173 532 q 235 568 313 568 z m 679 568 l 679 568 q 747 568 800 546 q 852 523 891 482 l 891 482 q 938 433 964 365 q 990 297 990 221 l 990 221 q 990 141 968 90 q 946 38 905 13 q 863 -12 802 -12 l 802 -12 q 743 -12 704 13 q 664 38 644 82 q 624 125 624 179 l 624 179 q 624 241 647 290 q 669 339 715 384 q 761 429 830 478 l 830 478 q 878 511 905 533 q 932 554 943 574 q 954 594 954 620 l 954 620 q 954 640 947 659 q 940 677 929 693 l 929 693 l 1018 734 q 1034 711 1043 685 q 1052 658 1052 626 l 1052 626 q 1052 579 1032 545 q 1012 511 974 482 q 935 452 880 415 l 880 415 q 829 378 794 343 q 758 307 740 267 q 721 227 721 178 l 721 178 q 721 121 743 93 q 764 65 802 65 l 802 65 q 832 65 852 80 q 871 94 881 127 q 890 160 890 214 l 890 214 q 890 279 871 338 q 851 396 811 436 l 811 436 q 788 461 755 476 q 721 490 680 490 l 680 490 q 646 490 622 482 q 597 473 580 455 l 580 455 q 565 440 556 419 q 546 398 542 369 q 537 339 537 295 l 537 295 l 537 57 l 450 57 l 450 298 l 474 454 q 495 489 522 515 q 549 540 588 554 q 626 568 679 568 z"},"൶":{"ha":1173,"x_min":30,"x_max":1120,"o":"m 206 351 l 206 351 q 267 351 306 326 q 344 300 363 261 q 381 221 381 177 l 381 177 q 381 137 369 107 q 356 76 344 61 l 344 61 l 330 77 l 623 77 l 628 0 l 286 0 l 251 54 q 265 74 276 102 q 287 129 287 167 l 287 167 q 287 215 267 245 q 246 274 207 274 l 207 274 q 181 274 163 261 q 144 248 135 225 q 125 201 125 171 l 125 171 q 125 129 139 99 q 153 69 174 41 l 174 41 l 105 -8 q 73 28 52 72 q 30 116 30 173 l 30 173 q 30 227 52 267 q 74 306 114 329 q 153 351 206 351 z m 849 568 l 849 568 q 920 568 970 550 q 1020 532 1052 498 l 1052 498 q 1076 474 1091 443 q 1106 411 1113 369 q 1120 327 1120 271 l 1120 271 l 1120 0 l 590 0 l 590 273 q 590 328 598 370 q 605 411 620 443 q 634 474 657 498 l 657 498 q 690 532 736 550 q 781 568 849 568 z m 797 490 l 797 490 q 769 490 747 472 q 724 453 710 421 l 710 421 q 699 395 693 359 q 686 322 686 267 l 686 267 l 686 63 l 679 65 q 730 116 769 173 q 808 229 830 288 q 852 346 852 403 l 852 403 q 852 429 847 449 q 842 468 830 479 q 818 490 797 490 z m 949 387 l 949 387 q 949 329 930 275 q 910 220 875 167 q 839 113 790 58 l 790 58 l 776 73 q 798 75 826 76 q 854 77 871 77 l 871 77 l 1024 77 l 1024 273 q 1024 339 1012 383 q 1000 426 975 453 q 950 480 909 493 l 909 493 l 910 497 q 927 478 938 451 q 949 423 949 387 z"},"൷":{"ha":1492,"x_min":30,"x_max":1472,"o":"m 206 351 l 206 351 q 266 351 305 326 q 343 300 362 261 q 381 221 381 177 l 381 177 q 381 137 369 107 q 356 76 344 61 l 344 61 l 328 77 l 580 77 l 614 0 l 286 0 l 251 54 q 265 74 276 101 q 287 128 287 166 l 287 166 q 287 215 267 245 q 246 274 207 274 l 207 274 q 181 274 163 261 q 144 248 135 225 q 125 201 125 171 l 125 171 q 125 129 139 99 q 153 69 174 41 l 174 41 l 105 -8 q 73 28 52 72 q 30 116 30 173 l 30 173 q 30 227 52 267 q 74 306 114 329 q 153 351 206 351 z m 690 568 l 690 568 q 728 568 755 558 q 782 547 804 527 q 825 507 846 477 l 846 477 l 878 276 l 878 230 l 782 230 l 782 323 q 782 382 776 412 q 770 442 755 460 l 755 460 q 745 474 730 482 q 714 489 693 489 l 693 489 q 660 489 634 467 q 607 445 591 403 q 575 361 575 301 l 575 301 q 575 222 598 162 q 621 102 660 51 l 660 51 l 618 0 l 569 0 l 549 60 q 527 94 511 130 q 494 166 485 209 q 476 252 476 305 l 476 305 q 476 383 501 442 q 526 501 574 535 q 622 568 690 568 z m 1019 568 l 1019 568 q 1080 568 1130 547 q 1180 525 1217 483 q 1253 440 1273 378 q 1293 315 1293 234 l 1293 234 q 1293 142 1270 88 q 1246 34 1206 11 q 1165 -12 1110 -12 l 1110 -12 q 1052 -12 1016 11 q 980 34 964 70 q 948 106 948 147 l 948 147 q 948 200 967 235 q 985 270 1016 291 l 1016 291 q 1038 307 1064 316 q 1089 324 1125 328 q 1161 332 1211 332 l 1211 332 l 1260 332 l 1260 255 l 1216 255 q 1160 255 1130 249 q 1099 242 1077 227 l 1077 227 q 1061 215 1052 196 q 1042 176 1042 148 l 1042 148 q 1042 111 1060 89 q 1077 66 1111 66 l 1111 66 q 1139 66 1158 83 q 1177 100 1187 138 q 1197 175 1197 236 l 1197 236 q 1197 252 1197 267 q 1196 282 1194 295 l 1194 295 l 1191 318 q 1185 362 1165 402 q 1144 441 1108 465 q 1072 489 1019 489 l 1019 489 q 989 489 967 483 q 944 476 924 459 l 924 459 q 908 446 898 426 q 888 405 883 376 q 878 346 878 304 l 878 304 l 878 247 l 819 248 l 815 463 q 836 495 864 519 q 891 542 929 555 q 967 568 1019 568 z m 1368 447 l 1462 465 q 1467 453 1470 437 q 1472 420 1472 402 l 1472 402 q 1472 365 1459 338 q 1445 310 1420 292 l 1420 292 q 1392 272 1356 264 q 1319 255 1259 255 l 1259 255 l 1249 255 l 1249 332 l 1255 332 q 1287 332 1308 336 q 1329 339 1344 347 l 1344 347 q 1359 355 1367 370 q 1375 385 1375 408 l 1375 408 q 1375 416 1373 428 q 1371 439 1368 447 l 1368 447 z"},"൸":{"ha":1867,"x_min":9,"x_max":1814,"o":"m 1200 568 l 1200 568 q 1227 568 1250 562 q 1273 556 1292 543 q 1311 529 1327 509 q 1342 489 1355 461 l 1355 461 l 1325 456 q 1347 495 1379 520 q 1411 545 1452 557 q 1492 568 1543 568 l 1543 568 q 1614 568 1664 550 q 1713 532 1746 498 l 1746 498 q 1770 474 1785 443 q 1800 411 1807 369 q 1814 327 1814 271 l 1814 271 l 1814 0 l 1382 0 l 1382 74 q 1429 122 1466 177 q 1503 232 1525 290 q 1546 347 1546 403 l 1546 403 q 1546 429 1541 449 q 1536 468 1524 479 q 1511 490 1490 490 l 1490 490 q 1463 490 1441 472 q 1418 454 1405 423 l 1405 423 q 1392 394 1388 358 q 1383 322 1383 265 l 1383 265 l 1383 230 l 1287 230 l 1287 333 q 1287 381 1283 412 q 1278 442 1264 461 l 1264 461 q 1255 475 1240 482 q 1224 489 1203 489 l 1203 489 q 1183 489 1168 483 q 1152 476 1143 462 l 1143 462 q 1129 443 1124 413 q 1119 382 1119 333 l 1119 333 l 1119 222 q 1119 174 1114 139 q 1108 103 1097 79 q 1086 54 1069 36 l 1069 36 q 1047 13 1016 1 q 984 -12 939 -12 l 939 -12 q 894 -12 863 1 q 831 13 809 36 l 809 36 q 792 54 781 79 q 769 104 764 139 q 758 173 758 221 l 758 221 l 758 334 q 758 382 754 412 q 749 442 735 461 l 735 461 q 726 475 710 482 q 694 489 674 489 l 674 489 q 654 489 639 483 q 623 476 614 462 l 614 462 q 599 443 595 413 q 590 382 590 333 l 590 333 l 590 214 q 590 144 578 105 q 566 66 541 38 l 541 38 q 518 13 486 1 q 454 -12 411 -12 l 411 -12 q 354 -12 319 12 q 284 35 261 76 l 261 76 l 275 73 q 256 46 235 27 q 213 7 186 -2 q 159 -12 123 -12 l 123 -12 q 89 -12 62 -5 q 34 2 9 15 l 9 15 l 41 89 q 59 80 80 74 q 101 68 125 68 l 125 68 q 147 68 164 75 q 181 81 193 96 l 193 96 q 208 115 214 146 q 219 177 219 235 l 219 235 l 219 555 l 316 556 l 316 228 q 316 175 322 146 q 327 116 340 97 l 340 97 q 350 83 367 75 q 383 67 404 67 l 404 67 q 427 67 444 75 q 460 83 470 97 l 470 97 q 484 117 489 147 q 493 176 493 227 l 493 227 l 493 333 q 493 382 499 418 q 505 453 516 478 q 527 503 544 521 l 544 521 q 565 544 597 556 q 628 568 674 568 l 674 568 q 717 568 750 556 q 782 544 804 521 l 804 521 q 821 503 832 479 q 843 454 849 420 q 855 386 855 336 l 855 336 l 855 223 q 855 175 860 145 q 864 115 877 95 l 877 95 q 887 82 903 75 q 918 67 938 67 l 938 67 q 959 67 975 74 q 990 81 999 94 l 999 94 q 1013 114 1018 144 q 1022 174 1022 222 l 1022 222 l 1022 333 q 1022 382 1028 418 q 1034 453 1045 478 q 1056 503 1073 521 l 1073 521 q 1094 544 1126 556 q 1157 568 1200 568 z m 1642 387 l 1642 387 q 1642 329 1623 275 q 1604 220 1568 167 q 1532 113 1484 58 l 1484 58 l 1470 73 q 1492 75 1520 76 q 1548 77 1564 77 l 1564 77 l 1718 77 l 1718 273 q 1718 339 1706 383 q 1694 426 1669 453 q 1644 480 1603 493 l 1603 493 l 1604 497 q 1621 478 1632 451 q 1642 423 1642 387 z"},"൹":{"ha":983,"x_min":36,"x_max":961,"o":"m 250 568 l 250 568 q 288 568 315 558 q 342 547 364 527 q 385 507 406 477 l 406 477 l 438 237 l 438 0 l 342 0 l 342 323 q 342 383 336 413 q 330 442 315 460 l 315 460 q 305 474 290 482 q 274 489 253 489 l 253 489 q 221 489 194 467 q 167 445 151 402 q 135 358 135 296 l 135 296 q 135 240 147 195 q 159 150 180 114 q 200 78 226 49 l 226 49 l 153 -9 q 120 29 94 73 q 67 117 52 173 q 36 229 36 299 l 36 299 q 36 379 62 440 q 87 500 135 534 q 183 568 250 568 z m 574 568 l 574 568 q 634 568 684 547 q 734 525 770 484 q 806 442 826 379 q 845 316 845 234 l 845 234 q 845 143 822 89 q 798 34 758 11 q 717 -12 662 -12 l 662 -12 q 604 -12 569 11 q 533 34 517 71 q 500 107 500 147 l 500 147 q 500 200 519 235 q 537 270 568 291 l 568 291 q 590 307 616 316 q 642 324 678 328 q 714 332 766 332 l 766 332 l 961 332 l 961 255 l 769 255 q 712 255 682 249 q 651 242 629 227 l 629 227 q 613 215 604 196 q 595 176 595 148 l 595 148 q 595 111 613 89 q 630 66 664 66 l 664 66 q 691 66 710 83 q 729 100 740 138 q 750 175 750 236 l 750 236 q 750 252 749 267 q 748 282 747 295 l 747 295 l 743 318 q 737 363 717 402 q 697 440 662 465 q 627 489 575 489 l 575 489 q 549 489 526 483 q 503 476 484 459 l 484 459 q 468 446 458 426 q 447 405 443 376 q 438 346 438 304 l 438 304 l 438 208 l 380 217 l 374 462 q 395 493 422 517 q 449 541 486 555 q 523 568 574 568 z"},"ൺ":{"ha":1301,"x_min":38,"x_max":1265,"o":"m 313 568 l 313 568 q 383 568 427 544 q 470 519 504 473 l 504 473 l 479 478 q 507 524 546 546 q 584 568 635 568 l 635 568 q 691 568 728 544 q 764 519 790 473 l 790 473 l 786 447 l 822 321 l 822 0 l 726 0 l 726 327 q 726 383 721 412 q 716 440 702 459 l 702 459 q 691 473 675 481 q 658 489 632 489 l 632 489 q 607 489 591 481 q 575 472 564 458 l 564 458 q 548 437 543 408 q 537 378 537 323 l 537 323 l 537 0 l 441 0 l 441 309 q 441 370 433 403 q 424 436 406 456 l 406 456 q 391 472 369 481 q 347 489 313 489 l 313 489 q 258 489 217 460 q 175 430 152 375 q 128 320 128 246 l 128 246 l 128 226 q 128 167 139 132 q 149 96 167 81 q 185 65 209 65 l 209 65 q 227 65 241 75 q 254 85 262 106 q 269 126 269 160 l 269 160 q 269 211 252 234 q 234 256 200 256 l 200 256 q 171 256 146 240 q 120 224 94 192 l 94 192 l 76 259 q 100 287 139 310 q 178 332 223 332 l 223 332 q 267 332 299 313 q 330 294 347 257 q 363 220 363 165 l 363 165 q 363 107 345 68 q 327 28 293 8 q 259 -12 211 -12 l 211 -12 q 165 -12 126 13 q 86 38 62 94 q 38 149 38 241 l 38 241 q 38 351 75 424 q 111 496 173 532 q 235 568 313 568 z m 1088 -12 l 1088 -12 q 1032 -12 993 14 q 953 40 933 90 q 913 140 913 212 l 913 212 q 913 272 928 323 q 943 373 971 418 q 999 463 1036 505 l 1036 505 l 1053 533 q 1081 567 1099 596 q 1116 625 1116 653 l 1116 653 q 1116 679 1101 696 q 1085 713 1052 713 l 1052 713 q 1037 713 1020 711 q 1003 708 993 704 l 993 704 l 975 781 q 992 786 1020 790 q 1047 794 1075 794 l 1075 794 q 1130 794 1160 774 q 1189 754 1201 726 q 1212 697 1212 671 l 1212 671 q 1212 624 1190 581 q 1167 537 1126 489 l 1126 489 l 1109 467 q 1077 430 1055 389 q 1033 348 1022 304 q 1010 259 1010 210 l 1010 210 q 1010 156 1020 124 q 1030 92 1048 78 q 1065 64 1087 64 l 1087 64 q 1127 64 1147 97 q 1166 130 1166 211 l 1166 211 q 1166 258 1155 308 q 1144 357 1121 400 q 1098 442 1061 466 l 1061 466 q 1043 477 1021 485 q 999 492 968 492 l 968 492 q 933 492 908 483 q 883 474 865 457 l 865 457 q 850 442 841 422 q 832 401 827 371 q 822 341 822 297 l 822 297 l 822 61 l 733 61 l 733 260 l 759 456 q 780 490 807 515 q 834 540 873 554 q 912 568 966 568 l 966 568 q 1004 568 1037 561 q 1070 553 1097 539 l 1097 539 q 1101 538 1104 536 q 1107 533 1111 530 l 1111 530 q 1163 501 1197 453 q 1231 404 1248 344 q 1265 284 1265 218 l 1265 218 q 1265 103 1220 46 q 1175 -12 1088 -12 z"},"ൻ":{"ha":918,"x_min":36,"x_max":881,"o":"m 250 568 l 250 568 q 287 568 314 557 q 341 546 363 527 q 384 507 402 480 l 402 480 l 438 247 l 438 0 l 342 0 l 342 323 q 342 383 336 413 q 330 442 315 460 l 315 460 q 305 474 290 482 q 274 489 253 489 l 253 489 q 221 489 194 467 q 167 445 151 402 q 135 358 135 296 l 135 296 q 135 240 147 195 q 159 150 180 114 q 200 78 226 49 l 226 49 l 153 -9 q 120 29 94 73 q 67 117 52 173 q 36 229 36 299 l 36 299 q 36 379 62 440 q 87 500 135 534 q 182 568 250 568 z m 705 -12 l 705 -12 q 648 -12 609 14 q 569 40 549 90 q 529 140 529 212 l 529 212 q 529 272 544 323 q 559 373 587 418 q 615 463 652 505 l 652 505 l 669 533 q 698 567 715 596 q 732 625 732 653 l 732 653 q 732 679 717 696 q 701 713 669 713 l 669 713 q 654 713 638 711 q 622 708 609 704 l 609 704 l 591 781 q 608 786 636 790 q 663 794 692 794 l 692 794 q 746 794 776 774 q 805 754 817 726 q 828 697 828 671 l 828 671 q 828 624 806 581 q 784 537 742 489 l 742 489 l 725 467 q 694 430 672 389 q 649 348 638 304 q 626 259 626 210 l 626 210 q 626 156 636 124 q 646 92 664 78 q 681 64 703 64 l 703 64 q 743 64 763 97 q 782 130 782 211 l 782 211 q 782 258 771 308 q 760 357 737 400 q 714 442 677 466 l 677 466 q 659 477 637 485 q 615 492 584 492 l 584 492 q 549 492 524 483 q 499 474 481 457 l 481 457 q 467 442 458 422 q 448 401 443 371 q 438 341 438 297 l 438 297 l 438 61 l 349 61 l 349 260 l 375 456 q 396 490 423 515 q 450 540 489 554 q 528 568 582 568 l 582 568 q 620 568 653 561 q 686 553 713 539 l 713 539 q 717 538 721 536 q 724 533 727 530 l 727 530 q 779 501 813 453 q 847 404 864 344 q 881 284 881 218 l 881 218 q 881 103 836 46 q 791 -12 705 -12 z"},"ർ":{"ha":642,"x_min":36,"x_max":605,"o":"m 429 -12 l 429 -12 q 372 -12 333 14 q 293 40 273 90 q 253 140 253 212 l 253 212 q 253 272 268 323 q 283 373 311 418 q 339 463 376 505 l 376 505 l 393 533 q 422 567 439 596 q 456 625 456 653 l 456 653 q 456 679 441 696 q 425 713 393 713 l 393 713 q 378 713 361 711 q 343 708 333 704 l 333 704 l 315 781 q 332 786 360 790 q 387 794 415 794 l 415 794 q 470 794 500 774 q 529 754 541 726 q 552 697 552 671 l 552 671 q 552 624 530 581 q 508 537 466 489 l 466 489 l 449 467 q 418 430 396 389 q 373 348 362 304 q 350 259 350 210 l 350 210 q 350 156 360 124 q 370 92 388 78 q 405 64 428 64 l 428 64 q 467 64 487 97 q 506 130 506 211 l 506 211 q 506 246 500 283 q 494 320 482 356 q 469 391 449 420 q 429 449 401 467 l 401 467 q 383 478 362 485 q 341 491 311 491 l 311 491 q 254 491 215 464 q 175 437 156 390 q 136 342 136 282 l 136 282 q 136 228 147 186 q 158 144 180 111 q 201 78 230 51 l 230 51 l 164 -10 q 128 21 100 63 q 71 105 54 161 q 36 216 36 286 l 36 286 q 36 345 54 396 q 71 447 105 486 q 139 524 191 546 q 242 568 309 568 l 309 568 q 346 568 378 561 q 410 554 437 540 l 437 540 q 441 539 444 537 q 447 534 451 532 l 451 532 q 503 502 537 453 q 571 404 588 344 q 605 283 605 218 l 605 218 q 605 102 560 45 q 514 -12 429 -12 z"},"ൽ":{"ha":1047,"x_min":36,"x_max":1011,"o":"m 637 568 l 637 568 q 684 568 722 563 q 759 557 790 546 q 821 535 848 519 l 848 519 l 867 510 q 941 463 976 386 q 1011 308 1011 216 l 1011 216 q 1011 103 966 46 q 920 -12 834 -12 l 834 -12 q 777 -12 738 14 q 699 40 679 90 q 659 140 659 212 l 659 212 q 659 272 674 323 q 689 373 717 418 q 744 463 781 505 l 781 505 l 795 528 q 826 563 844 594 q 862 625 862 653 l 862 653 q 862 679 847 696 q 831 713 798 713 l 798 713 q 784 713 767 711 q 749 708 739 704 l 739 704 l 721 781 q 738 786 766 790 q 793 794 822 794 l 822 794 q 876 794 906 774 q 935 754 947 726 q 958 697 958 671 l 958 671 q 958 624 936 581 q 913 537 872 489 l 872 489 l 855 467 q 823 430 801 389 q 779 348 768 304 q 756 259 756 210 l 756 210 q 756 156 766 124 q 775 92 793 78 q 811 64 834 64 l 834 64 q 873 64 893 97 q 912 130 912 211 l 912 211 q 912 260 901 307 q 889 353 865 392 q 841 430 803 453 l 803 453 l 777 463 q 747 478 712 484 q 676 490 637 490 l 637 490 q 597 490 561 484 q 524 477 493 462 l 493 462 l 471 456 q 419 423 389 361 q 358 298 358 210 l 358 210 q 358 153 370 122 q 381 90 400 78 q 418 65 439 65 l 439 65 q 462 65 481 78 q 499 90 510 123 q 521 155 521 216 l 521 216 q 521 274 507 324 q 492 374 466 412 q 440 449 405 469 l 405 469 l 387 478 q 371 486 353 490 q 335 493 316 493 l 316 493 q 257 493 217 466 q 177 439 157 392 q 136 344 136 281 l 136 281 q 136 228 148 186 q 159 144 180 111 q 201 78 230 51 l 230 51 l 163 -9 q 128 22 100 64 q 71 105 54 160 q 36 215 36 286 l 36 286 q 36 342 52 393 q 68 444 101 484 q 133 523 184 546 q 235 568 306 568 l 306 568 q 350 568 386 559 q 422 549 455 526 l 455 526 l 475 510 q 541 467 580 394 q 619 321 619 217 l 619 217 q 619 143 598 92 q 577 40 537 14 q 497 -12 438 -12 l 438 -12 q 381 -12 341 15 q 301 42 281 93 q 260 144 260 214 l 260 214 q 260 275 275 327 q 290 378 322 421 q 353 463 401 496 l 401 496 l 420 514 q 459 540 513 554 q 566 568 637 568 z"},"ൾ":{"ha":903,"x_min":36,"x_max":867,"o":"m 678 794 l 678 794 q 732 794 762 774 q 791 754 803 726 q 814 697 814 671 l 814 671 q 814 624 791 581 q 768 537 728 489 l 728 489 l 710 467 q 679 430 657 389 q 635 348 624 304 q 612 259 612 210 l 612 210 q 612 156 622 124 q 631 92 649 78 q 667 64 689 64 l 689 64 q 728 64 748 97 q 767 130 767 211 l 767 211 q 767 246 762 283 q 756 320 744 356 q 731 391 712 420 q 693 449 664 467 l 664 467 q 647 478 627 485 q 607 491 579 491 l 579 491 q 553 491 530 485 q 507 478 490 466 l 490 466 q 454 441 443 394 q 432 347 432 281 l 432 281 l 432 213 q 432 174 428 143 q 423 111 413 86 q 403 60 384 40 l 384 40 q 360 15 327 2 q 293 -12 245 -12 l 245 -12 q 180 -12 133 20 q 86 51 61 111 q 36 170 36 254 l 36 254 q 36 327 51 384 q 66 440 93 486 q 120 531 155 569 l 155 569 l 227 511 q 201 481 180 445 q 159 408 147 362 q 135 316 135 258 l 135 258 q 135 197 149 155 q 163 112 188 90 q 212 67 244 67 l 244 67 q 269 67 286 76 q 302 84 312 98 l 312 98 q 326 119 331 152 q 335 185 335 240 l 335 240 l 335 299 q 335 379 353 433 q 371 487 414 521 l 414 521 q 444 544 483 556 q 522 568 576 568 l 576 568 q 613 568 643 561 q 672 554 698 541 l 698 541 l 713 532 q 764 503 798 455 q 832 406 850 346 q 867 285 867 218 l 867 218 q 867 103 822 46 q 776 -12 690 -12 l 690 -12 q 633 -12 594 14 q 555 40 535 90 q 514 140 514 212 l 514 212 q 514 272 530 323 q 545 373 573 418 q 600 463 637 505 l 637 505 l 654 533 q 683 567 701 596 q 718 625 718 653 l 718 653 q 718 679 703 696 q 687 713 654 713 l 654 713 q 639 713 622 711 q 605 708 594 704 l 594 704 l 576 781 q 593 786 621 790 q 649 794 678 794 z"},"ൿ":{"ha":1045,"x_min":30,"x_max":1014,"o":"m 451 568 l 451 568 q 522 568 567 533 q 612 498 634 434 q 655 369 655 280 l 655 280 q 655 181 631 116 q 606 51 561 20 q 515 -12 451 -12 l 451 -12 q 398 -12 361 8 q 323 28 299 61 l 299 61 q 270 102 258 159 q 245 216 245 281 l 245 281 q 245 423 300 496 q 354 568 451 568 z m 451 491 l 451 491 q 395 491 368 440 q 340 389 340 279 l 340 279 q 340 204 352 157 q 364 109 389 87 q 413 65 450 65 l 450 65 q 486 65 511 87 q 535 108 548 156 q 560 203 560 279 l 560 279 q 560 354 548 401 q 535 448 511 470 q 487 491 451 491 z m 193 -12 l 193 -12 q 115 -12 73 33 q 30 77 30 154 l 30 154 q 30 206 52 240 q 73 274 108 295 l 108 295 q 130 308 157 316 q 183 324 222 328 q 260 332 317 332 l 317 332 l 767 332 q 831 332 875 323 q 918 314 952 289 l 952 289 q 979 269 997 236 q 1014 203 1014 153 l 1014 153 q 1014 76 976 32 q 937 -12 859 -12 l 859 -12 q 781 -12 741 35 q 701 82 701 154 l 701 154 q 701 188 709 220 q 716 251 729 285 l 729 285 q 730 290 731 295 q 732 300 734 305 l 734 305 q 746 334 761 368 q 776 401 795 442 l 795 442 q 819 493 835 530 q 850 566 858 595 q 865 624 865 649 l 865 649 q 865 678 850 696 q 834 713 801 713 l 801 713 q 786 713 769 711 q 752 708 741 704 l 741 704 l 723 781 q 741 786 769 790 q 796 794 825 794 l 825 794 q 880 794 909 774 q 938 754 950 726 q 961 697 961 670 l 961 670 q 961 644 957 620 q 953 596 943 568 q 933 539 918 503 q 902 466 879 416 l 879 416 q 863 382 851 355 q 839 327 829 304 l 829 304 q 827 297 824 290 q 821 283 819 277 l 819 277 q 806 243 800 215 q 793 187 793 155 l 793 155 q 793 122 803 103 q 812 83 827 75 q 842 67 858 67 l 858 67 q 889 67 905 89 q 920 110 920 149 l 920 149 q 920 177 912 197 q 903 217 887 229 l 887 229 q 867 244 839 250 q 810 255 771 255 l 771 255 l 295 255 q 242 255 212 250 q 181 244 159 229 l 159 229 q 143 218 133 200 q 123 181 123 155 l 123 155 q 123 127 133 107 q 142 87 161 77 q 179 66 205 66 l 205 66 q 233 66 257 76 q 280 85 307 107 l 307 107 l 353 43 q 325 21 300 10 q 274 -2 249 -7 q 223 -12 193 -12 z"},"!":{"ha":262,"x_min":68,"x_max":194,"o":"m 167 212 l 94 212 l 72 714 l 189 714 l 167 212 z m 131 -12 l 131 -12 q 102 -12 85 6 q 68 23 68 58 l 68 58 q 68 93 84 111 q 100 128 131 128 l 131 128 q 160 128 177 111 q 194 94 194 58 l 194 58 q 194 22 176 5 q 158 -12 131 -12 z"},"\"":{"ha":415,"x_min":64,"x_max":352,"o":"m 153 542 l 82 542 l 64 800 l 172 800 l 153 542 z m 333 542 l 262 542 l 243 800 l 352 800 l 333 542 z"},"#":{"ha":551,"x_min":26,"x_max":524,"o":"m 153 0 l 78 0 l 118 208 l 26 208 l 26 282 l 132 282 l 161 435 l 53 435 l 53 509 l 174 509 l 214 714 l 289 714 l 250 509 l 359 509 l 398 714 l 473 714 l 433 509 l 524 509 l 524 435 l 419 435 l 390 282 l 498 282 l 498 208 l 376 208 l 336 0 l 261 0 l 301 208 l 193 208 l 153 0 z m 236 435 l 206 282 l 316 282 l 345 435 l 236 435 z"},"%":{"ha":745,"x_min":41,"x_max":704,"o":"m 262 0 l 183 0 l 482 714 l 561 714 l 262 0 z m 173 276 l 173 276 q 107 276 74 335 q 41 393 41 500 l 41 500 q 41 608 74 666 q 106 724 175 724 l 175 724 q 241 724 274 666 q 307 608 307 501 l 307 501 q 307 392 274 334 q 241 276 173 276 z m 173 348 l 173 348 q 201 348 213 385 q 225 422 225 500 l 225 500 q 225 578 213 615 q 201 652 174 652 l 174 652 q 147 652 135 615 q 123 578 123 500 l 123 500 q 123 422 136 385 q 148 348 173 348 z m 569 -10 l 569 -10 q 504 -10 471 49 q 438 108 438 214 l 438 214 q 438 323 471 381 q 503 438 571 438 l 571 438 q 637 438 671 380 q 704 322 704 215 l 704 215 q 704 107 671 49 q 638 -10 569 -10 z m 571 62 l 571 62 q 598 62 611 99 q 623 136 623 214 l 623 214 q 623 293 611 330 q 598 366 571 366 l 571 366 q 545 366 533 329 q 520 292 520 215 l 520 215 q 520 136 533 99 q 545 62 571 62 z"},"'":{"ha":235,"x_min":64,"x_max":172,"o":"m 153 542 l 82 542 l 64 800 l 172 800 l 153 542 z"},"(":{"ha":315,"x_min":44,"x_max":285,"o":"m 44 278 l 44 278 q 44 373 62 468 q 79 562 113 648 q 146 734 193 800 l 193 800 l 285 800 q 239 728 207 643 q 174 558 157 466 q 140 373 140 278 l 140 278 q 140 183 157 92 q 173 0 206 -84 q 238 -169 285 -244 l 285 -244 l 193 -244 q 143 -174 110 -87 q 77 0 61 94 q 44 187 44 278 z"},")":{"ha":315,"x_min":29,"x_max":270,"o":"m 270 279 l 270 279 q 270 184 253 89 q 236 -6 203 -91 q 169 -177 122 -244 l 122 -244 l 29 -244 q 77 -171 109 -86 q 141 -2 158 91 q 175 184 175 279 l 175 279 q 175 375 159 466 q 142 556 110 641 q 78 725 30 800 l 30 800 l 122 800 q 172 730 205 644 q 238 557 254 464 q 270 371 270 279 z"},"*":{"ha":525,"x_min":37,"x_max":488,"o":"m 212 800 l 311 800 l 294 621 l 473 671 l 488 575 l 315 562 l 427 414 l 339 366 l 260 529 l 187 366 l 98 414 l 208 562 l 37 575 l 52 671 l 229 622 l 212 800 z"},"+":{"ha":480,"x_min":36,"x_max":444,"o":"m 280 116 l 200 116 l 200 313 l 36 313 l 36 393 l 200 393 l 200 591 l 280 591 l 280 393 l 444 393 l 444 313 l 280 313 l 280 116 z"},",":{"ha":260,"x_min":39,"x_max":193,"o":"m 84 115 l 186 115 l 193 104 q 183 62 171 22 q 159 -18 145 -56 q 131 -94 115 -131 l 115 -131 l 39 -131 q 49 -91 58 -47 q 67 -4 74 38 q 81 80 84 115 l 84 115 z"},"-":{"ha":313,"x_min":36,"x_max":277,"o":"m 277 226 l 36 226 l 36 313 l 277 313 l 277 226 z"},".":{"ha":261,"x_min":67,"x_max":194,"o":"m 130 -12 l 130 -12 q 102 -12 85 6 q 67 23 67 58 l 67 58 q 67 94 84 111 q 101 128 130 128 l 130 128 q 159 128 177 112 q 194 95 194 58 l 194 58 q 194 22 176 5 q 158 -12 130 -12 z"},"/":{"ha":396,"x_min":19,"x_max":376,"o":"m 112 -244 l 19 -244 l 283 800 l 376 800 l 112 -244 z"},":":{"ha":261,"x_min":68,"x_max":194,"o":"m 131 -12 l 131 -12 q 102 -12 85 6 q 68 23 68 58 l 68 58 q 68 94 85 111 q 101 128 131 128 l 131 128 q 159 128 177 112 q 194 95 194 58 l 194 58 q 194 22 176 5 q 158 -12 131 -12 z m 131 402 l 131 402 q 102 402 85 420 q 68 437 68 472 l 68 472 q 68 508 85 526 q 101 543 131 543 l 131 543 q 160 543 177 526 q 194 509 194 472 l 194 472 q 194 436 176 419 q 158 402 131 402 z"},";":{"ha":262,"x_min":39,"x_max":193,"o":"m 85 115 l 186 115 l 193 104 q 184 62 172 22 q 159 -18 145 -56 q 131 -94 115 -131 l 115 -131 l 39 -131 q 50 -91 59 -47 q 67 -4 74 38 q 81 80 85 115 l 85 115 z m 130 402 l 130 402 q 101 402 84 420 q 67 437 67 472 l 67 472 q 67 508 84 526 q 100 543 130 543 l 130 543 q 159 543 176 526 q 193 509 193 472 l 193 472 q 193 436 175 419 q 157 402 130 402 z"},"<":{"ha":480,"x_min":35,"x_max":445,"o":"m 445 213 l 445 124 l 35 326 l 35 382 l 445 592 l 445 503 l 145 355 l 445 213 z"},"=":{"ha":480,"x_min":37,"x_max":443,"o":"m 443 207 l 37 207 l 37 287 l 443 287 l 443 207 z m 443 417 l 37 417 l 37 497 l 443 497 l 443 417 z"},">":{"ha":480,"x_min":35,"x_max":445,"o":"m 445 326 l 35 124 l 35 213 l 335 355 l 35 502 l 35 592 l 445 382 l 445 326 z"},"?":{"ha":384,"x_min":34,"x_max":354,"o":"m 185 724 l 185 724 q 267 724 311 678 q 354 632 354 557 l 354 557 q 354 514 345 483 q 336 451 317 423 q 297 394 266 358 l 266 358 q 244 332 232 313 q 219 293 214 274 q 209 255 209 232 l 209 232 l 209 212 l 126 212 l 126 240 q 126 273 132 300 q 138 327 153 352 q 168 376 192 403 l 192 403 q 217 430 232 453 q 246 475 253 498 q 259 520 259 548 l 259 548 q 259 591 236 614 q 213 637 172 637 l 172 637 q 145 637 119 629 q 93 621 69 608 l 69 608 l 34 684 q 69 703 106 714 q 142 724 185 724 z m 169 -12 l 169 -12 q 141 -12 124 6 q 106 23 106 58 l 106 58 q 106 94 123 111 q 140 128 169 128 l 169 128 q 198 128 215 112 q 232 95 232 58 l 232 58 q 232 22 215 5 q 197 -12 169 -12 z"},"[":{"ha":327,"x_min":74,"x_max":289,"o":"m 289 -244 l 74 -244 l 74 800 l 289 800 l 289 722 l 168 722 l 168 -166 l 289 -166 l 289 -244 z"},"\\":{"ha":396,"x_min":19,"x_max":376,"o":"m 376 -244 l 283 -244 l 19 800 l 112 800 l 376 -244 z"},"]":{"ha":327,"x_min":38,"x_max":252,"o":"m 252 -244 l 38 -244 l 38 -166 l 159 -166 l 159 722 l 38 722 l 38 800 l 252 800 l 252 -244 z"},"^":{"ha":496,"x_min":23,"x_max":473,"o":"m 112 318 l 23 318 l 219 716 l 274 716 l 473 318 l 383 318 l 246 600 l 112 318 z"},"_":{"ha":382,"x_min":-2,"x_max":384,"o":"m 384 -155 l -2 -155 l -2 -90 l 384 -90 l 384 -155 z"},"{":{"ha":369,"x_min":28,"x_max":331,"o":"m 331 -165 l 331 -244 q 270 -243 230 -225 q 190 -207 170 -170 q 150 -134 150 -81 l 150 -81 l 150 143 q 150 194 119 216 q 88 238 28 238 l 28 238 l 28 319 q 88 319 119 341 q 150 362 150 413 l 150 413 l 150 638 q 150 691 170 727 q 190 763 230 782 q 270 800 331 800 l 331 800 l 331 721 q 286 720 266 699 q 245 678 245 630 l 245 630 l 245 403 q 245 352 219 322 q 192 291 138 282 l 138 282 l 138 276 q 192 266 219 236 q 245 205 245 154 l 245 154 l 245 -74 q 245 -106 254 -126 q 263 -146 283 -155 q 302 -164 331 -165 l 331 -165 z"},"|":{"ha":551,"x_min":233,"x_max":318,"o":"m 318 -244 l 233 -244 l 233 800 l 318 800 l 318 -244 z"},"}":{"ha":369,"x_min":38,"x_max":340,"o":"m 38 721 l 38 800 q 100 800 140 781 q 179 762 199 727 q 219 691 219 637 l 219 637 l 219 414 q 219 363 250 341 q 281 319 340 319 l 340 319 l 340 238 q 281 237 250 216 q 219 195 219 144 l 219 144 l 219 -82 q 219 -135 199 -171 q 178 -207 138 -225 q 98 -244 38 -244 l 38 -244 l 38 -165 q 83 -163 104 -142 q 124 -122 124 -74 l 124 -74 l 124 154 q 124 205 151 236 q 177 266 231 276 l 231 276 l 231 282 q 177 291 151 322 q 124 352 124 403 l 124 403 l 124 630 q 124 662 115 682 q 106 702 87 711 q 68 720 38 721 l 38 721 z"},"~":{"ha":480,"x_min":35,"x_max":446,"o":"m 228 315 l 228 315 q 200 329 179 336 q 157 342 138 342 l 138 342 q 112 342 86 326 q 59 309 35 282 l 35 282 l 35 370 q 57 395 84 409 q 110 422 142 422 l 142 422 q 170 422 196 415 q 221 407 253 391 l 253 391 q 282 377 303 371 q 324 364 345 364 l 345 364 q 371 364 398 381 q 424 397 446 423 l 446 423 l 446 335 q 424 311 398 298 q 372 284 340 284 l 340 284 q 310 284 286 292 q 261 299 228 315 z"}," ":{"ha":247,"x_min":0,"x_max":0,"o":""},"­":{"ha":313,"x_min":36,"x_max":277,"o":"m 277 226 l 36 226 l 36 313 l 277 313 l 277 226 z"},"–":{"ha":500,"x_min":39,"x_max":461,"o":"m 461 225 l 39 225 l 39 312 l 461 312 l 461 225 z"},"—":{"ha":1000,"x_min":39,"x_max":961,"o":"m 961 225 l 39 225 l 39 312 l 961 312 l 961 225 z"},"‘":{"ha":233,"x_min":39,"x_max":192,"o":"m 147 554 l 45 554 l 39 565 q 48 607 60 647 q 72 687 87 726 q 102 764 117 800 l 117 800 l 192 800 q 182 760 173 717 q 164 673 158 632 q 151 590 147 554 l 147 554 z"},"’":{"ha":233,"x_min":39,"x_max":192,"o":"m 84 800 l 186 800 l 192 789 q 184 748 172 708 q 159 668 145 630 q 131 592 115 554 l 115 554 l 39 554 q 46 583 53 616 q 60 648 66 681 q 72 714 77 745 q 82 775 84 800 l 84 800 z"},"“":{"ha":417,"x_min":39,"x_max":377,"o":"m 332 555 l 230 555 l 224 565 q 233 607 245 647 q 257 687 272 726 q 286 764 302 800 l 302 800 l 377 800 q 368 759 359 717 q 350 674 343 633 q 336 592 332 555 l 332 555 z m 147 555 l 45 555 l 39 565 q 49 607 61 647 q 73 687 88 726 q 102 764 117 800 l 117 800 l 193 800 q 183 760 174 717 q 164 673 158 632 q 152 590 147 555 l 147 555 z"},"”":{"ha":417,"x_min":39,"x_max":377,"o":"m 270 800 l 370 800 l 377 789 q 368 748 356 708 q 344 668 330 630 q 316 592 299 555 l 299 555 l 224 555 q 235 597 244 640 q 252 682 259 723 q 265 763 270 800 l 270 800 z m 84 800 l 186 800 l 192 789 q 184 748 172 708 q 159 668 145 630 q 131 592 115 555 l 115 555 l 39 555 q 46 583 53 616 q 60 648 66 681 q 72 714 77 745 q 82 775 84 800 l 84 800 z"},"…":{"ha":756,"x_min":68,"x_max":689,"o":"m 131 -12 l 131 -12 q 102 -12 85 6 q 68 23 68 58 l 68 58 q 68 94 85 111 q 101 128 131 128 l 131 128 q 159 128 177 112 q 194 95 194 58 l 194 58 q 194 22 177 5 q 159 -12 131 -12 z m 378 -12 l 378 -12 q 349 -12 332 6 q 315 23 315 58 l 315 58 q 315 94 332 111 q 349 128 378 128 l 378 128 q 406 128 424 112 q 441 95 441 58 l 441 58 q 441 22 424 5 q 406 -12 378 -12 z m 626 -12 l 626 -12 q 597 -12 580 6 q 563 23 563 58 l 563 58 q 563 94 580 111 q 596 128 626 128 l 626 128 q 654 128 672 112 q 689 95 689 58 l 689 58 q 689 22 672 5 q 654 -12 626 -12 z"},"×":{"ha":480,"x_min":42,"x_max":438,"o":"m 239 409 l 382 551 l 438 497 l 295 353 l 436 211 l 381 156 l 239 297 l 97 156 l 42 211 l 183 353 l 42 494 l 97 550 l 239 409 z"},"÷":{"ha":480,"x_min":36,"x_max":444,"o":"m 444 313 l 36 313 l 36 393 l 444 393 l 444 313 z m 241 111 l 241 111 q 214 111 199 128 q 184 144 184 177 l 184 177 q 184 210 199 226 q 214 242 241 242 l 241 242 q 267 242 282 226 q 297 210 297 177 l 297 177 q 297 144 282 128 q 266 111 241 111 z m 241 463 l 241 463 q 214 463 199 480 q 184 496 184 528 l 184 528 q 184 562 199 578 q 214 594 241 594 l 241 594 q 267 594 282 578 q 297 561 297 528 l 297 528 q 296 496 281 480 q 266 463 241 463 z"},"−":{"ha":480,"x_min":36,"x_max":444,"o":"m 444 313 l 36 313 l 36 393 l 444 393 l 444 313 z"},"₹":{"ha":480,"x_min":57,"x_max":430,"o":"m 332 0 l 218 0 l 57 274 l 69 353 l 90 353 q 136 353 157 363 q 178 373 190 391 l 190 391 q 202 410 207 436 q 212 461 212 494 l 212 494 q 212 542 205 567 q 198 592 182 610 l 182 610 q 169 624 150 631 q 131 638 95 638 l 95 638 l 57 638 l 57 714 l 430 714 l 430 638 l 257 638 q 280 619 294 586 q 308 552 308 494 l 308 494 q 308 430 291 386 q 273 342 237 315 q 201 288 145 277 l 145 277 l 154 290 l 332 0 z m 430 461 l 57 461 l 57 539 l 430 539 l 430 461 z"},"꠰":{"ha":231,"x_min":67,"x_max":163,"o":"m 67 0 l 67 556 l 163 556 l 163 0 l 67 0 z"},"꠱":{"ha":407,"x_min":67,"x_max":340,"o":"m 67 0 l 67 556 l 163 556 l 163 0 l 67 0 z m 244 0 l 244 556 l 340 556 l 340 0 l 244 0 z"},"꠲":{"ha":584,"x_min":67,"x_max":517,"o":"m 67 0 l 67 556 l 163 556 l 163 0 l 67 0 z m 244 0 l 244 556 l 340 556 l 340 0 l 244 0 z m 420 0 l 420 556 l 517 556 l 517 0 l 420 0 z"},"॑":{"ha":0,"x_min":-316,"x_max":-241,"o":"m -316 653 l -316 864 l -241 864 l -241 653 l -316 653 z"},"॒":{"ha":0,"x_min":-486,"x_max":-72,"o":"m -72 -109 l -72 -183 l -486 -183 l -486 -109 l -72 -109 z"},"।":{"ha":313,"x_min":143,"x_max":240,"o":"m 240 -49 l 143 -49 l 143 603 l 240 603 l 240 -49 z"},"॥":{"ha":528,"x_min":143,"x_max":456,"o":"m 456 -49 l 359 -49 l 359 603 l 456 603 l 456 -49 z m 241 -49 l 143 -49 l 143 603 l 241 603 l 241 -49 z"},"᳚":{"ha":0,"x_min":-378,"x_max":-180,"o":"m -378 653 l -378 864 l -307 864 l -307 653 l -378 653 z m -250 653 l -250 864 l -180 864 l -180 653 l -250 653 z"},"̇":{"ha":0,"x_min":-325,"x_max":-216,"o":"m -325 701 l -325 701 q -325 733 -309 748 q -294 762 -270 762 l -270 762 q -246 762 -231 748 q -216 733 -216 701 l -216 701 q -216 669 -231 655 q -246 640 -270 640 l -270 640 q -294 640 -309 655 q -325 669 -325 701 z"},"̣":{"ha":0,"x_min":-325,"x_max":-216,"o":"m -325 -135 l -325 -135 q -325 -103 -309 -89 q -294 -75 -270 -75 l -270 -75 q -246 -75 -231 -89 q -216 -103 -216 -135 l -216 -135 q -216 -167 -231 -181 q -246 -196 -270 -196 l -270 -196 q -294 -196 -309 -181 q -325 -167 -325 -135 z"},"‐":{"ha":313,"x_min":36,"x_max":277,"o":"m 277 226 l 36 226 l 36 313 l 277 313 l 277 226 z"},"​":{"ha":0,"x_min":0,"x_max":0,"o":""},"‌":{"ha":0,"x_min":0,"x_max":0,"o":""},"‍":{"ha":0,"x_min":-161,"x_max":161,"o":"m 29 -244 l -29 -244 l -29 565 l -121 474 l -161 514 l -40 631 l -161 748 l -121 788 l 0 669 l 121 788 l 161 748 l 40 631 l 161 514 l 121 474 l 29 565 l 29 -244 z"},"◌":{"ha":562,"x_min":57,"x_max":504,"o":"m 89 231 l 89 231 q 57 231 57 264 l 57 264 q 57 295 89 295 l 89 295 q 121 295 121 264 l 121 264 q 121 231 89 231 z m 138 95 l 138 95 q 106 95 106 127 l 106 127 q 106 158 138 158 l 138 158 q 169 158 169 127 l 169 127 q 169 95 138 95 z m 281 40 l 281 40 q 249 40 249 72 l 249 72 q 249 104 281 104 l 281 104 q 312 104 312 72 l 312 72 q 312 40 281 40 z m 138 369 l 138 369 q 106 369 106 401 l 106 401 q 106 432 138 432 l 138 432 q 169 432 169 401 l 169 401 q 169 369 138 369 z m 423 95 l 423 95 q 391 95 391 127 l 391 127 q 391 158 423 158 l 423 158 q 455 158 455 127 l 455 127 q 455 95 423 95 z m 281 424 l 281 424 q 249 424 249 456 l 249 456 q 249 487 281 487 l 281 487 q 312 487 312 456 l 312 456 q 312 424 281 424 z m 472 231 l 472 231 q 441 231 441 264 l 441 264 q 441 295 472 295 l 472 295 q 504 295 504 264 l 504 264 q 504 231 472 231 z m 423 369 l 423 369 q 391 369 391 401 l 391 401 q 391 432 423 432 l 423 432 q 455 432 455 401 l 455 401 q 455 369 423 369 z"},"«":{"ha":497,"x_min":35,"x_max":461,"o":"m 35 260 l 35 274 l 189 476 l 259 439 l 144 267 l 259 96 l 189 57 l 35 260 z m 237 260 l 237 274 l 392 476 l 461 439 l 347 267 l 461 96 l 392 57 l 237 260 z"},"»":{"ha":497,"x_min":36,"x_max":462,"o":"m 462 274 l 462 260 l 308 57 l 238 96 l 353 267 l 238 439 l 308 476 l 462 274 z m 260 274 l 260 260 l 105 57 l 36 96 l 150 267 l 36 439 l 105 476 l 260 274 z"},"̈":{"ha":0,"x_min":-135,"x_max":136,"o":"m -135 675 l -135 675 q -135 704 -120 717 q -106 730 -85 730 l -85 730 q -64 730 -50 717 q -36 703 -36 675 l -36 675 q -36 648 -50 634 q -64 619 -85 619 l -85 619 q -106 619 -120 634 q -135 648 -135 675 z m 36 675 l 36 675 q 36 704 51 717 q 65 730 86 730 l 86 730 q 107 730 122 717 q 136 703 136 675 l 136 675 q 136 648 122 634 q 107 619 86 619 l 86 619 q 64 619 50 634 q 36 648 36 675 z"},"̀":{"ha":0,"x_min":-427,"x_max":-220,"o":"m -427 766 l -312 766 q -301 744 -285 716 q -269 688 -251 662 q -234 636 -221 618 l -221 618 l -221 606 l -286 606 q -302 619 -322 638 q -342 657 -362 679 q -383 701 -400 722 q -417 742 -427 757 l -427 757 l -427 766 z"},"́":{"ha":0,"x_min":-303,"x_max":-97,"o":"m -97 766 l -97 757 q -106 742 -123 722 q -140 702 -160 681 q -180 659 -200 640 q -221 620 -237 606 l -237 606 l -303 606 l -303 618 q -286 642 -269 668 q -252 693 -237 719 q -223 744 -212 766 l -212 766 l -97 766 z"},"̋":{"ha":0,"x_min":-111,"x_max":226,"o":"m 226 766 l 226 757 q 219 742 204 722 q 188 701 169 680 q 150 658 131 639 q 112 620 97 606 l 97 606 l 46 606 l 46 618 q 61 641 77 669 q 93 697 107 723 q 120 749 127 766 l 127 766 l 226 766 z m 69 766 l 69 757 q 61 741 47 721 q 32 701 14 680 q -4 659 -24 640 q -44 621 -62 606 l -62 606 l -111 606 l -111 618 q -96 642 -80 670 q -65 697 -51 723 q -38 749 -30 766 l -30 766 l 69 766 z"},"̄":{"ha":0,"x_min":-134,"x_max":135,"o":"m -134 688 l 135 688 l 135 612 l -134 612 l -134 688 z"},"˙":{"ha":191,"x_min":40,"x_max":151,"o":"m 96 745 l 96 745 q 122 745 137 730 q 151 714 151 683 l 151 683 q 151 652 137 637 q 122 621 96 621 l 96 621 q 71 621 56 637 q 40 652 40 683 l 40 683 q 40 715 55 730 q 70 745 96 745 z"},"°":{"ha":384,"x_min":43,"x_max":340,"o":"m 192 436 l 192 436 q 148 436 115 454 q 81 472 62 505 q 43 537 43 580 l 43 580 q 43 624 63 656 q 82 688 116 706 q 149 723 192 723 l 192 723 q 235 723 269 706 q 302 688 321 656 q 340 623 340 580 l 340 580 q 340 537 321 505 q 302 472 269 454 q 235 436 192 436 z m 192 499 l 192 499 q 229 499 251 521 q 272 543 272 580 l 272 580 q 272 617 251 639 q 229 661 192 661 l 192 661 q 154 661 133 639 q 112 616 112 580 l 112 580 q 112 542 135 521 q 157 499 192 499 z"},"A":{"ha":526,"x_min":0,"x_max":526,"o":"m 526 0 l 419 0 l 363 208 l 163 208 l 108 0 l 0 0 l 203 715 l 322 715 l 526 0 z m 342 299 l 286 516 q 282 534 278 553 q 273 572 269 591 q 265 610 262 625 l 262 625 q 260 609 256 590 q 252 570 248 551 q 243 532 239 517 l 239 517 l 184 299 l 342 299 z"},"Á":{"ha":526,"x_min":0,"x_max":526,"o":"m 526 0 l 419 0 l 363 208 l 163 208 l 108 0 l 0 0 l 203 715 l 322 715 l 526 0 z m 342 299 l 286 516 q 282 534 278 553 q 273 572 269 591 q 265 610 262 625 l 262 625 q 260 609 256 590 q 252 570 248 551 q 243 532 239 517 l 239 517 l 184 299 l 342 299 z m 408 940 l 408 931 q 399 916 382 896 q 365 876 345 855 q 325 833 305 814 q 284 794 268 780 l 268 780 l 202 780 l 202 792 q 219 816 236 842 q 253 867 268 893 q 282 918 293 940 l 293 940 l 408 940 z"},"Ă":{"ha":526,"x_min":0,"x_max":526,"o":"m 526 0 l 419 0 l 363 208 l 163 208 l 108 0 l 0 0 l 203 715 l 322 715 l 526 0 z m 342 299 l 286 516 q 282 534 278 553 q 273 572 269 591 q 265 610 262 625 l 262 625 q 260 609 256 590 q 252 570 248 551 q 243 532 239 517 l 239 517 l 184 299 l 342 299 z m 344 924 l 404 924 q 403 881 385 849 q 366 816 334 799 q 302 781 260 781 l 260 781 q 197 781 160 818 q 122 855 120 924 l 120 924 l 181 924 q 183 899 193 884 q 203 869 221 863 q 239 856 262 856 l 262 856 q 284 856 302 863 q 319 869 331 884 q 342 899 344 924 l 344 924 z"},"Â":{"ha":526,"x_min":0,"x_max":526,"o":"m 526 0 l 419 0 l 363 208 l 163 208 l 108 0 l 0 0 l 203 715 l 322 715 l 526 0 z m 342 299 l 286 516 q 282 534 278 553 q 273 572 269 591 q 265 610 262 625 l 262 625 q 260 609 256 590 q 252 570 248 551 q 243 532 239 517 l 239 517 l 184 299 l 342 299 z m 211 940 l 313 940 q 324 918 341 892 q 358 865 378 839 q 398 813 416 791 l 416 791 l 416 780 l 356 780 q 334 798 310 821 q 285 844 262 871 l 262 871 q 238 844 214 820 q 189 796 169 780 l 169 780 l 109 780 l 109 791 q 127 813 147 840 q 166 866 184 893 q 201 919 211 940 l 211 940 z"},"Ä":{"ha":526,"x_min":0,"x_max":526,"o":"m 526 0 l 419 0 l 363 208 l 163 208 l 108 0 l 0 0 l 203 715 l 322 715 l 526 0 z m 342 299 l 286 516 q 282 534 278 553 q 273 572 269 591 q 265 610 262 625 l 262 625 q 260 609 256 590 q 252 570 248 551 q 243 532 239 517 l 239 517 l 184 299 l 342 299 z m 127 849 l 127 849 q 127 878 142 891 q 156 904 177 904 l 177 904 q 198 904 212 891 q 226 877 226 849 l 226 849 q 226 822 212 808 q 198 793 177 793 l 177 793 q 156 793 142 808 q 127 822 127 849 z m 298 849 l 298 849 q 298 878 313 891 q 327 904 348 904 l 348 904 q 369 904 384 891 q 398 877 398 849 l 398 849 q 398 822 384 808 q 369 793 348 793 l 348 793 q 326 793 312 808 q 298 822 298 849 z"},"À":{"ha":526,"x_min":0,"x_max":526,"o":"m 526 0 l 419 0 l 363 208 l 163 208 l 108 0 l 0 0 l 203 715 l 322 715 l 526 0 z m 342 299 l 286 516 q 282 534 278 553 q 273 572 269 591 q 265 610 262 625 l 262 625 q 260 609 256 590 q 252 570 248 551 q 243 532 239 517 l 239 517 l 184 299 l 342 299 z m 130 940 l 245 940 q 256 918 272 890 q 288 862 306 836 q 323 810 336 792 l 336 792 l 336 780 l 271 780 q 255 793 235 812 q 215 831 195 853 q 174 875 157 896 q 140 916 130 931 l 130 931 l 130 940 z"},"Ā":{"ha":526,"x_min":0,"x_max":526,"o":"m 526 0 l 419 0 l 363 208 l 163 208 l 108 0 l 0 0 l 203 715 l 322 715 l 526 0 z m 342 299 l 286 516 q 282 534 278 553 q 273 572 269 591 q 265 610 262 625 l 262 625 q 260 609 256 590 q 252 570 248 551 q 243 532 239 517 l 239 517 l 184 299 l 342 299 z m 128 862 l 397 862 l 397 786 l 128 786 l 128 862 z"},"Ą":{"ha":526,"x_min":0,"x_max":526,"o":"m 526 0 l 419 0 l 363 208 l 163 208 l 108 0 l 0 0 l 203 715 l 322 715 l 526 0 z m 342 299 l 286 516 q 282 534 278 553 q 273 572 269 591 q 265 610 262 625 l 262 625 q 260 609 256 590 q 252 570 248 551 q 243 532 239 517 l 239 517 l 184 299 l 342 299 z m 428 -115 l 428 -115 q 428 -137 440 -149 q 451 -161 472 -161 l 472 -161 q 485 -161 494 -159 q 503 -157 510 -154 l 510 -154 l 510 -219 q 499 -223 486 -225 q 472 -228 454 -228 l 454 -228 q 402 -228 376 -202 q 350 -176 350 -130 l 350 -130 q 350 -103 362 -77 q 373 -51 393 -28 q 413 -5 438 13 l 438 13 l 491 0 q 457 -33 443 -59 q 428 -86 428 -115 z"},"Å":{"ha":526,"x_min":0,"x_max":526,"o":"m 526 0 l 419 0 l 363 208 l 163 208 l 108 0 l 0 0 l 203 715 l 322 715 l 526 0 z m 342 299 l 286 516 q 282 534 278 553 q 273 572 269 591 q 265 610 262 625 l 262 625 q 260 609 256 590 q 252 570 248 551 q 243 532 239 517 l 239 517 l 184 299 l 342 299 z m 263 662 l 263 662 q 212 662 183 691 q 153 720 153 768 l 153 768 q 153 816 183 845 q 212 874 263 874 l 263 874 q 311 874 342 846 q 373 817 373 770 l 373 770 q 373 721 343 692 q 312 662 263 662 z m 263 718 l 263 718 q 286 718 301 732 q 315 745 315 768 l 315 768 q 315 791 301 806 q 287 820 263 820 l 263 820 q 240 820 226 806 q 211 791 211 768 l 211 768 q 211 745 224 732 q 237 718 263 718 z"},"Ã":{"ha":526,"x_min":0,"x_max":526,"o":"m 526 0 l 419 0 l 363 208 l 163 208 l 108 0 l 0 0 l 203 715 l 322 715 l 526 0 z m 342 299 l 286 516 q 282 534 278 553 q 273 572 269 591 q 265 610 262 625 l 262 625 q 260 609 256 590 q 252 570 248 551 q 243 532 239 517 l 239 517 l 184 299 l 342 299 z m 155 779 l 99 779 q 101 805 108 829 q 115 852 127 871 q 138 889 156 900 q 173 910 196 910 l 196 910 q 215 910 233 902 q 251 894 268 883 q 285 872 300 864 q 315 855 331 855 l 331 855 q 347 855 357 871 q 367 886 372 911 l 372 911 l 428 911 q 424 848 398 814 q 371 780 331 780 l 331 780 q 313 780 295 789 q 277 797 260 808 q 242 819 227 828 q 212 836 198 836 l 198 836 q 183 836 172 821 q 160 806 155 779 l 155 779 z"},"Æ":{"ha":724,"x_min":-1,"x_max":673,"o":"m 673 89 l 673 0 l 346 0 l 346 208 l 176 208 l 105 0 l -1 0 l 250 714 l 673 714 l 673 625 l 448 625 l 448 416 l 658 416 l 658 328 l 448 328 l 448 89 l 673 89 z m 315 624 l 206 299 l 347 299 l 347 624 l 315 624 z"},"B":{"ha":543,"x_min":79,"x_max":498,"o":"m 79 714 l 257 714 q 366 714 424 673 q 482 631 482 539 l 482 539 q 482 496 470 463 q 458 429 435 408 q 411 386 375 378 l 375 378 l 375 374 q 415 365 443 345 q 470 324 484 290 q 498 255 498 205 l 498 205 q 498 142 474 96 q 449 50 402 25 q 355 0 289 0 l 289 0 l 79 0 l 79 714 z m 181 415 l 264 415 q 325 415 352 443 q 378 470 378 527 l 378 527 q 378 578 349 603 q 319 627 259 627 l 259 627 l 181 627 l 181 415 z m 269 330 l 181 330 l 181 88 l 277 88 q 338 88 365 120 q 392 152 392 213 l 392 213 q 392 251 379 277 q 366 303 339 317 q 311 330 269 330 l 269 330 z"},"C":{"ha":509,"x_min":52,"x_max":482,"o":"m 327 635 l 327 635 q 284 635 253 614 q 221 593 200 555 q 179 517 169 466 q 158 415 158 356 l 158 356 q 158 270 178 208 q 197 146 236 113 q 274 80 329 80 l 329 80 q 364 80 396 88 q 428 96 460 110 l 460 110 l 460 20 q 429 5 395 -2 q 360 -10 317 -10 l 317 -10 q 232 -10 173 34 q 114 78 83 161 q 52 243 52 357 l 52 357 q 52 436 70 503 q 87 570 121 620 q 155 669 206 697 q 257 725 323 725 l 323 725 q 366 725 406 714 q 446 703 482 684 l 482 684 l 447 598 q 420 614 390 625 q 359 635 327 635 z"},"Ć":{"ha":509,"x_min":52,"x_max":482,"o":"m 327 635 l 327 635 q 284 635 253 614 q 221 593 200 555 q 179 517 169 466 q 158 415 158 356 l 158 356 q 158 270 178 208 q 197 146 236 113 q 274 80 329 80 l 329 80 q 364 80 396 88 q 428 96 460 110 l 460 110 l 460 20 q 429 5 395 -2 q 360 -10 317 -10 l 317 -10 q 232 -10 173 34 q 114 78 83 161 q 52 243 52 357 l 52 357 q 52 436 70 503 q 87 570 121 620 q 155 669 206 697 q 257 725 323 725 l 323 725 q 366 725 406 714 q 446 703 482 684 l 482 684 l 447 598 q 420 614 390 625 q 359 635 327 635 z m 457 940 l 457 931 q 448 916 431 896 q 414 876 394 855 q 374 833 354 814 q 333 794 317 780 l 317 780 l 251 780 l 251 792 q 268 816 285 842 q 302 867 317 893 q 331 918 342 940 l 342 940 l 457 940 z"},"Č":{"ha":509,"x_min":52,"x_max":482,"o":"m 327 635 l 327 635 q 284 635 253 614 q 221 593 200 555 q 179 517 169 466 q 158 415 158 356 l 158 356 q 158 270 178 208 q 197 146 236 113 q 274 80 329 80 l 329 80 q 364 80 396 88 q 428 96 460 110 l 460 110 l 460 20 q 429 5 395 -2 q 360 -10 317 -10 l 317 -10 q 232 -10 173 34 q 114 78 83 161 q 52 243 52 357 l 52 357 q 52 436 70 503 q 87 570 121 620 q 155 669 206 697 q 257 725 323 725 l 323 725 q 366 725 406 714 q 446 703 482 684 l 482 684 l 447 598 q 420 614 390 625 q 359 635 327 635 z m 362 780 l 260 780 q 249 802 232 829 q 214 855 195 882 q 176 908 158 929 l 158 929 l 158 940 l 218 940 q 238 924 263 900 q 288 875 311 849 l 311 849 q 336 878 358 899 q 380 919 405 940 l 405 940 l 465 940 l 465 929 q 448 909 429 883 q 409 856 391 830 q 373 803 362 780 l 362 780 z"},"Ç":{"ha":509,"x_min":52,"x_max":482,"o":"m 327 635 l 327 635 q 284 635 253 614 q 221 593 200 555 q 179 517 169 466 q 158 415 158 356 l 158 356 q 158 270 178 208 q 197 146 236 113 q 274 80 329 80 l 329 80 q 364 80 396 88 q 428 96 460 110 l 460 110 l 460 20 q 429 5 395 -2 q 360 -10 317 -10 l 317 -10 q 232 -10 173 34 q 114 78 83 161 q 52 243 52 357 l 52 357 q 52 436 70 503 q 87 570 121 620 q 155 669 206 697 q 257 725 323 725 l 323 725 q 366 725 406 714 q 446 703 482 684 l 482 684 l 447 598 q 420 614 390 625 q 359 635 327 635 z m 396 -133 l 396 -133 q 396 -185 364 -212 q 332 -240 265 -240 l 265 -240 q 247 -240 233 -238 q 219 -237 208 -234 l 208 -234 l 208 -172 q 219 -175 233 -177 q 247 -179 259 -179 l 259 -179 q 286 -179 301 -168 q 315 -157 315 -136 l 315 -136 q 315 -112 295 -98 q 274 -85 236 -81 l 236 -81 l 273 0 l 334 0 l 313 -45 q 339 -50 358 -62 q 376 -75 386 -92 q 396 -110 396 -133 z"},"Ċ":{"ha":509,"x_min":52,"x_max":482,"o":"m 327 635 l 327 635 q 284 635 253 614 q 221 593 200 555 q 179 517 169 466 q 158 415 158 356 l 158 356 q 158 270 178 208 q 197 146 236 113 q 274 80 329 80 l 329 80 q 364 80 396 88 q 428 96 460 110 l 460 110 l 460 20 q 429 5 395 -2 q 360 -10 317 -10 l 317 -10 q 232 -10 173 34 q 114 78 83 161 q 52 243 52 357 l 52 357 q 52 436 70 503 q 87 570 121 620 q 155 669 206 697 q 257 725 323 725 l 323 725 q 366 725 406 714 q 446 703 482 684 l 482 684 l 447 598 q 420 614 390 625 q 359 635 327 635 z m 311 919 l 311 919 q 337 919 352 904 q 366 888 366 857 l 366 857 q 366 826 352 811 q 337 795 311 795 l 311 795 q 286 795 271 811 q 255 826 255 857 l 255 857 q 255 889 270 904 q 285 919 311 919 z"},"D":{"ha":592,"x_min":79,"x_max":540,"o":"m 540 365 l 540 365 q 540 246 506 165 q 471 83 405 42 q 338 0 241 0 l 241 0 l 79 0 l 79 714 l 253 714 q 344 714 408 675 q 472 635 506 558 q 540 480 540 365 z m 434 361 l 434 361 q 434 451 413 510 q 392 568 352 597 q 311 625 252 625 l 252 625 l 181 625 l 181 89 l 241 89 q 340 89 387 158 q 434 226 434 361 z"},"Ð":{"ha":592,"x_min":21,"x_max":539,"o":"m 79 714 l 253 714 q 343 714 407 675 q 471 635 505 558 q 539 480 539 365 l 539 365 q 539 246 505 165 q 470 83 404 42 q 337 0 241 0 l 241 0 l 79 0 l 79 322 l 21 322 l 21 404 l 79 404 l 79 714 z m 251 625 l 251 625 l 181 625 l 181 404 l 290 404 l 290 322 l 181 322 l 181 89 l 241 89 q 339 89 387 158 q 434 226 434 361 l 434 361 q 434 451 413 510 q 391 568 351 597 q 311 625 251 625 z"},"Ď":{"ha":592,"x_min":79,"x_max":540,"o":"m 540 365 l 540 365 q 540 246 506 165 q 471 83 405 42 q 338 0 241 0 l 241 0 l 79 0 l 79 714 l 253 714 q 344 714 408 675 q 472 635 506 558 q 540 480 540 365 z m 434 361 l 434 361 q 434 451 413 510 q 392 568 352 597 q 311 625 252 625 l 252 625 l 181 625 l 181 89 l 241 89 q 340 89 387 158 q 434 226 434 361 z m 343 780 l 241 780 q 230 802 213 829 q 195 855 176 882 q 157 908 139 929 l 139 929 l 139 940 l 199 940 q 219 924 244 900 q 269 875 292 849 l 292 849 q 317 878 339 899 q 361 919 386 940 l 386 940 l 446 940 l 446 929 q 429 909 410 883 q 390 856 372 830 q 354 803 343 780 l 343 780 z"},"Đ":{"ha":592,"x_min":21,"x_max":539,"o":"m 79 714 l 253 714 q 343 714 407 675 q 471 635 505 558 q 539 480 539 365 l 539 365 q 539 246 505 165 q 470 83 404 42 q 337 0 241 0 l 241 0 l 79 0 l 79 322 l 21 322 l 21 404 l 79 404 l 79 714 z m 251 625 l 251 625 l 181 625 l 181 404 l 290 404 l 290 322 l 181 322 l 181 89 l 241 89 q 339 89 387 158 q 434 226 434 361 l 434 361 q 434 451 413 510 q 391 568 351 597 q 311 625 251 625 z"},"E":{"ha":455,"x_min":79,"x_max":405,"o":"m 405 89 l 405 0 l 79 0 l 79 714 l 405 714 l 405 625 l 181 625 l 181 416 l 391 416 l 391 328 l 181 328 l 181 89 l 405 89 z"},"É":{"ha":455,"x_min":79,"x_max":405,"o":"m 405 89 l 405 0 l 79 0 l 79 714 l 405 714 l 405 625 l 181 625 l 181 416 l 391 416 l 391 328 l 181 328 l 181 89 l 405 89 z m 391 940 l 391 931 q 382 916 365 896 q 348 876 328 855 q 308 833 288 814 q 267 794 251 780 l 251 780 l 185 780 l 185 792 q 202 816 219 842 q 236 867 251 893 q 265 918 276 940 l 276 940 l 391 940 z"},"Ě":{"ha":455,"x_min":79,"x_max":405,"o":"m 405 89 l 405 0 l 79 0 l 79 714 l 405 714 l 405 625 l 181 625 l 181 416 l 391 416 l 391 328 l 181 328 l 181 89 l 405 89 z m 296 780 l 194 780 q 183 802 166 829 q 148 855 129 882 q 110 908 92 929 l 92 929 l 92 940 l 152 940 q 172 924 197 900 q 222 875 245 849 l 245 849 q 270 878 292 899 q 314 919 339 940 l 339 940 l 399 940 l 399 929 q 382 909 363 883 q 343 856 325 830 q 307 803 296 780 l 296 780 z"},"Ê":{"ha":455,"x_min":79,"x_max":405,"o":"m 405 89 l 405 0 l 79 0 l 79 714 l 405 714 l 405 625 l 181 625 l 181 416 l 391 416 l 391 328 l 181 328 l 181 89 l 405 89 z m 194 940 l 296 940 q 307 918 324 892 q 341 865 361 839 q 381 813 399 791 l 399 791 l 399 780 l 339 780 q 317 798 293 821 q 268 844 245 871 l 245 871 q 221 844 197 820 q 172 796 152 780 l 152 780 l 92 780 l 92 791 q 110 813 130 840 q 149 866 167 893 q 184 919 194 940 l 194 940 z"},"Ë":{"ha":455,"x_min":79,"x_max":405,"o":"m 405 89 l 405 0 l 79 0 l 79 714 l 405 714 l 405 625 l 181 625 l 181 416 l 391 416 l 391 328 l 181 328 l 181 89 l 405 89 z m 109 849 l 109 849 q 109 878 124 891 q 138 904 159 904 l 159 904 q 180 904 194 891 q 208 877 208 849 l 208 849 q 208 822 194 808 q 180 793 159 793 l 159 793 q 138 793 124 808 q 109 822 109 849 z m 280 849 l 280 849 q 280 878 295 891 q 309 904 330 904 l 330 904 q 351 904 366 891 q 380 877 380 849 l 380 849 q 380 822 366 808 q 351 793 330 793 l 330 793 q 308 793 294 808 q 280 822 280 849 z"},"Ė":{"ha":455,"x_min":79,"x_max":405,"o":"m 405 89 l 405 0 l 79 0 l 79 714 l 405 714 l 405 625 l 181 625 l 181 416 l 391 416 l 391 328 l 181 328 l 181 89 l 405 89 z m 246 919 l 246 919 q 272 919 287 904 q 301 888 301 857 l 301 857 q 301 826 287 811 q 272 795 246 795 l 246 795 q 221 795 206 811 q 190 826 190 857 l 190 857 q 190 889 205 904 q 220 919 246 919 z"},"È":{"ha":455,"x_min":79,"x_max":405,"o":"m 405 89 l 405 0 l 79 0 l 79 714 l 405 714 l 405 625 l 181 625 l 181 416 l 391 416 l 391 328 l 181 328 l 181 89 l 405 89 z m 112 940 l 227 940 q 238 918 254 890 q 270 862 288 836 q 305 810 318 792 l 318 792 l 318 780 l 253 780 q 237 793 217 812 q 197 831 177 853 q 156 875 139 896 q 122 916 112 931 l 112 931 l 112 940 z"},"Ē":{"ha":455,"x_min":79,"x_max":405,"o":"m 405 89 l 405 0 l 79 0 l 79 714 l 405 714 l 405 625 l 181 625 l 181 416 l 391 416 l 391 328 l 181 328 l 181 89 l 405 89 z m 110 862 l 379 862 l 379 786 l 110 786 l 110 862 z"},"Ę":{"ha":455,"x_min":79,"x_max":405,"o":"m 405 89 l 405 0 l 79 0 l 79 714 l 405 714 l 405 625 l 181 625 l 181 416 l 391 416 l 391 328 l 181 328 l 181 89 l 405 89 z m 319 -115 l 319 -115 q 319 -137 331 -149 q 342 -161 363 -161 l 363 -161 q 376 -161 385 -159 q 394 -157 401 -154 l 401 -154 l 401 -219 q 390 -223 377 -225 q 363 -228 345 -228 l 345 -228 q 293 -228 267 -202 q 241 -176 241 -130 l 241 -130 q 241 -103 253 -77 q 264 -51 284 -28 q 304 -5 329 13 l 329 13 l 382 0 q 348 -33 334 -59 q 319 -86 319 -115 z"},"F":{"ha":435,"x_min":79,"x_max":405,"o":"m 180 299 l 180 0 l 79 0 l 79 714 l 405 714 l 405 625 l 180 625 l 180 388 l 391 388 l 391 299 l 180 299 z"},"G":{"ha":603,"x_min":52,"x_max":541,"o":"m 328 294 l 328 384 l 541 384 l 541 27 q 492 9 441 0 q 390 -10 332 -10 l 332 -10 q 238 -10 176 37 q 113 83 83 166 q 52 249 52 358 l 52 358 q 52 468 87 550 q 122 632 190 678 q 258 724 357 724 l 357 724 q 406 724 452 713 q 497 701 536 679 l 536 679 l 501 594 q 468 613 432 624 q 396 635 358 635 l 358 635 q 296 635 251 603 q 206 570 182 508 q 158 446 158 356 l 158 356 q 158 277 177 215 q 195 152 236 116 q 276 80 341 80 l 341 80 q 372 80 396 84 q 419 87 441 93 l 441 93 l 441 294 l 328 294 z"},"Ğ":{"ha":603,"x_min":52,"x_max":541,"o":"m 328 294 l 328 384 l 541 384 l 541 27 q 492 9 441 0 q 390 -10 332 -10 l 332 -10 q 238 -10 176 37 q 113 83 83 166 q 52 249 52 358 l 52 358 q 52 468 87 550 q 122 632 190 678 q 258 724 357 724 l 357 724 q 406 724 452 713 q 497 701 536 679 l 536 679 l 501 594 q 468 613 432 624 q 396 635 358 635 l 358 635 q 296 635 251 603 q 206 570 182 508 q 158 446 158 356 l 158 356 q 158 277 177 215 q 195 152 236 116 q 276 80 341 80 l 341 80 q 372 80 396 84 q 419 87 441 93 l 441 93 l 441 294 l 328 294 z m 421 924 l 481 924 q 480 881 462 849 q 443 816 411 799 q 379 781 337 781 l 337 781 q 274 781 237 818 q 199 855 197 924 l 197 924 l 258 924 q 260 899 270 884 q 280 869 298 863 q 316 856 339 856 l 339 856 q 361 856 379 863 q 396 869 408 884 q 419 899 421 924 l 421 924 z"},"Ģ":{"ha":603,"x_min":52,"x_max":541,"o":"m 328 294 l 328 384 l 541 384 l 541 27 q 492 9 441 0 q 390 -10 332 -10 l 332 -10 q 238 -10 176 37 q 113 83 83 166 q 52 249 52 358 l 52 358 q 52 468 87 550 q 122 632 190 678 q 258 724 357 724 l 357 724 q 406 724 452 713 q 497 701 536 679 l 536 679 l 501 594 q 468 613 432 624 q 396 635 358 635 l 358 635 q 296 635 251 603 q 206 570 182 508 q 158 446 158 356 l 158 356 q 158 277 177 215 q 195 152 236 116 q 276 80 341 80 l 341 80 q 372 80 396 84 q 419 87 441 93 l 441 93 l 441 294 l 328 294 z m 404 -61 l 404 -71 q 397 -93 386 -120 q 374 -147 361 -173 q 347 -199 332 -221 l 332 -221 l 274 -221 l 274 -209 q 280 -191 287 -164 q 293 -137 299 -109 q 304 -82 306 -61 l 306 -61 l 404 -61 z"},"Ġ":{"ha":603,"x_min":52,"x_max":541,"o":"m 328 294 l 328 384 l 541 384 l 541 27 q 492 9 441 0 q 390 -10 332 -10 l 332 -10 q 238 -10 176 37 q 113 83 83 166 q 52 249 52 358 l 52 358 q 52 468 87 550 q 122 632 190 678 q 258 724 357 724 l 357 724 q 406 724 452 713 q 497 701 536 679 l 536 679 l 501 594 q 468 613 432 624 q 396 635 358 635 l 358 635 q 296 635 251 603 q 206 570 182 508 q 158 446 158 356 l 158 356 q 158 277 177 215 q 195 152 236 116 q 276 80 341 80 l 341 80 q 372 80 396 84 q 419 87 441 93 l 441 93 l 441 294 l 328 294 z m 339 919 l 339 919 q 365 919 380 904 q 394 888 394 857 l 394 857 q 394 826 380 811 q 365 795 339 795 l 339 795 q 314 795 299 811 q 283 826 283 857 l 283 857 q 283 889 298 904 q 313 919 339 919 z"},"H":{"ha":609,"x_min":79,"x_max":530,"o":"m 530 714 l 530 0 l 429 0 l 429 328 l 180 328 l 180 0 l 79 0 l 79 714 l 180 714 l 180 417 l 429 417 l 429 714 l 530 714 z"}}}
